<?xml version="1.0" standalone="no"?>
<!DOCTYPE svg PUBLIC "-//W3C//DTD SVG 1.1//EN" "http://www.w3.org/Graphics/SVG/1.1/DTD/svg11.dtd">
<svg xmlns="http://www.w3.org/2000/svg">
<defs >
<font id="ZenMaruGothic" horiz-adv-x="975" ><font-face
    font-family="Zen Maru Gothic Medium"
    units-per-em="1000"
    panose-1="0 0 0 0 0 0 0 0 0 0"
    ascent="1160"
    descent="-288"
    alphabetic="0" />
<glyph unicode=" " glyph-name="space" horiz-adv-x="280" />
<glyph unicode="!" glyph-name="exclam" horiz-adv-x="287" d="M144 194Q109 194 106 241L97 653Q95 702 143 702Q192 702 190 653L181 241Q179 194 144 194ZM144 -13Q116 -13 97 6T77 53Q77 82 96 101T144 120Q172 120 191 101T211 53Q211 25 192 6T144 -13Z" />
<glyph unicode="&quot;" glyph-name="quotedbl" horiz-adv-x="384" d="M277 465Q262 465 251 475T240 501L235 740Q234 758 246 771T277 784Q295 784 307 771T319 740L314 501Q314 486 303 476T277 465ZM107 465Q92 465 81 475T70 501L65 740Q65 758 77 771T107
784Q125 784 137 771T149 740L144 501Q144 486 133 476T107 465Z" />
<glyph unicode="#" glyph-name="numbersign" horiz-adv-x="597" d="M153 0Q135 0 127 13T122 50L144 211H89Q41 211 41 246Q41 281 81 281H153L172 419H118Q70 419 70 454Q70 490 110 490H182L205 656Q211 700 248 700Q265 700 273 687T278 650L256 490H380L403
656Q409 700 446 700Q463 700 471 687T476 650L454 490H509Q556 490 556 454Q556 419 517 419H444L426 281H479Q527 281 527 246Q527 211 487 211H417L394 44Q386 0 351 0Q333 0 325 13T320 50L342 211H218L195 44Q189 0 153 0ZM228 281H351L370 419H247L228 281Z"
/>
<glyph unicode="$" glyph-name="dollar" horiz-adv-x="617" d="M315 -67Q287 -67 287 -46V-13Q224 -8 170 17T75 89Q62 108 66 125T88 153Q122 174 152 139Q205 87 287 77V316Q190 336 135 382T80 516Q80 600 136 654T287 716V750Q287 765 296 770T315 775Q344
775 344 750V714Q400 709 445 688T528 632Q543 616 541 599T522 568Q504 554 489 556T456 575Q431 595 404 608T344 625V397Q462 371 514 320T566 186Q566 95 504 44T344 -13V-46Q344 -56 335 -61T315 -67ZM344 76Q402 81 436 108T470 185Q470 212 461 233T424
271T344 301V76ZM287 412V627Q238 622 207 595T175 520Q175 482 198 456T287 412Z" />
<glyph unicode="%" glyph-name="percent" horiz-adv-x="771" d="M201 358Q133 358 92 406T50 536Q50 617 91 664T201 712Q269 712 310 665T352 536Q352 454 311 406T201 358ZM571 -11Q504 -11 462 36T420 165Q420 246 462 294T571 342Q639 342 680 294T722 165Q722
84 681 37T571 -11ZM181 19Q152 -19 131 -4Q109 11 136 51L590 683Q603 702 616 708T640 706Q663 689 635 652L181 19ZM571 57Q611 57 632 85T653 165Q653 217 632 245T571 273Q531 273 510 245T489 165Q489 113 510 85T571 57ZM201 428Q240 428 261 456T282 536Q282
587 261 615T201 643Q161 643 140 615T119 536Q119 484 140 456T201 428Z" />
<glyph unicode="&amp;" glyph-name="ampersand" horiz-adv-x="662" d="M251 -15Q149 -15 95 36T41 178Q41 228 63 265T122 330T200 381Q157 427 135 466T112 554Q112 607 138 643T207 698T296 717Q352 717 392 696T455 639T477 557Q477 510 455 476T399 414T324
364L457 205Q498 256 537 315Q565 355 599 332Q635 307 607 269Q585 235 562 202T513 140L581 58Q601 34 599 17T574 0H552Q517 0 498 23L453 77Q408 36 358 11T251 -15ZM256 69Q293 69 328 88T399 141L251 320Q204 292 170 259T136 178Q136 120 167 95T256 69ZM272
423Q319 451 352 482T386 556Q386 594 361 616T297 638Q257 638 229 616T200 552Q200 516 219 489T272 423Z" />
<glyph unicode="&apos;" glyph-name="quotesingle" horiz-adv-x="214" d="M107 465Q92 465 81 475T70 501L65 740Q65 758 77 771T107 784Q125 784 137 771T149 740L144 501Q144 486 133 476T107 465Z" />
<glyph unicode="(" glyph-name="parenleft" horiz-adv-x="353" d="M291 -155Q275 -165 259 -162T232 -142Q163 -41 124 76T85 323Q85 451 124 569T232 788Q243 804 259 807T291 800Q305 792 307 776T301 745Q237 649 202 547T167 323Q167 202 202 100T301 -100Q310
-113 308 -129T291 -155Z" />
<glyph unicode=")" glyph-name="parenright" horiz-adv-x="353" d="M63 -155Q48 -146 46 -130T52 -100Q116 -3 151 99T187 323Q187 444 152 546T52 745Q43 759 45 775T63 800Q79 810 95 807T121 788Q190 687 229 569T268 323Q268 194 229 77T121 -142Q111 -158
95 -161T63 -155Z" />
<glyph unicode="*" glyph-name="asterisk" horiz-adv-x="513" d="M200 363Q171 323 142 346Q111 368 139 407L196 485L104 515Q59 529 70 565Q82 600 127 586L220 556V652Q220 700 257 700Q294 700 294 652V556L385 586Q431 600 443 565Q454 529 409 515L317 485L374
406Q402 367 372 346Q342 325 314 362L256 442L200 363Z" />
<glyph unicode="+" glyph-name="plus" horiz-adv-x="883" d="M476 72Q476 24 442 24Q407 24 407 72V321H158Q110 321 110 355Q110 389 158 389L408 390V639Q408 687 442 687Q476 687 476 639V391L726 390Q773 390 773 356Q773 322 726 322L476 321V72Z" />
<glyph unicode="," glyph-name="comma" horiz-adv-x="289" d="M141 -140Q122 -150 108 -148T87 -135Q81 -124 90 -115T119 -92Q145 -76 160 -54T175 -5Q175 11 170 23Q163 9 149 0T119 -9Q94 -9 77 7T59 51Q59 79 79 94T127 111Q171 113 201 80T231 -7Q231 -52
207 -85T141 -140Z" />
<glyph unicode="-" glyph-name="hyphen" horiz-adv-x="461" d="M106 209Q90 209 78 221T65 250Q65 267 77 279T106 292H354Q371 292 383 280T396 250Q396 234 384 222T354 209H106Z" />
<glyph unicode="." glyph-name="period" horiz-adv-x="251" d="M126 -11Q98 -11 79 8T59 55Q59 83 78 102T126 122Q153 122 172 103T192 55Q192 28 173 9T126 -11Z" />
<glyph unicode="/" glyph-name="slash" horiz-adv-x="545" d="M126 -3Q104 -47 77 -33Q51 -17 72 24L419 705Q441 748 468 734Q494 720 474 677L126 -3Z" />
<glyph unicode="0" glyph-name="zero" horiz-adv-x="503" d="M252 -11Q138 -11 94 78T50 350Q50 533 94 622T252 712Q365 712 409 623T453 350Q453 167 409 78T252 -11ZM252 72Q294 72 319 97T356 184T368 350Q368 456 357 517T320 603T252 629Q211 629 185 604T147
517T135 350Q135 245 147 184T185 98T252 72Z" />
<glyph unicode="1" glyph-name="one" horiz-adv-x="398" d="M226 0Q183 0 183 48V591L91 533Q50 506 29 543Q5 580 46 605L176 685Q203 702 234 702Q268 702 268 654V48Q268 0 226 0Z" />
<glyph unicode="2" glyph-name="two" horiz-adv-x="447" d="M80 0Q32 0 32 28Q32 102 74 170T198 315Q232 348 261 380T310 445T330 507Q332 566 303 595T221 624Q184 624 159 603T126 541Q120 519 110 507T79 495Q59 495 48 508T40 546Q53 620 101 663T221 706Q279
706 323 683T392 614T415 505Q414 458 392 418T335 339T257 259Q209 210 170 165T123 79H357Q405 79 405 40Q405 0 357 0H80Z" />
<glyph unicode="3" glyph-name="three" horiz-adv-x="483" d="M218 -11Q159 -11 115 16T44 92Q31 114 38 129T64 152Q84 158 97 151T123 127Q137 103 160 87T216 71Q276 71 310 101T344 197Q344 256 308 292T210 328Q169 328 169 368Q169 407 210 407Q267 407
296 440T326 524Q326 581 293 605T216 629Q187 629 166 613T131 574Q118 557 105 551T71 552Q52 560 47 576T55 612Q84 661 126 686T218 711Q306 711 360 662T415 527Q415 473 387 431T313 369Q366 350 399 303T432 194Q432 103 378 46T218 -11Z" />
<glyph unicode="4" glyph-name="four" horiz-adv-x="494" d="M337 0Q297 0 297 48V163H62Q14 163 14 197Q14 215 18 228T30 257L280 672Q298 704 336 704Q377 704 377 656V240H432Q479 240 479 202Q479 163 442 163H377V48Q377 0 337 0ZM103 240H297V563L103 240Z" />
<glyph unicode="5" glyph-name="five" horiz-adv-x="469" d="M221 -6Q174 -6 131 13T55 66Q38 83 40 100T60 128Q77 139 92 136T124 118Q164 76 221 76Q285 76 318 113T352 219Q352 285 323 321T241 357Q220 357 201 349T169 328Q153 318 141 310T111 301Q67 301
67 348V652Q67 700 115 700H365Q412 700 412 661Q412 621 365 621H153V402Q192 436 242 436Q298 436 342 411T411 338T437 219Q437 110 378 52T221 -6Z" />
<glyph unicode="6" glyph-name="six" horiz-adv-x="495" d="M260 -11Q216 -11 177 5T109 60T64 166T50 337Q54 531 113 621T281 712Q322 712 356 696T419 654Q437 639 436 622T420 593Q404 581 390 584T359 600Q343 615 325 623T282 631Q227 631 195 595T148 493T133
341Q152 374 186 392T261 411Q315 411 358 386T426 316T451 206Q451 143 427 94T360 17T260 -11ZM255 71Q308 71 336 110T364 206Q364 263 335 297T259 332Q207 332 174 295T146 199Q151 137 179 104T255 71Z" />
<glyph unicode="7" glyph-name="seven" horiz-adv-x="414" d="M171 0Q150 0 141 13T135 51Q147 110 165 183T207 335T255 487T303 620H62Q14 620 14 660Q14 700 62 700H352Q399 700 399 670Q399 641 388 612Q366 556 342 483T294 330T253 177T222 43Q215 0 171 0Z" />
<glyph unicode="8" glyph-name="eight" horiz-adv-x="509" d="M255 -11Q195 -11 149 15T76 90T50 200Q50 258 79 302T152 369Q115 392 92 429T68 519Q68 576 92 619T158 687T255 711Q310 711 352 687T418 620T442 519Q442 467 418 430T357 369Q401 347 430 303T459
200Q459 138 433 90T361 16T255 -11ZM255 71Q310 71 342 104T374 201Q374 263 342 298T255 333Q200 333 168 298T135 201Q135 137 167 104T255 71ZM255 403Q303 403 329 433T356 518Q356 571 328 600T255 629Q210 629 182 600T154 518Q154 464 180 434T255 403Z"
/>
<glyph unicode="9" glyph-name="nine" horiz-adv-x="477" d="M195 -11Q155 -11 121 4T59 47Q41 62 42 78T58 107Q74 120 88 117T118 101Q134 86 152 78T195 69Q251 69 283 106T329 209T343 360Q325 327 291 309T216 290Q163 290 120 314T52 385T26 495Q26 558
50 607T117 684T217 712Q261 712 300 696T368 641T413 535T427 364Q423 169 364 79T195 -11ZM218 367Q270 367 303 405T331 502Q326 564 298 596T222 629Q170 629 142 590T113 495Q113 438 142 403T218 367Z" />
<glyph unicode=":" glyph-name="colon" horiz-adv-x="251" d="M126 359Q98 359 79 378T59 426Q59 454 78 473T126 492Q153 492 172 473T192 426Q192 398 173 379T126 359ZM126 -11Q98 -11 79 8T59 55Q59 83 78 102T126 122Q153 122 172 103T192 55Q192 28 173 9T126 -11Z" />
<glyph unicode=";" glyph-name="semicolon" horiz-adv-x="272" d="M141 -140Q122 -150 108 -148T87 -135Q81 -124 90 -115T119 -92Q145 -76 160 -54T175 -5Q175 11 170 23Q163 9 149 0T119 -9Q94 -9 77 7T59 51Q59 79 79 94T127 111Q171 113 201 80T231 -7Q231
-52 207 -85T141 -140ZM126 359Q98 359 79 378T59 426Q59 454 78 473T126 492Q153 492 172 473T192 426Q192 398 173 379T126 359Z" />
<glyph unicode="&lt;" glyph-name="less" horiz-adv-x="622" d="M96 182Q74 191 67 205T59 238Q59 264 68 278T96 299L508 475Q533 486 548 481T563 457Q563 417 526 402L144 240L526 79Q563 64 563 25Q563 5 548 0T508 5L96 182Z" />
<glyph unicode="=" glyph-name="equal" horiz-adv-x="883" d="M723 228Q771 228 771 194Q771 159 723 159H160Q112 159 112 194Q112 228 160 228H723ZM160 428Q112 428 112 463Q112 497 160 497H723Q771 497 771 463Q771 428 723 428H160Z" />
<glyph unicode="&gt;" glyph-name="greater" horiz-adv-x="622" d="M114 5Q89 -5 74 0T59 24Q59 64 96 79L477 240L96 402Q59 417 59 456Q59 475 74 480T114 475L526 299Q563 284 563 241Q563 218 555 204T526 182L114 5Z" />
<glyph unicode="?" glyph-name="question" horiz-adv-x="501" d="M251 194Q215 194 212 239L208 344Q204 385 250 396Q303 409 334 437T365 513Q365 567 334 598T250 629Q179 629 147 572Q132 550 120 544T88 541Q66 546 56 560T55 597Q80 650 131 681T250 712Q311
712 358 689T433 621T460 513Q460 442 415 397T292 333L289 239Q286 194 251 194ZM250 -13Q222 -13 203 6T184 53Q184 82 203 101T250 120Q279 120 298 101T318 53Q318 25 299 6T250 -13Z" />
<glyph unicode="@" glyph-name="at" horiz-adv-x="808" d="M420 -14Q314 -14 228 28T92 148T41 336Q41 416 69 484T149 605T271 686T424 715Q493 715 555 690T664 619T739 513T767 384Q767 328 744 281T673 204T550 175Q481 175 461 214Q422 175 356 175Q315 175
282 193T234 248T229 341Q238 427 290 475T413 523Q474 523 507 479L514 499Q520 519 552 519Q567 519 573 505T574 467L529 277Q524 256 533 247T571 238Q633 238 664 280T696 384Q696 458 660 517T563 612T424 647Q334 647 265 608T155 499T115 336Q115 246 153
183T261 85T420 51Q483 51 533 68T622 118Q657 149 678 129Q689 119 689 106T674 79Q627 36 562 11T420 -14ZM365 242Q400 242 428 259T471 329L489 416Q480 439 460 450T416 462Q378 462 345 431T304 343Q294 294 310 268T365 242Z" />
<glyph unicode="A" glyph-name="A" horiz-adv-x="655" d="M65 0Q43 0 35 13T34 50L274 666Q287 700 324 700H331Q368 700 381 666L621 50Q629 27 621 14T590 0H575Q537 0 525 35L471 179H182L127 35Q115 0 78 0H65ZM213 265H440L328 569L213 265Z" />
<glyph unicode="B" glyph-name="B" horiz-adv-x="634" d="M120 0Q77 0 77 44V656Q77 700 120 700H354Q447 700 499 655T552 523Q552 464 525 424T454 368Q511 355 547 306T584 188Q584 94 529 47T367 0H120ZM168 86H356Q424 86 455 113T486 199Q486 255 449 286T355
317H168V86ZM168 404H344Q397 404 425 433T453 510Q453 614 338 614H168V404Z" />
<glyph unicode="C" glyph-name="C" horiz-adv-x="671" d="M365 -15Q270 -15 197 30T83 157T41 350Q41 461 82 543T197 671T365 717Q438 717 498 690T601 613Q617 596 612 579T590 550L586 548Q575 541 557 542T522 559Q463 626 365 626Q297 626 246 592T165 497T136
350Q136 266 165 205T245 109T365 75Q461 75 522 142Q538 157 554 159T586 153L588 152Q605 143 611 125T602 90Q559 40 499 13T365 -15Z" />
<glyph unicode="D" glyph-name="D" horiz-adv-x="673" d="M124 0Q77 0 77 48V652Q77 700 124 700H292Q402 700 477 657T592 536T632 350Q632 244 593 165T478 43T292 0H124ZM168 86H286Q370 86 425 119T509 212T537 350Q537 429 509 488T426 580T286 614H168V86Z" />
<glyph unicode="E" glyph-name="E" horiz-adv-x="583" d="M124 0Q77 0 77 48V652Q77 700 124 700H482Q530 700 530 657Q530 614 482 614H168V401H451Q498 401 498 357Q498 314 451 314H168V86H494Q542 86 542 43Q542 0 494 0H124Z" />
<glyph unicode="F" glyph-name="F" horiz-adv-x="559" d="M122 0Q77 0 77 48V652Q77 700 124 700H488Q535 700 535 657Q535 614 488 614H168V401H456Q504 401 504 357Q504 314 456 314H168V48Q168 0 122 0Z" />
<glyph unicode="G" glyph-name="G" horiz-adv-x="669" d="M366 -15Q272 -15 199 31T83 159T41 351Q41 461 83 543T198 671T366 717Q427 717 480 699T574 649Q593 636 594 619T581 584Q567 566 551 566T515 578Q453 626 366 626Q296 626 245 592T165 495T136 351Q136
269 164 207T244 110T366 75Q416 75 451 84T516 112V288H434Q386 288 386 331Q386 374 434 374H562Q610 374 610 326V90Q610 71 604 58T583 38Q545 17 491 1T366 -15Z" />
<glyph unicode="H" glyph-name="H" horiz-adv-x="687" d="M120 0Q77 0 77 44V656Q77 700 120 700H125Q168 700 168 656V410H519V656Q519 700 562 700H568Q611 700 611 656V44Q611 0 568 0H562Q519 0 519 44V325H168V44Q168 0 125 0H120Z" />
<glyph unicode="I" glyph-name="I" horiz-adv-x="245" d="M122 0Q77 0 77 48V652Q77 700 122 700Q168 700 168 652V48Q168 0 122 0Z" />
<glyph unicode="J" glyph-name="J" horiz-adv-x="529" d="M242 -15Q142 -15 90 34T27 169Q21 218 72 218Q93 218 103 207T121 173Q137 75 242 75Q306 75 337 110T368 218V652Q368 675 380 687T415 700Q461 700 461 652V218Q461 112 410 49T242 -15Z" />
<glyph unicode="K" glyph-name="K" horiz-adv-x="608" d="M122 0Q77 0 77 48V652Q77 700 122 700Q168 700 168 652V395L433 666Q450 686 464 693T501 700Q532 700 539 680T529 641L262 373L549 56Q564 37 559 17T518 -4Q494 -4 479 5T452 29L168 355V48Q168 0 122 0Z" />
<glyph unicode="L" glyph-name="L" horiz-adv-x="566" d="M124 0Q77 0 77 48V652Q77 700 122 700Q168 700 168 652V86H495Q543 86 543 43Q543 0 495 0H124Z" />
<glyph unicode="M" glyph-name="M" horiz-adv-x="772" d="M123 0Q77 0 77 48V652Q77 679 90 689T131 700Q168 700 187 668L386 353L583 667Q594 687 609 693T648 700Q696 700 696 652V48Q696 0 649 0Q602 0 602 48V541L431 265Q414 233 386 233Q359 233 340 265L169
541V48Q169 0 123 0Z" />
<glyph unicode="N" glyph-name="N" horiz-adv-x="695" d="M122 0Q77 0 77 48V652Q77 700 122 700H132Q168 700 189 669L527 161V652Q527 700 574 700Q619 700 619 652V48Q619 0 575 0H568Q529 0 511 31L168 549V48Q168 0 122 0Z" />
<glyph unicode="O" glyph-name="O" horiz-adv-x="730" d="M365 -15Q270 -15 197 30T83 157T41 350Q41 461 82 543T197 671T365 717Q460 717 532 672T646 544T688 350Q688 239 647 157T533 30T365 -15ZM365 75Q433 75 484 109T564 204T593 350Q593 435 565 496T485
592T365 626Q297 626 246 592T165 497T136 350Q136 266 165 205T245 109T365 75Z" />
<glyph unicode="P" glyph-name="P" horiz-adv-x="630" d="M122 0Q77 0 77 48V653Q77 700 124 700H390Q489 700 543 654T598 508Q598 407 544 360T390 313H168V48Q168 0 122 0ZM168 400H379Q439 400 470 425T502 508Q502 564 471 589T379 614H168V400Z" />
<glyph unicode="Q" glyph-name="Q" horiz-adv-x="730" d="M365 -15Q270 -15 197 30T83 157T41 350Q41 461 82 543T197 671T365 717Q460 717 532 672T646 544T688 350Q688 293 677 243T643 151L716 91Q753 63 725 26Q695 -11 660 16L587 75Q546 32 490 9T365 -15ZM365
75Q454 75 512 133L446 187Q409 218 437 253Q466 290 497 265L565 210Q593 269 593 350Q593 435 565 496T485 592T365 626Q297 626 246 592T165 497T136 350Q136 266 165 205T245 109T365 75Z" />
<glyph unicode="R" glyph-name="R" horiz-adv-x="641" d="M122 0Q77 0 77 48V653Q77 700 124 700H390Q489 700 543 654T598 508Q598 419 555 372T430 317L565 56Q577 31 570 16T540 0H526Q486 0 470 36L334 313H168V48Q168 0 122 0ZM168 400H379Q439 400 470 425T502
508Q502 564 471 589T379 614H168V400Z" />
<glyph unicode="S" glyph-name="S" horiz-adv-x="617" d="M319 -13Q246 -13 184 11T76 89Q62 108 65 124T88 152Q106 163 121 160T153 139Q183 108 225 92T322 75Q392 75 431 103T470 185Q470 217 456 240T400 283T273 319Q80 361 80 516Q80 576 109 621T190 691T311
717Q379 717 433 694T528 632Q543 616 541 599T522 568Q504 554 489 556T456 574Q426 599 391 613T310 628Q252 628 214 601T175 520Q175 492 187 470T234 430T333 399Q457 373 511 321T566 186Q566 122 535 78T448 10T319 -13Z" />
<glyph unicode="T" glyph-name="T" horiz-adv-x="596" d="M299 0Q252 0 252 48V614H80Q32 614 32 657Q32 700 80 700H516Q563 700 563 657Q563 614 516 614H344V48Q344 0 299 0Z" />
<glyph unicode="U" glyph-name="U" horiz-adv-x="656" d="M328 -12Q201 -12 134 58T67 268V652Q67 700 114 700Q160 700 160 652V272Q160 175 203 126T328 77Q409 77 452 126T495 272V652Q495 700 542 700Q588 700 588 652V268Q588 129 521 59T328 -12Z" />
<glyph unicode="V" glyph-name="V" horiz-adv-x="627" d="M314 -2Q295 -2 279 8T254 38L34 645Q14 700 72 700Q113 700 126 661L313 129L501 661Q515 700 557 700Q582 700 591 685T593 645L372 38Q365 19 349 9T314 -2Z" />
<glyph unicode="W" glyph-name="W" horiz-adv-x="838" d="M228 0Q186 0 177 42L36 648Q31 673 40 686T71 700Q119 700 126 658L235 166L369 659Q379 700 419 700Q457 700 469 659L603 166L711 658Q719 700 762 700Q787 700 797 686T803 647L661 42Q652 0 610 0Q567
0 557 41L419 548L280 41Q270 0 228 0Z" />
<glyph unicode="X" glyph-name="X" horiz-adv-x="613" d="M95 0Q60 0 53 18T60 58L257 367L80 642Q60 671 70 685T114 700Q152 700 171 668L307 450L442 668Q461 700 499 700Q566 700 533 642L357 367L554 58Q570 33 562 17T518 0Q480 0 461 32L307 283L152 32Q133
0 95 0Z" />
<glyph unicode="Y" glyph-name="Y" horiz-adv-x="608" d="M305 0Q258 0 258 48V298L57 643Q41 670 50 685T91 700Q112 700 125 692T149 667L305 398L459 667Q479 700 516 700Q548 700 557 684T552 643L351 298V48Q351 0 305 0Z" />
<glyph unicode="Z" glyph-name="Z" horiz-adv-x="562" d="M89 0Q41 0 41 43V54Q41 71 45 84T60 113L402 614H101Q54 614 54 657Q54 700 101 700H467Q515 700 515 657V647Q515 616 496 588L154 86H474Q521 86 521 43Q521 0 474 0H89Z" />
<glyph unicode="[" glyph-name="bracketleft" horiz-adv-x="344" d="M210 -149Q161 -149 134 -140T96 -106T85 -37V683Q85 727 96 751T134 785T210 795H265Q279 795 289 785T299 761Q299 748 289 738T265 727H210Q185 727 175 718T165 683V-37Q165 -63 175 -72T210
-81H265Q279 -81 289 -91T299 -115Q299 -129 289 -139T265 -149H210Z" />
<glyph unicode="\" glyph-name="backslash" horiz-adv-x="545" d="M468 -33Q441 -47 419 -3L72 677Q51 720 77 734Q104 748 126 705L474 24Q494 -18 468 -33Z" />
<glyph unicode="]" glyph-name="bracketright" horiz-adv-x="344" d="M79 -149Q65 -149 55 -139T45 -115Q45 -101 55 -91T79 -81H133Q159 -81 169 -72T179 -37V683Q179 709 169 718T133 727H79Q65 727 55 737T45 761Q45 775 55 785T79 795H133Q182 795 209 786T248
752T259 683V-37Q259 -81 248 -105T210 -139T133 -149H79Z" />
<glyph unicode="^" glyph-name="asciicircum" horiz-adv-x="556" d="M86 282Q67 282 61 297T67 338L223 664Q239 700 278 700Q316 700 332 664L489 338Q500 313 496 298T471 282H466Q426 282 411 319L278 608L145 319Q129 282 90 282H86Z" />
<glyph unicode="_" glyph-name="underscore" horiz-adv-x="700" d="M89 -92Q79 -92 72 -85T65 -68Q65 -58 72 -51T89 -44H611Q621 -44 628 -51T635 -68Q635 -78 628 -85T611 -92H89Z" />
<glyph unicode="`" glyph-name="grave" horiz-adv-x="365" d="M300 547Q285 529 260 546L78 669Q51 689 71 714L87 733Q109 758 132 735L293 586Q315 564 300 547Z" />
<glyph unicode="a" glyph-name="a" horiz-adv-x="535" d="M211 -8Q138 -10 91 25T43 128Q43 177 74 213T155 269T258 290Q289 292 315 285T360 263V323Q360 379 337 396T264 413Q233 413 199 405T134 382Q113 374 98 376T73 395Q63 412 68 427T95 452Q132 470
176 481T264 492Q356 492 401 456T446 323V82Q446 66 448 62T461 54Q473 50 487 48T501 37Q501 4 467 -3Q445 -8 427 -8Q395 -8 381 4T362 47Q335 20 294 7T211 -8ZM212 71Q254 72 288 83T343 116T361 168Q359 196 333 208T265 218Q228 217 197 205T148 172T129
127Q130 99 152 85T212 71Z" />
<glyph unicode="b" glyph-name="b" horiz-adv-x="567" d="M299 -11Q202 -11 150 75V36Q150 17 138 9T107 0Q67 0 67 48V670Q67 717 112 717Q157 717 157 670V419Q182 454 218 473T299 492Q365 492 416 462T496 375T526 240Q526 163 497 107T416 20T299 -11ZM296
71Q357 71 397 116T437 240Q437 320 397 365T296 410Q235 410 196 365T156 240Q156 161 195 116T296 71Z" />
<glyph unicode="c" glyph-name="c" horiz-adv-x="488" d="M269 -11Q203 -11 152 20T71 108T41 240Q41 315 70 372T151 460T269 492Q353 492 413 440Q432 426 431 408T412 378Q395 365 382 367T349 382Q315 410 269 410Q208 410 170 365T131 240Q131 161 169 116T269
71Q314 71 348 97Q366 110 380 113T411 104Q428 91 430 74T414 42Q353 -11 269 -11Z" />
<glyph unicode="d" glyph-name="d" horiz-adv-x="567" d="M269 -11Q203 -11 152 19T71 106T41 240Q41 318 70 374T151 461T269 492Q313 492 349 473T411 419V670Q411 717 455 717Q500 717 500 670V48Q500 0 461 0Q421 0 420 22L418 69Q393 32 355 11T269 -11ZM272
71Q333 71 372 116T412 240Q412 320 373 365T272 410Q211 410 171 365T131 240Q131 161 171 116T272 71Z" />
<glyph unicode="e" glyph-name="e" horiz-adv-x="522" d="M271 -11Q203 -11 151 18T70 103T41 240Q41 317 70 373T149 461T266 492Q332 492 378 461T449 380T474 279Q474 250 462 241T427 231H129Q131 151 169 110T272 68Q348 68 387 129Q403 146 417 151T447
146Q464 135 466 118T453 81Q420 34 375 12T271 -11ZM134 303H386Q378 355 346 387T265 419Q213 419 179 390T134 303Z" />
<glyph unicode="f" glyph-name="f" horiz-adv-x="365" d="M164 0Q119 0 119 48V402H71Q24 402 24 441Q24 480 59 480H119V570Q119 629 138 663T191 711T270 725Q305 725 327 718T350 682Q349 665 340 654T309 644Q302 645 295 645T280 646Q247 646 228 625T208
561V480H302Q350 480 350 441Q350 402 303 402H208V48Q208 0 164 0Z" />
<glyph unicode="g" glyph-name="g" horiz-adv-x="548" d="M260 -207Q148 -207 80 -135Q64 -118 67 -101T88 -73Q105 -61 119 -65T151 -84Q193 -124 260 -124Q325 -124 358 -83T391 46V99Q367 69 333 52T256 35Q194 35 145 62T69 140T41 264Q41 337 68 387T145
465T256 492Q300 492 339 472T402 411V444Q402 464 412 472T441 480Q480 480 480 433V46Q480 -78 424 -142T260 -207ZM262 114Q321 114 359 155T397 264Q397 332 359 372T262 412Q204 412 168 372T131 264Q131 196 167 155T262 114Z" />
<glyph unicode="h" glyph-name="h" horiz-adv-x="530" d="M112 0Q67 0 67 48V670Q67 717 112 717Q157 717 157 670V418Q175 448 210 470T291 492Q367 492 414 444T462 303V48Q462 0 417 0Q373 0 373 48V284Q373 347 345 378T272 410Q221 410 189 377T157 287V48Q157
0 112 0Z" />
<glyph unicode="i" glyph-name="i" horiz-adv-x="254" d="M128 0Q83 0 83 48V433Q83 480 128 480Q172 480 172 433V48Q172 0 128 0ZM127 570Q102 570 85 587T67 630Q67 655 84 672T127 690Q151 690 168 673T186 630Q186 605 169 588T127 570Z" />
<glyph unicode="j" glyph-name="j" horiz-adv-x="247" d="M13 -207Q-3 -207 -23 -204Q-65 -199 -65 -153Q-65 -111 -36 -116Q-28 -117 -20 -117T-3 -118Q42 -118 58 -99T75 -29V433Q75 480 120 480Q164 480 164 433V-29Q164 -126 128 -166T13 -207ZM120 570Q95
570 78 587T60 630Q60 655 77 672T120 690Q144 690 161 673T179 630Q179 605 162 588T120 570Z" />
<glyph unicode="k" glyph-name="k" horiz-adv-x="494" d="M111 0Q67 0 67 44V674Q67 717 111 717H113Q157 717 157 674V282L326 455Q339 471 353 478T381 485Q406 485 417 465T402 416L244 263L429 53Q446 31 435 14T400 -4Q379 -4 367 1T347 19L157 243V44Q157
0 113 0H111Z" />
<glyph unicode="l" glyph-name="l" horiz-adv-x="224" d="M112 0Q67 0 67 48V670Q67 717 112 717Q157 717 157 670V48Q157 0 112 0Z" />
<glyph unicode="m" glyph-name="m" horiz-adv-x="792" d="M112 0Q67 0 67 48V433Q67 480 108 480Q148 480 151 456L153 414Q169 448 203 470T283 492Q335 492 371 468T423 400Q441 440 477 466T566 492Q639 492 682 444T725 304V48Q725 0 680 0Q634 0 634 48V286Q634
349 611 379T546 410Q497 410 469 374T440 282V48Q440 0 396 0Q351 0 351 48V286Q351 349 327 379T262 410Q213 410 185 374T157 283V48Q157 0 112 0Z" />
<glyph unicode="n" glyph-name="n" horiz-adv-x="530" d="M112 0Q67 0 67 48V433Q67 480 108 480Q150 480 151 456L153 418Q174 448 209 470T291 492Q367 492 414 444T462 303V48Q462 0 417 0Q373 0 373 48V284Q373 347 345 378T272 410Q221 410 189 377T157 287V48Q157
0 112 0Z" />
<glyph unicode="o" glyph-name="o" horiz-adv-x="538" d="M269 -11Q203 -11 152 20T71 109T41 241Q41 316 70 372T151 460T269 492Q335 492 386 461T467 373T497 241Q497 166 468 109T387 21T269 -11ZM269 71Q330 71 368 116T407 241Q407 320 369 365T269 410Q208
410 170 365T131 241Q131 162 169 117T269 71Z" />
<glyph unicode="p" glyph-name="p" horiz-adv-x="567" d="M112 -202Q67 -202 67 -154V433Q67 480 107 480Q147 480 148 459L150 412Q176 450 214 471T299 492Q365 492 416 462T496 375T526 241Q526 164 497 107T416 20T299 -11Q254 -11 218 8T157 62V-154Q157
-202 112 -202ZM296 71Q357 71 397 116T437 241Q437 320 397 365T296 410Q235 410 196 365T156 241Q156 162 195 117T296 71Z" />
<glyph unicode="q" glyph-name="q" horiz-adv-x="567" d="M455 -202Q411 -202 411 -154V62Q386 28 350 9T269 -11Q203 -11 152 19T71 107T41 241Q41 318 70 374T151 461T269 492Q365 492 418 411V446Q418 463 429 471T459 480Q478 480 489 468T500 433V-154Q500
-202 455 -202ZM272 71Q333 71 372 116T412 241Q412 320 373 365T272 410Q211 410 171 365T131 241Q131 162 171 117T272 71Z" />
<glyph unicode="r" glyph-name="r" horiz-adv-x="379" d="M112 0Q67 0 67 48V433Q67 480 114 480Q130 480 142 472T154 442V405Q174 444 214 468T302 492Q363 492 363 443Q363 422 352 413T326 404Q319 405 310 405T291 406Q235 406 196 370T157 274V48Q157 0 112 0Z" />
<glyph unicode="s" glyph-name="s" horiz-adv-x="460" d="M236 -10Q134 -10 68 47Q49 61 49 78T62 109Q76 123 91 122T125 108Q170 69 240 69Q284 69 310 85T336 138Q336 168 309 182T213 210Q168 219 133 234T76 277T55 352Q55 396 79 427T142 476T230 493Q317
493 370 447Q390 435 392 419T382 388Q369 372 354 373T319 384Q286 413 231 413Q188 413 167 396T146 354Q146 326 170 313T257 286Q307 275 345 257T405 210T427 135Q427 66 375 28T236 -10Z" />
<glyph unicode="t" glyph-name="t" horiz-adv-x="381" d="M259 -11Q191 -11 156 15T121 117V402H71Q24 402 24 441Q24 461 34 470T71 480H121V605Q121 652 166 652Q210 652 210 605V480H302Q349 480 349 441Q349 402 302 402H210V136Q210 97 227 84T280 70Q282
70 286 70Q313 70 331 66T349 34Q349 4 322 -3T259 -11Z" />
<glyph unicode="u" glyph-name="u" horiz-adv-x="521" d="M229 -11Q153 -11 106 37T59 178V433Q59 480 103 480Q148 480 148 433V196Q148 134 176 103T248 71Q299 71 331 104T364 195V433Q364 480 409 480Q453 480 453 433V48Q453 0 413 0Q373 0 370 25L368 62Q347
32 312 11T229 -11Z" />
<glyph unicode="v" glyph-name="v" horiz-adv-x="493" d="M250 -1Q233 -1 218 8T195 38L44 426Q35 451 42 465T75 480Q117 480 130 442L250 119L368 442Q383 480 422 480Q444 480 451 466T450 426L305 38Q298 18 283 9T250 -1Z" />
<glyph unicode="w" glyph-name="w" horiz-adv-x="685" d="M206 0Q168 0 156 40L39 427Q32 451 39 465T67 480H68Q109 480 121 439L208 132L296 439Q306 480 343 480Q380 480 390 439L477 132L565 439Q575 480 618 480Q638 480 646 466T647 427L529 40Q517 0 479
0Q441 0 431 41L343 350L255 41Q243 0 206 0Z" />
<glyph unicode="x" glyph-name="x" horiz-adv-x="524" d="M76 0Q55 0 52 17T66 58L212 256L90 423Q73 447 76 463T100 480H115Q152 480 173 450L262 325L352 450Q363 467 377 473T410 480Q436 480 442 464T431 423L310 258L458 58Q475 34 473 17T448 0H431Q394
0 374 30L261 189L148 31Q127 0 91 0H76Z" />
<glyph unicode="y" glyph-name="y" horiz-adv-x="492" d="M111 -207Q103 -207 95 -207T78 -205Q56 -203 45 -191T34 -158Q34 -119 65 -122Q83 -125 103 -125Q141 -125 156 -110T186 -57L208 1L40 426Q30 451 37 465T66 480H71Q112 480 125 442L247 110L364 442Q376
480 418 480Q441 480 449 466T449 426L263 -84Q241 -145 208 -176T111 -207Z" />
<glyph unicode="z" glyph-name="z" horiz-adv-x="436" d="M80 0Q32 0 32 38V42Q32 76 53 101L290 405H95Q47 405 47 443Q47 480 95 480H349Q397 480 397 443V438Q397 404 376 379L138 76H356Q404 76 404 38Q404 0 356 0H80Z" />
<glyph unicode="{" glyph-name="braceleft" horiz-adv-x="434" d="M296 -149Q237 -149 205 -113T173 -4V176Q173 220 156 251T97 286Q83 288 74 299T65 323Q65 337 74 347T97 360Q138 365 155 395T173 469V650Q173 723 205 759T296 795H355Q369 795 379 785T389
761Q389 747 379 737T355 727H319Q283 727 268 708T253 645V466Q253 403 230 369T164 323Q207 313 230 278T253 180V1Q253 -42 268 -61T319 -81H355Q369 -81 379 -91T389 -115Q389 -129 379 -139T355 -149H296Z" />
<glyph unicode="|" glyph-name="bar" horiz-adv-x="228" d="M115 -29Q77 -29 77 19V681Q77 729 115 729Q152 729 152 681V19Q152 -29 115 -29Z" />
<glyph unicode="}" glyph-name="braceright" horiz-adv-x="434" d="M79 -149Q65 -149 55 -139T45 -115Q45 -101 55 -91T79 -81H115Q152 -81 166 -62T181 1V180Q181 243 204 278T270 323Q227 334 204 368T181 466V645Q181 688 167 707T115 727H79Q65 727 55 737T45
761Q45 775 55 785T79 795H139Q198 795 229 759T261 650V469Q261 425 278 395T337 360Q351 358 360 348T369 323Q369 310 360 299T337 286Q296 282 279 251T261 176V-4Q261 -77 230 -113T139 -149H79Z" />
<glyph unicode="~" glyph-name="asciitilde" horiz-adv-x="606" d="M133 298Q107 272 80 294Q66 307 64 323T78 356Q99 381 128 398T195 416Q221 416 250 406T309 382T364 359T409 348Q440 348 465 377Q483 391 497 394T526 386Q540 374 542 358T528 325Q506 300
478 283T409 265Q384 265 355 275T297 299T242 322T196 333Q177 333 162 323T133 298Z" />
<glyph unicode="&#xa0;" glyph-name="uni00A0" horiz-adv-x="280" />
<glyph unicode="&#xa1;" glyph-name="exclamdown" horiz-adv-x="287" d="M144 509Q179 509 181 462L190 49Q192 1 143 1Q95 1 97 49L106 462Q109 509 144 509ZM144 716Q172 716 191 697T211 649Q211 621 192 602T144 582Q116 582 97 601T77 649Q77 677 96 696T144 716Z" />
<glyph unicode="&#xa2;" glyph-name="cent" horiz-adv-x="485" d="M267 -67Q238 -67 238 -32V105Q180 113 136 146T66 232T40 354Q40 422 65 475T135 561T238 603V739Q238 775 267 775Q296 775 296 739V604Q370 599 426 553Q446 539 445 521T426 491Q408 479 395
479T368 490Q336 517 296 520V187Q333 188 361 212Q379 223 393 226T425 217Q442 204 444 186T426 153Q370 108 296 103V-32Q296 -67 267 -67ZM238 188V519Q190 506 160 464T130 354Q130 287 160 244T238 188Z" />
<glyph unicode="&#xa3;" glyph-name="sterling" horiz-adv-x="594" d="M132 4Q108 -3 93 2T65 26Q53 45 56 60T76 92Q118 130 137 173T157 263Q157 276 156 287T152 308H88Q40 308 40 347Q40 387 70 387H130Q120 413 113 442T105 513Q105 608 164 661T324 715Q396
715 449 682T526 587Q536 565 526 550T492 531Q467 527 456 533T429 562Q418 589 393 608T324 628Q269 628 236 600T203 513Q203 476 212 446T231 387H348Q395 387 395 347Q395 308 349 308H250Q252 298 253 287T255 263Q255 174 177 93Q197 98 214 100T247 102Q278
102 304 96T361 84T431 78Q448 78 461 80T484 86Q509 92 523 88T547 64Q557 45 552 27T524 2Q484 -13 431 -13Q386 -13 354 -5T293 12T225 21Q204 21 181 18T132 4Z" />
<glyph unicode="&#xa4;" glyph-name="currency" horiz-adv-x="602" d="M310 105Q225 105 166 148L90 56Q59 18 38 36Q16 53 47 90L127 187Q77 251 77 352Q77 453 127 517L47 614Q16 651 38 668Q59 686 90 648L166 556Q225 599 310 599Q394 599 451 557L527 648Q558
686 579 668Q601 651 570 614L491 519Q542 454 542 352Q542 250 491 185L570 90Q601 53 579 36Q558 18 527 56L451 147Q394 105 310 105ZM310 195Q378 195 415 236T452 352Q452 426 415 467T310 509Q242 509 205 468T167 352Q167 277 204 236T310 195Z" />
<glyph unicode="&#xa5;" glyph-name="yen" horiz-adv-x="594" d="M298 0Q252 0 252 48V177H114Q67 177 67 215Q67 251 114 251H252V300L236 328H114Q67 328 67 365Q67 402 105 402H192L50 643Q36 667 42 683T71 700H86Q124 700 143 667L298 398L453 667Q464 685
478 692T514 700Q541 700 550 684T545 643L404 402H481Q528 402 528 365Q528 328 481 328H360L344 300V251H481Q528 251 528 215Q528 177 481 177H344V48Q344 0 298 0Z" />
<glyph unicode="&#xa6;" glyph-name="brokenbar" horiz-adv-x="228" d="M115 -29Q77 -29 77 19V232Q77 279 115 279Q152 279 152 232V19Q152 -29 115 -29ZM115 421Q77 421 77 468V681Q77 729 115 729Q152 729 152 681V468Q152 421 115 421Z" />
<glyph unicode="&#xa7;" glyph-name="section" horiz-adv-x="883" d="M440 -25Q329 -25 275 50Q259 70 264 86T289 110Q307 117 318 113T349 91Q380 50 437 50Q472 50 501 65T530 116Q530 144 499 167T390 221Q311 253 277 283T242 365Q242 403 266 435T335 487Q304
508 286 534T267 595Q267 642 291 673T357 720T445 736Q491 736 531 719T599 670Q615 654 612 637T587 609Q568 601 556 606T529 625Q515 642 494 652T448 662Q407 662 381 645T355 595Q355 566 390 543T495 493Q573 462 606 432T640 348Q640 307 614 276T550 227Q582
205 600 178T619 116Q619 71 595 40T531 -8T440 -25ZM500 258Q537 273 549 294T561 334Q561 352 551 367T514 398T434 435Q421 440 409 445T385 456Q346 440 334 419T322 379Q322 362 332 347T371 316T451 279Q464 274 476 269T500 258Z" />
<glyph unicode="&#xa8;" glyph-name="dieresis" horiz-adv-x="402" d="M106 571Q83 571 67 588T50 627Q50 650 66 666T106 683Q129 683 145 667T162 627Q162 605 146 588T106 571ZM296 571Q274 571 258 588T241 627Q241 650 257 666T296 683Q319 683 335 667T352
627Q352 605 336 588T296 571Z" />
<glyph unicode="&#xa9;" glyph-name="copyright" horiz-adv-x="840" d="M420 -10Q345 -10 280 18T166 95T88 210T60 350Q60 425 88 490T165 604T280 682T420 710Q495 710 560 682T674 605T752 490T780 350Q780 275 752 210T675 96T560 18T420 -10ZM420 52Q482
52 536 75T631 139T695 234T718 350Q718 412 695 466T631 561T536 625T420 648Q358 648 304 625T209 561T145 466T122 350Q122 288 145 234T209 139T304 75T420 52ZM420 118Q360 118 314 147T241 228T214 350Q214 421 240 473T313 554T420 583Q503 583 557 529Q575
513 575 498T563 474Q549 466 537 471T506 489Q471 522 420 522Q356 522 317 475T278 350Q278 273 317 226T420 179Q472 179 506 212Q524 224 537 229T563 226Q576 219 576 204T557 172Q503 118 420 118Z" />
<glyph unicode="&#xaa;" glyph-name="ordfeminine" horiz-adv-x="535" d="M211 285Q138 283 91 318T43 421Q43 470 74 506T155 562T258 583Q289 585 315 578T360 556V616Q360 672 337 689T264 706Q233 706 199 698T134 675Q113 667 98 669T73 688Q63 705 68 720T95
745Q132 763 176 774T264 785Q356 785 401 749T446 616V375Q446 359 448 355T461 347Q473 343 487 341T501 330Q501 297 467 290Q445 285 427 285Q395 285 381 297T362 340Q335 313 294 300T211 285ZM212 364Q254 365 288 376T343 409T361 461Q359 489 333 501T265
511Q228 510 197 498T148 465T129 420Q130 392 152 378T212 364ZM148 385Q132 385 120 397T107 426Q107 443 119 455T148 468H396Q413 468 425 456T438 426Q438 410 426 398T396 385H148Z" />
<glyph unicode="&#xab;" glyph-name="guillemotleft" horiz-adv-x="583" d="M72 251Q45 284 72 317L184 447Q208 475 243 475Q268 475 272 458T257 416L143 284L257 152Q277 128 277 111T256 93H243Q208 93 184 121L72 251ZM280 251Q253 284 280 317L392 447Q416
475 451 475Q476 475 480 458T465 416L351 284L465 152Q485 128 485 111T464 93H451Q416 93 392 121L280 251Z" />
<glyph unicode="&#xac;" glyph-name="logicalnot" horiz-adv-x="883" d="M726 187Q691 187 691 234V423H146Q98 423 98 458Q98 493 146 493H713Q761 493 761 446V234Q761 187 726 187Z" />
<glyph unicode="&#xad;" glyph-name="uni00AD" horiz-adv-x="461" d="M106 209Q90 209 78 221T65 250Q65 267 77 279T106 292H354Q371 292 383 280T396 250Q396 234 384 222T354 209H106Z" />
<glyph unicode="&#xae;" glyph-name="registered" horiz-adv-x="748" d="M378 90Q314 90 258 114T159 181T92 280T68 400Q68 464 92 520T159 619T258 686T378 710Q442 710 498 686T597 619T664 520T688 400Q688 336 664 280T597 181T498 114T378 90ZM378 149Q447
149 504 183T595 274T629 400Q629 470 595 526T504 617T378 651Q309 651 252 617T161 527T127 400Q127 331 161 274T252 183T378 149ZM278 225Q253 225 253 251V575H414Q463 575 492 552T521 473Q521 427 501 403T445 373L502 256Q508 242 504 234T485 225H466Q444
225 437 245L381 370H315V251Q315 235 306 230T278 225ZM315 428H405Q427 428 441 437T456 473Q456 498 442 507T405 517H315V428Z" />
<glyph unicode="&#xaf;" glyph-name="overscore" horiz-adv-x="298" d="M266 655Q266 625 234 625H64Q32 625 32 655Q32 687 64 687H234Q266 687 266 655Z" />
<glyph unicode="&#xb0;" glyph-name="degree" horiz-adv-x="636" d="M147 553Q101 553 70 584T38 661Q38 706 69 737T147 769Q191 769 222 738T254 661Q254 616 223 585T147 553ZM147 595Q174 595 193 614T212 661Q212 689 193 707T146 726Q119 726 100 707T81
661Q81 634 100 615T147 595Z" />
<glyph unicode="&#xb1;" glyph-name="plusminus" horiz-adv-x="883" d="M442 153Q407 153 407 201V390H160Q112 390 112 425Q112 460 160 460H407V649Q407 696 442 696Q476 696 476 649V460H723Q771 460 771 425Q771 390 723 390H476V201Q476 153 442 153ZM160
28Q112 28 112 63Q112 97 160 97H723Q771 97 771 63Q771 28 723 28H160Z" />
<glyph unicode="&#xb2;" glyph-name="uni00B2" horiz-adv-x="323" d="M68 200Q21 200 21 223Q21 273 47 320T139 430Q173 462 200 495T228 555Q230 594 212 612T160 630Q116 630 105 588Q94 569 86 558T60 546Q43 546 33 559T30 597Q41 646 76 673T160 701Q225
701 264 663T302 551Q301 502 268 463T190 381Q160 352 133 321T100 268H247Q294 268 294 234Q294 200 247 200H68Z" />
<glyph unicode="&#xb3;" glyph-name="uni00B3" horiz-adv-x="374" d="M166 193Q88 193 48 253Q32 272 37 288T58 310Q75 315 86 311T107 297Q115 283 129 274T164 264Q202 264 224 282T246 342Q246 380 224 403T160 426Q125 426 125 461Q125 495 160 495Q197 495
215 516T233 568Q233 605 212 619T164 633Q150 633 140 626T123 608Q118 606 114 604T107 599Q96 592 87 589T64 590Q48 596 45 612T58 648Q99 705 166 705Q231 705 271 668T311 571Q311 534 291 505T240 462Q277 449 300 417T323 340Q323 273 282 233T166 193Z"
/>
<glyph unicode="&#xb4;" glyph-name="acute" horiz-adv-x="385" d="M150 546Q125 529 110 547Q96 565 117 586L278 735Q302 759 323 733L339 714Q360 688 332 669L150 546Z" />
<glyph unicode="&#xb5;" glyph-name="uni00B5" horiz-adv-x="520" d="M104 -186Q59 -186 59 -139L63 449Q63 497 110 497Q155 497 155 449L152 164Q153 120 180 95T254 70Q310 70 335 98T361 181V449Q361 497 407 497Q452 497 452 449L450 48Q450 0 414 0Q378
0 376 17L373 43Q356 19 330 4T265 -11Q231 -11 201 0T151 34L150 -139Q150 -186 104 -186Z" />
<glyph unicode="&#xb6;" glyph-name="paragraph" horiz-adv-x="883" d="M421 -43Q396 -43 396 -17V381Q333 383 287 407T215 472T189 567Q189 650 246 702T400 755H650Q676 755 676 734Q676 712 650 712H609V-17Q609 -43 585 -43Q561 -43 561 -17V712H445V-17Q445
-43 421 -43Z" />
<glyph unicode="&#xb7;" glyph-name="middot" horiz-adv-x="251" d="M126 359Q98 359 79 378T59 426Q59 454 78 473T126 492Q153 492 172 473T192 426Q192 398 173 379T126 359Z" />
<glyph unicode="&#xb8;" glyph-name="cedilla" horiz-adv-x="406" d="M138 -183Q105 -183 105 -159Q105 -135 139 -134Q187 -132 207 -126T228 -107Q228 -83 169 -77Q131 -74 140 -44L145 -27Q153 0 179 0Q204 0 199 -18L192 -36Q237 -41 266 -59T295 -107Q295
-147 255 -164T138 -183Z" />
<glyph unicode="&#xb9;" glyph-name="uni00B9" horiz-adv-x="298" d="M173 200Q135 200 135 248V602L87 571Q48 545 27 577Q8 609 48 634L126 681Q153 698 181 698Q209 698 209 650V248Q209 200 173 200Z" />
<glyph unicode="&#xba;" glyph-name="ordmasculine" horiz-adv-x="538" d="M269 282Q203 282 152 313T71 402T41 534Q41 609 70 665T151 753T269 785Q335 785 386 754T467 666T497 534Q497 459 468 402T387 314T269 282ZM269 364Q330 364 368 409T407 534Q407
613 369 658T269 703Q208 703 170 658T131 534Q131 455 169 410T269 364ZM145 385Q129 385 117 397T104 426Q104 443 116 455T145 468H393Q410 468 422 456T435 426Q435 410 423 398T393 385H145Z" />
<glyph unicode="&#xbb;" glyph-name="guillemotright" horiz-adv-x="584" d="M303 317Q332 284 303 251L191 121Q167 93 133 93Q108 93 104 110T118 152L232 284L118 416Q99 440 100 457T120 475H133Q167 475 191 447L303 317ZM511 317Q540 284 511 251L399 121Q375
93 341 93Q316 93 312 110T326 152L440 284L326 416Q307 440 308 457T328 475H341Q375 475 399 447L511 317Z" />
<glyph unicode="&#xbc;" glyph-name="onequarter" horiz-adv-x="841" d="M173 200Q135 200 135 248V602L87 571Q48 545 27 577Q8 609 48 634L126 681Q153 698 181 698Q209 698 209 650V248Q209 200 173 200ZM222 19Q195 -19 172 -4Q150 12 178 51L631 683Q645
702 658 708T682 706Q704 690 677 652L222 19ZM720 0Q685 0 685 37V109H534Q487 109 487 139Q487 167 503 194L667 467Q685 499 721 499Q755 499 755 452V175H792Q826 175 826 142Q826 109 798 109H755V39Q755 17 746 9T720 0ZM561 175H685V381L561 175Z" />
<glyph unicode="&#xbd;" glyph-name="onehalf" horiz-adv-x="873" d="M173 200Q135 200 135 248V602L87 571Q48 545 27 577Q8 609 48 634L126 681Q153 698 181 698Q209 698 209 650V248Q209 200 173 200ZM201 19Q174 -19 151 -4Q129 12 157 51L610 683Q624 702
637 708T661 706Q683 690 656 652L201 19ZM607 0Q560 0 560 23Q560 73 586 120T678 230Q712 262 739 295T767 355Q769 394 751 412T699 430Q655 430 644 388Q633 369 625 358T599 346Q582 346 572 359T569 397Q580 446 615 473T699 501Q764 501 803 463T841 351Q840
302 807 263T729 181Q699 152 672 121T639 68H786Q833 68 833 34Q833 0 786 0H607Z" />
<glyph unicode="&#xbe;" glyph-name="threequarters" horiz-adv-x="870" d="M166 193Q88 193 48 253Q32 272 37 288T58 310Q75 315 86 311T107 297Q115 283 129 274T164 264Q202 264 224 282T246 342Q246 380 224 403T160 426Q125 426 125 461Q125 495 160 495Q197
495 215 516T233 568Q233 605 212 619T164 633Q150 633 140 626T123 608Q118 606 114 604T107 599Q96 592 87 589T64 590Q48 596 45 612T58 648Q99 705 166 705Q231 705 271 668T311 571Q311 534 291 505T240 462Q277 449 300 417T323 340Q323 273 282 233T166
193ZM280 19Q253 -19 230 -4Q208 12 236 51L689 683Q703 702 716 708T740 706Q762 690 735 652L280 19ZM749 0Q714 0 714 37V109H563Q516 109 516 139Q516 167 532 194L696 467Q714 499 750 499Q784 499 784 452V175H821Q855 175 855 142Q855 109 827 109H784V39Q784
17 775 9T749 0ZM590 175H714V381L590 175Z" />
<glyph unicode="&#xbf;" glyph-name="questiondown" horiz-adv-x="501" d="M251 505Q286 505 290 460L294 355Q297 314 252 303Q199 290 168 262T137 186Q137 132 168 101T251 70Q322 70 354 127Q367 145 379 154T411 159Q438 154 447 138T446 102Q421 49 370
18T251 -13Q190 -13 143 10T68 79T41 186Q41 257 86 302T209 366L212 460Q215 505 251 505ZM251 712Q279 712 298 693T318 646Q318 618 299 599T251 579Q223 579 203 598T183 646Q183 674 203 693T251 712Z" />
<glyph unicode="&#xc0;" glyph-name="Agrave" horiz-adv-x="655" d="M65 0Q43 0 35 13T34 50L274 666Q287 700 324 700H331Q368 700 381 666L621 50Q629 27 621 14T590 0H575Q537 0 525 35L471 179H182L127 35Q115 0 78 0H65ZM213 265H440L328 569L213 265ZM415
767Q400 749 375 766L193 889Q166 909 186 934L202 953Q224 978 247 955L408 806Q430 784 415 767Z" />
<glyph unicode="&#xc1;" glyph-name="Aacute" horiz-adv-x="655" d="M65 0Q43 0 35 13T34 50L274 666Q287 700 324 700H331Q368 700 381 666L621 50Q629 27 621 14T590 0H575Q537 0 525 35L471 179H182L127 35Q115 0 78 0H65ZM213 265H440L328 569L213 265ZM281
766Q256 749 241 767Q227 785 248 806L409 955Q433 979 454 953L470 934Q491 908 463 889L281 766Z" />
<glyph unicode="&#xc2;" glyph-name="Acircumflex" horiz-adv-x="655" d="M65 0Q43 0 35 13T34 50L274 666Q287 700 324 700H331Q368 700 381 666L621 50Q629 27 621 14T590 0H575Q537 0 525 35L471 179H182L127 35Q115 0 78 0H65ZM213 265H440L328 569L213 265ZM281
922Q298 939 321 939H335Q359 939 375 922L469 814Q489 792 474 774Q458 758 434 776L328 858L221 776Q198 757 181 774Q167 792 186 814L281 922Z" />
<glyph unicode="&#xc3;" glyph-name="Atilde" horiz-adv-x="655" d="M65 0Q43 0 35 13T34 50L274 666Q287 700 324 700H331Q368 700 381 666L621 50Q629 27 621 14T590 0H575Q537 0 525 35L471 179H182L127 35Q115 0 78 0H65ZM213 265H440L328 569L213 265ZM220
826Q210 812 201 812T180 824Q158 844 174 867Q190 893 211 910T258 928Q283 928 307 913T355 883T396 867Q415 867 431 895Q445 911 455 911T475 901Q496 880 481 858Q465 830 443 814T396 797Q372 797 348 812T301 843T259 858Q247 858 238 849T220 826Z" />
<glyph unicode="&#xc4;" glyph-name="Adieresis" horiz-adv-x="655" d="M65 0Q43 0 35 13T34 50L274 666Q287 700 324 700H331Q368 700 381 666L621 50Q629 27 621 14T590 0H575Q537 0 525 35L471 179H182L127 35Q115 0 78 0H65ZM213 265H440L328 569L213 265ZM233
767Q210 767 194 784T177 823Q177 846 193 862T233 879Q256 879 272 863T289 823Q289 801 273 784T233 767ZM423 767Q401 767 385 784T368 823Q368 846 384 862T423 879Q446 879 462 863T479 823Q479 801 463 784T423 767Z" />
<glyph unicode="&#xc5;" glyph-name="Aring" horiz-adv-x="655" d="M65 0Q43 0 35 13T34 50L274 666Q287 700 324 700H331Q368 700 381 666L621 50Q629 27 621 14T590 0H575Q537 0 525 35L471 179H182L127 35Q115 0 78 0H65ZM213 265H440L328 569L213 265ZM328
740Q284 740 253 771T222 846Q222 890 253 921T328 952Q372 952 403 921T434 846Q434 803 403 772T328 740ZM328 789Q351 789 368 806T386 846Q386 869 369 886T328 903Q304 903 288 886T271 846Q271 823 287 806T328 789Z" />
<glyph unicode="&#xc6;" glyph-name="AE" horiz-adv-x="900" d="M64 0Q41 0 33 13T37 49L386 671Q402 700 435 700H806Q847 700 847 659V656Q847 614 806 614H531V401H774Q815 401 815 359V355Q815 314 774 314H531V86H818Q859 86 859 45V41Q859 0 818 0H481Q440
0 440 41V179H215L133 29Q119 0 84 0H64ZM262 265H440V592L262 265Z" />
<glyph unicode="&#xc7;" glyph-name="Ccedilla" horiz-adv-x="671" d="M365 -15Q270 -15 197 30T83 157T41 350Q41 461 82 543T197 671T365 717Q438 717 498 690T601 613Q617 596 612 579T590 550L586 548Q575 541 557 542T522 559Q463 626 365 626Q297 626 246
592T165 497T136 350Q136 266 165 205T245 109T365 75Q461 75 522 142Q538 157 554 159T586 153L588 152Q605 143 611 125T602 90Q559 40 499 13T365 -15ZM311 -183Q278 -183 278 -159Q278 -135 312 -134Q360 -132 380 -126T401 -107Q401 -83 342 -77Q304 -74 313
-44L318 -27Q326 0 352 0Q377 0 372 -18L365 -36Q410 -41 439 -59T468 -107Q468 -147 428 -164T311 -183Z" />
<glyph unicode="&#xc8;" glyph-name="Egrave" horiz-adv-x="583" d="M124 0Q77 0 77 48V652Q77 700 124 700H482Q530 700 530 657Q530 614 482 614H168V401H451Q498 401 498 357Q498 314 451 314H168V86H494Q542 86 542 43Q542 0 494 0H124ZM379 767Q364 749 339
766L157 889Q130 909 150 934L166 953Q188 978 211 955L372 806Q394 784 379 767Z" />
<glyph unicode="&#xc9;" glyph-name="Eacute" horiz-adv-x="583" d="M124 0Q77 0 77 48V652Q77 700 124 700H482Q530 700 530 657Q530 614 482 614H168V401H451Q498 401 498 357Q498 314 451 314H168V86H494Q542 86 542 43Q542 0 494 0H124ZM245 766Q220 749 205
767Q191 785 212 806L373 955Q397 979 418 953L434 934Q455 908 427 889L245 766Z" />
<glyph unicode="&#xca;" glyph-name="Ecircumflex" horiz-adv-x="583" d="M124 0Q77 0 77 48V652Q77 700 124 700H482Q530 700 530 657Q530 614 482 614H168V401H451Q498 401 498 357Q498 314 451 314H168V86H494Q542 86 542 43Q542 0 494 0H124ZM245 922Q262
939 285 939H299Q323 939 339 922L433 814Q453 792 438 774Q422 758 398 776L292 858L185 776Q162 757 145 774Q131 792 150 814L245 922Z" />
<glyph unicode="&#xcb;" glyph-name="Edieresis" horiz-adv-x="583" d="M124 0Q77 0 77 48V652Q77 700 124 700H482Q530 700 530 657Q530 614 482 614H168V401H451Q498 401 498 357Q498 314 451 314H168V86H494Q542 86 542 43Q542 0 494 0H124ZM197 767Q174 767
158 784T141 823Q141 846 157 862T197 879Q220 879 236 863T253 823Q253 801 237 784T197 767ZM387 767Q365 767 349 784T332 823Q332 846 348 862T387 879Q410 879 426 863T443 823Q443 801 427 784T387 767Z" />
<glyph unicode="&#xcc;" glyph-name="Igrave" horiz-adv-x="245" d="M122 0Q77 0 77 48V652Q77 700 122 700Q168 700 168 652V48Q168 0 122 0ZM209 767Q194 749 169 766L-13 889Q-40 909 -20 934L-4 953Q18 978 41 955L202 806Q224 784 209 767Z" />
<glyph unicode="&#xcd;" glyph-name="Iacute" horiz-adv-x="245" d="M122 0Q77 0 77 48V652Q77 700 122 700Q168 700 168 652V48Q168 0 122 0ZM75 766Q50 749 35 767Q21 785 42 806L203 955Q227 979 248 953L264 934Q285 908 257 889L75 766Z" />
<glyph unicode="&#xce;" glyph-name="Icircumflex" horiz-adv-x="245" d="M122 0Q77 0 77 48V652Q77 700 122 700Q168 700 168 652V48Q168 0 122 0ZM75 922Q92 939 115 939H129Q153 939 169 922L263 814Q283 792 268 774Q252 758 228 776L122 858L15 776Q-8 757
-25 774Q-39 792 -20 814L75 922Z" />
<glyph unicode="&#xcf;" glyph-name="Idieresis" horiz-adv-x="245" d="M122 0Q77 0 77 48V652Q77 700 122 700Q168 700 168 652V48Q168 0 122 0ZM27 767Q4 767 -12 784T-29 823Q-29 846 -13 862T27 879Q50 879 66 863T83 823Q83 801 67 784T27 767ZM217 767Q195
767 179 784T162 823Q162 846 178 862T217 879Q240 879 256 863T273 823Q273 801 257 784T217 767Z" />
<glyph unicode="&#xd0;" glyph-name="Eth" horiz-adv-x="673" d="M124 0Q77 0 77 48V307H52Q5 307 5 350Q5 393 52 393H77V652Q77 700 124 700H292Q402 700 477 657T592 536T632 350Q632 244 593 165T478 43T292 0H124ZM168 86H286Q370 86 425 119T509 212T537
350Q537 429 509 488T426 580T286 614H168V393H263Q311 393 311 350Q311 307 263 307H168V86Z" />
<glyph unicode="&#xd1;" glyph-name="Ntilde" horiz-adv-x="695" d="M122 0Q77 0 77 48V652Q77 700 122 700H132Q168 700 189 669L527 161V652Q527 700 574 700Q619 700 619 652V48Q619 0 575 0H568Q529 0 511 31L168 549V48Q168 0 122 0ZM240 826Q230 812 221
812T200 824Q178 844 194 867Q210 893 231 910T278 928Q303 928 327 913T375 883T416 867Q435 867 451 895Q465 911 475 911T495 901Q516 880 501 858Q485 830 463 814T416 797Q392 797 368 812T321 843T279 858Q267 858 258 849T240 826Z" />
<glyph unicode="&#xd2;" glyph-name="Ograve" horiz-adv-x="730" d="M365 -15Q270 -15 197 30T83 157T41 350Q41 461 82 543T197 671T365 717Q460 717 532 672T646 544T688 350Q688 239 647 157T533 30T365 -15ZM365 75Q433 75 484 109T564 204T593 350Q593 435
565 496T485 592T365 626Q297 626 246 592T165 497T136 350Q136 266 165 205T245 109T365 75ZM452 767Q437 749 412 766L230 889Q203 909 223 934L239 953Q261 978 284 955L445 806Q467 784 452 767Z" />
<glyph unicode="&#xd3;" glyph-name="Oacute" horiz-adv-x="730" d="M365 -15Q270 -15 197 30T83 157T41 350Q41 461 82 543T197 671T365 717Q460 717 532 672T646 544T688 350Q688 239 647 157T533 30T365 -15ZM365 75Q433 75 484 109T564 204T593 350Q593 435
565 496T485 592T365 626Q297 626 246 592T165 497T136 350Q136 266 165 205T245 109T365 75ZM318 766Q293 749 278 767Q264 785 285 806L446 955Q470 979 491 953L507 934Q528 908 500 889L318 766Z" />
<glyph unicode="&#xd4;" glyph-name="Ocircumflex" horiz-adv-x="730" d="M365 -15Q270 -15 197 30T83 157T41 350Q41 461 82 543T197 671T365 717Q460 717 532 672T646 544T688 350Q688 239 647 157T533 30T365 -15ZM365 75Q433 75 484 109T564 204T593 350Q593
435 565 496T485 592T365 626Q297 626 246 592T165 497T136 350Q136 266 165 205T245 109T365 75ZM318 922Q335 939 358 939H372Q396 939 412 922L506 814Q526 792 511 774Q495 758 471 776L365 858L258 776Q235 757 218 774Q204 792 223 814L318 922Z" />
<glyph unicode="&#xd5;" glyph-name="Otilde" horiz-adv-x="730" d="M365 -15Q270 -15 197 30T83 157T41 350Q41 461 82 543T197 671T365 717Q460 717 532 672T646 544T688 350Q688 239 647 157T533 30T365 -15ZM365 75Q433 75 484 109T564 204T593 350Q593 435
565 496T485 592T365 626Q297 626 246 592T165 497T136 350Q136 266 165 205T245 109T365 75ZM257 826Q247 812 238 812T217 824Q195 844 211 867Q227 893 248 910T295 928Q320 928 344 913T392 883T433 867Q452 867 468 895Q482 911 492 911T512 901Q533 880 518
858Q502 830 480 814T433 797Q409 797 385 812T338 843T296 858Q284 858 275 849T257 826Z" />
<glyph unicode="&#xd6;" glyph-name="Odieresis" horiz-adv-x="730" d="M365 -15Q270 -15 197 30T83 157T41 350Q41 461 82 543T197 671T365 717Q460 717 532 672T646 544T688 350Q688 239 647 157T533 30T365 -15ZM365 75Q433 75 484 109T564 204T593 350Q593
435 565 496T485 592T365 626Q297 626 246 592T165 497T136 350Q136 266 165 205T245 109T365 75ZM270 767Q247 767 231 784T214 823Q214 846 230 862T270 879Q293 879 309 863T326 823Q326 801 310 784T270 767ZM460 767Q438 767 422 784T405 823Q405 846 421
862T460 879Q483 879 499 863T516 823Q516 801 500 784T460 767Z" />
<glyph unicode="&#xd7;" glyph-name="multiply" horiz-adv-x="883" d="M224 90Q192 56 166 80Q142 106 176 138L393 356L176 573Q142 607 166 631Q191 656 224 621L442 404L660 622Q694 655 718 631Q742 607 708 573L491 356L707 138Q742 105 717 80Q693 57 659
90L442 307L224 90Z" />
<glyph unicode="&#xd8;" glyph-name="Oslash" horiz-adv-x="730" d="M365 -15Q291 -15 228 14L219 -4Q197 -48 170 -34Q143 -18 164 23L175 45Q113 92 77 170T41 350Q41 461 82 543T197 671T365 717Q440 717 503 687L512 704Q534 747 561 733Q587 719 566 676L556
655Q617 609 652 531T688 350Q688 239 647 157T533 30T365 -15ZM219 130L461 605Q418 626 365 626Q297 626 246 592T165 497T136 350Q136 278 158 222T219 130ZM365 75Q433 75 484 109T564 204T593 350Q593 422 572 478T512 570L270 95Q313 75 365 75Z" />
<glyph unicode="&#xd9;" glyph-name="Ugrave" horiz-adv-x="656" d="M328 -12Q201 -12 134 58T67 268V652Q67 700 114 700Q160 700 160 652V272Q160 175 203 126T328 77Q409 77 452 126T495 272V652Q495 700 542 700Q588 700 588 652V268Q588 129 521 59T328 -12ZM415
767Q400 749 375 766L193 889Q166 909 186 934L202 953Q224 978 247 955L408 806Q430 784 415 767Z" />
<glyph unicode="&#xda;" glyph-name="Uacute" horiz-adv-x="656" d="M328 -12Q201 -12 134 58T67 268V652Q67 700 114 700Q160 700 160 652V272Q160 175 203 126T328 77Q409 77 452 126T495 272V652Q495 700 542 700Q588 700 588 652V268Q588 129 521 59T328 -12ZM281
766Q256 749 241 767Q227 785 248 806L409 955Q433 979 454 953L470 934Q491 908 463 889L281 766Z" />
<glyph unicode="&#xdb;" glyph-name="Ucircumflex" horiz-adv-x="656" d="M328 -12Q201 -12 134 58T67 268V652Q67 700 114 700Q160 700 160 652V272Q160 175 203 126T328 77Q409 77 452 126T495 272V652Q495 700 542 700Q588 700 588 652V268Q588 129 521 59T328
-12ZM281 922Q298 939 321 939H335Q359 939 375 922L469 814Q489 792 474 774Q458 758 434 776L328 858L221 776Q198 757 181 774Q167 792 186 814L281 922Z" />
<glyph unicode="&#xdc;" glyph-name="Udieresis" horiz-adv-x="656" d="M328 -12Q201 -12 134 58T67 268V652Q67 700 114 700Q160 700 160 652V272Q160 175 203 126T328 77Q409 77 452 126T495 272V652Q495 700 542 700Q588 700 588 652V268Q588 129 521 59T328
-12ZM233 767Q210 767 194 784T177 823Q177 846 193 862T233 879Q256 879 272 863T289 823Q289 801 273 784T233 767ZM423 767Q401 767 385 784T368 823Q368 846 384 862T423 879Q446 879 462 863T479 823Q479 801 463 784T423 767Z" />
<glyph unicode="&#xdd;" glyph-name="Yacute" horiz-adv-x="608" d="M305 0Q258 0 258 48V298L57 643Q41 670 50 685T91 700Q112 700 125 692T149 667L305 398L459 667Q479 700 516 700Q548 700 557 684T552 643L351 298V48Q351 0 305 0ZM258 766Q233 749 218
767Q204 785 225 806L386 955Q410 979 431 953L447 934Q468 908 440 889L258 766Z" />
<glyph unicode="&#xde;" glyph-name="Thorn" horiz-adv-x="630" d="M122 0Q77 0 77 48V652Q77 700 122 700Q168 700 168 652V544H390Q489 544 543 498T598 351Q598 250 544 204T390 157H168V48Q168 0 122 0ZM168 243H379Q439 243 470 268T502 351Q502 407 471
432T379 458H168V243Z" />
<glyph unicode="&#xdf;" glyph-name="germandbls" horiz-adv-x="692" d="M464 -10Q415 -10 371 5T293 52Q279 65 280 80T294 108L295 109Q320 135 351 109Q399 69 468 69Q510 69 541 91T572 165Q572 184 560 199T522 235T452 287Q434 301 418 312T393 340T383
389Q383 417 394 438T421 479T448 520T460 567Q460 604 429 624T343 645Q286 645 247 619T208 531V40Q208 0 168 0H159Q119 0 119 40V402H64Q24 402 24 441Q24 480 64 480H119V540Q119 632 179 678T339 725Q442 725 494 681T547 567Q547 540 536 518T509 475T482
438T470 403Q470 386 475 380T494 363Q541 330 578 302T637 241T659 165Q659 82 605 36T464 -10Z" />
<glyph unicode="&#xe0;" glyph-name="agrave" horiz-adv-x="535" d="M211 -8Q138 -10 91 25T43 128Q43 177 74 213T155 269T258 290Q289 292 315 285T360 263V323Q360 379 337 396T264 413Q233 413 199 405T134 382Q113 374 98 376T73 395Q63 412 68 427T95 452Q132
470 176 481T264 492Q356 492 401 456T446 323V82Q446 66 448 62T461 54Q473 50 487 48T501 37Q501 4 467 -3Q445 -8 427 -8Q395 -8 381 4T362 47Q335 20 294 7T211 -8ZM212 71Q254 72 288 83T343 116T361 168Q359 196 333 208T265 218Q228 217 197 205T148 172T129
127Q130 99 152 85T212 71ZM328 547Q313 529 288 546L106 669Q79 689 99 714L115 733Q137 758 160 735L321 586Q343 564 328 547Z" />
<glyph unicode="&#xe1;" glyph-name="aacute" horiz-adv-x="535" d="M211 -8Q138 -10 91 25T43 128Q43 177 74 213T155 269T258 290Q289 292 315 285T360 263V323Q360 379 337 396T264 413Q233 413 199 405T134 382Q113 374 98 376T73 395Q63 412 68 427T95 452Q132
470 176 481T264 492Q356 492 401 456T446 323V82Q446 66 448 62T461 54Q473 50 487 48T501 37Q501 4 467 -3Q445 -8 427 -8Q395 -8 381 4T362 47Q335 20 294 7T211 -8ZM212 71Q254 72 288 83T343 116T361 168Q359 196 333 208T265 218Q228 217 197 205T148 172T129
127Q130 99 152 85T212 71ZM194 546Q169 529 154 547Q140 565 161 586L322 735Q346 759 367 733L383 714Q404 688 376 669L194 546Z" />
<glyph unicode="&#xe2;" glyph-name="acircumflex" horiz-adv-x="535" d="M211 -8Q138 -10 91 25T43 128Q43 177 74 213T155 269T258 290Q289 292 315 285T360 263V323Q360 379 337 396T264 413Q233 413 199 405T134 382Q113 374 98 376T73 395Q63 412 68 427T95
452Q132 470 176 481T264 492Q356 492 401 456T446 323V82Q446 66 448 62T461 54Q473 50 487 48T501 37Q501 4 467 -3Q445 -8 427 -8Q395 -8 381 4T362 47Q335 20 294 7T211 -8ZM212 71Q254 72 288 83T343 116T361 168Q359 196 333 208T265 218Q228 217 197 205T148
172T129 127Q130 99 152 85T212 71ZM194 702Q211 719 234 719H248Q272 719 288 702L382 594Q402 572 387 554Q371 538 347 556L241 638L134 556Q111 537 94 554Q80 572 99 594L194 702Z" />
<glyph unicode="&#xe3;" glyph-name="atilde" horiz-adv-x="535" d="M211 -8Q138 -10 91 25T43 128Q43 177 74 213T155 269T258 290Q289 292 315 285T360 263V323Q360 379 337 396T264 413Q233 413 199 405T134 382Q113 374 98 376T73 395Q63 412 68 427T95 452Q132
470 176 481T264 492Q356 492 401 456T446 323V82Q446 66 448 62T461 54Q473 50 487 48T501 37Q501 4 467 -3Q445 -8 427 -8Q395 -8 381 4T362 47Q335 20 294 7T211 -8ZM212 71Q254 72 288 83T343 116T361 168Q359 196 333 208T265 218Q228 217 197 205T148 172T129
127Q130 99 152 85T212 71ZM133 606Q123 592 114 592T93 604Q71 624 87 647Q103 673 124 690T171 708Q196 708 220 693T268 663T309 647Q328 647 344 675Q358 691 368 691T388 681Q409 660 394 638Q378 610 356 594T309 577Q285 577 261 592T214 623T172 638Q160
638 151 629T133 606Z" />
<glyph unicode="&#xe4;" glyph-name="adieresis" horiz-adv-x="535" d="M211 -8Q138 -10 91 25T43 128Q43 177 74 213T155 269T258 290Q289 292 315 285T360 263V323Q360 379 337 396T264 413Q233 413 199 405T134 382Q113 374 98 376T73 395Q63 412 68 427T95
452Q132 470 176 481T264 492Q356 492 401 456T446 323V82Q446 66 448 62T461 54Q473 50 487 48T501 37Q501 4 467 -3Q445 -8 427 -8Q395 -8 381 4T362 47Q335 20 294 7T211 -8ZM212 71Q254 72 288 83T343 116T361 168Q359 196 333 208T265 218Q228 217 197 205T148
172T129 127Q130 99 152 85T212 71ZM146 547Q123 547 107 564T90 603Q90 626 106 642T146 659Q169 659 185 643T202 603Q202 581 186 564T146 547ZM336 547Q314 547 298 564T281 603Q281 626 297 642T336 659Q359 659 375 643T392 603Q392 581 376 564T336 547Z"
/>
<glyph unicode="&#xe5;" glyph-name="aring" horiz-adv-x="535" d="M211 -8Q138 -10 91 25T43 128Q43 177 74 213T155 269T258 290Q289 292 315 285T360 263V323Q360 379 337 396T264 413Q233 413 199 405T134 382Q113 374 98 376T73 395Q63 412 68 427T95 452Q132
470 176 481T264 492Q356 492 401 456T446 323V82Q446 66 448 62T461 54Q473 50 487 48T501 37Q501 4 467 -3Q445 -8 427 -8Q395 -8 381 4T362 47Q335 20 294 7T211 -8ZM212 71Q254 72 288 83T343 116T361 168Q359 196 333 208T265 218Q228 217 197 205T148 172T129
127Q130 99 152 85T212 71ZM241 520Q197 520 166 551T135 626Q135 670 166 701T241 732Q285 732 316 701T347 626Q347 583 316 552T241 520ZM241 569Q264 569 281 586T299 626Q299 649 282 666T241 683Q217 683 201 666T184 626Q184 603 200 586T241 569Z" />
<glyph unicode="&#xe6;" glyph-name="ae" horiz-adv-x="844" d="M211 -8Q138 -10 91 25T43 128Q43 177 74 213T155 269T258 290Q289 292 315 285T360 263V323Q360 379 337 396T264 413Q233 413 199 405T134 382Q113 374 98 376T73 395Q63 412 68 427T95 452Q132
470 176 481T264 492Q325 492 365 477T426 424Q456 457 497 474T588 492Q654 492 700 460T771 373T796 255Q796 231 748 231H451Q452 151 490 110T593 68Q669 68 708 129Q724 146 738 151T769 146Q786 135 788 118T774 81Q710 -11 592 -11Q532 -11 484 12T406 79Q367
36 320 15T211 -8ZM212 71Q254 72 288 83T343 116T361 168Q359 196 333 208T265 218Q228 217 197 205T148 172T129 127Q130 99 152 85T212 71ZM455 303H707Q699 355 667 387T587 419Q535 419 501 390T455 303Z" />
<glyph unicode="&#xe7;" glyph-name="ccedilla" horiz-adv-x="488" d="M269 -11Q203 -11 152 20T71 108T41 240Q41 315 70 372T151 460T269 492Q353 492 413 440Q432 426 431 408T412 378Q395 365 382 367T349 382Q315 410 269 410Q208 410 170 365T131 240Q131
161 169 116T269 71Q314 71 348 97Q366 110 380 113T411 104Q428 91 430 74T414 42Q353 -11 269 -11ZM219 -183Q186 -183 186 -159Q186 -135 220 -134Q268 -132 288 -126T309 -107Q309 -83 250 -77Q212 -74 221 -44L226 -27Q234 0 260 0Q285 0 280 -18L273 -36Q318
-41 347 -59T376 -107Q376 -147 336 -164T219 -183Z" />
<glyph unicode="&#xe8;" glyph-name="egrave" horiz-adv-x="522" d="M271 -11Q203 -11 151 18T70 103T41 240Q41 317 70 373T149 461T266 492Q332 492 378 461T449 380T474 279Q474 250 462 241T427 231H129Q131 151 169 110T272 68Q348 68 387 129Q403 146 417
151T447 146Q464 135 466 118T453 81Q420 34 375 12T271 -11ZM134 303H386Q378 355 346 387T265 419Q213 419 179 390T134 303ZM348 547Q333 529 308 546L126 669Q99 689 119 714L135 733Q157 758 180 735L341 586Q363 564 348 547Z" />
<glyph unicode="&#xe9;" glyph-name="eacute" horiz-adv-x="522" d="M271 -11Q203 -11 151 18T70 103T41 240Q41 317 70 373T149 461T266 492Q332 492 378 461T449 380T474 279Q474 250 462 241T427 231H129Q131 151 169 110T272 68Q348 68 387 129Q403 146 417
151T447 146Q464 135 466 118T453 81Q420 34 375 12T271 -11ZM134 303H386Q378 355 346 387T265 419Q213 419 179 390T134 303ZM214 546Q189 529 174 547Q160 565 181 586L342 735Q366 759 387 733L403 714Q424 688 396 669L214 546Z" />
<glyph unicode="&#xea;" glyph-name="ecircumflex" horiz-adv-x="522" d="M271 -11Q203 -11 151 18T70 103T41 240Q41 317 70 373T149 461T266 492Q332 492 378 461T449 380T474 279Q474 250 462 241T427 231H129Q131 151 169 110T272 68Q348 68 387 129Q403 146
417 151T447 146Q464 135 466 118T453 81Q420 34 375 12T271 -11ZM134 303H386Q378 355 346 387T265 419Q213 419 179 390T134 303ZM214 702Q231 719 254 719H268Q292 719 308 702L402 594Q422 572 407 554Q391 538 367 556L261 638L154 556Q131 537 114 554Q100
572 119 594L214 702Z" />
<glyph unicode="&#xeb;" glyph-name="edieresis" horiz-adv-x="522" d="M271 -11Q203 -11 151 18T70 103T41 240Q41 317 70 373T149 461T266 492Q332 492 378 461T449 380T474 279Q474 250 462 241T427 231H129Q131 151 169 110T272 68Q348 68 387 129Q403 146
417 151T447 146Q464 135 466 118T453 81Q420 34 375 12T271 -11ZM134 303H386Q378 355 346 387T265 419Q213 419 179 390T134 303ZM166 547Q143 547 127 564T110 603Q110 626 126 642T166 659Q189 659 205 643T222 603Q222 581 206 564T166 547ZM356 547Q334 547
318 564T301 603Q301 626 317 642T356 659Q379 659 395 643T412 603Q412 581 396 564T356 547Z" />
<glyph unicode="&#xec;" glyph-name="igrave" horiz-adv-x="254" d="M128 0Q83 0 83 48V433Q83 480 128 480Q172 480 172 433V48Q172 0 128 0ZM470 547Q455 529 430 546L248 669Q221 689 241 714L257 733Q279 758 302 735L463 586Q485 564 470 547Z" />
<glyph unicode="&#xed;" glyph-name="iacute" horiz-adv-x="254" d="M128 0Q83 0 83 48V433Q83 480 128 480Q172 480 172 433V48Q172 0 128 0ZM336 546Q311 529 296 547Q282 565 303 586L464 735Q488 759 509 733L525 714Q546 688 518 669L336 546Z" />
<glyph unicode="&#xee;" glyph-name="icircumflex" horiz-adv-x="254" d="M128 0Q83 0 83 48V433Q83 480 128 480Q172 480 172 433V48Q172 0 128 0ZM336 702Q353 719 376 719H390Q414 719 430 702L524 594Q544 572 529 554Q513 538 489 556L383 638L276 556Q253
537 236 554Q222 572 241 594L336 702Z" />
<glyph unicode="&#xef;" glyph-name="idieresis" horiz-adv-x="254" d="M128 0Q83 0 83 48V433Q83 480 128 480Q172 480 172 433V48Q172 0 128 0ZM288 547Q265 547 249 564T232 603Q232 626 248 642T288 659Q311 659 327 643T344 603Q344 581 328 564T288 547ZM478
547Q456 547 440 564T423 603Q423 626 439 642T478 659Q501 659 517 643T534 603Q534 581 518 564T478 547Z" />
<glyph unicode="&#xf0;" glyph-name="eth" horiz-adv-x="538" d="M269 -11Q203 -11 152 20T71 109T41 241Q41 316 70 371T151 456T269 486Q306 486 340 476Q305 528 254 573L215 534Q182 501 155 527Q129 553 162 587L193 618Q179 628 164 637Q119 663 144 695Q170
730 208 709Q232 695 255 680L290 715Q324 748 350 722Q377 696 343 662L315 634Q382 575 433 490T494 290Q494 286 494 282Q497 262 497 241Q497 166 468 109T387 21T269 -11ZM269 71Q330 71 368 116T407 241Q407 320 369 365T269 410Q208 410 170 365T131 241Q131
162 169 117T269 71Z" />
<glyph unicode="&#xf1;" glyph-name="ntilde" horiz-adv-x="530" d="M112 0Q67 0 67 48V433Q67 480 108 480Q150 480 151 456L153 418Q174 448 209 470T291 492Q367 492 414 444T462 303V48Q462 0 417 0Q373 0 373 48V284Q373 347 345 378T272 410Q221 410 189
377T157 287V48Q157 0 112 0ZM157 606Q147 592 138 592T117 604Q95 624 111 647Q127 673 148 690T195 708Q220 708 244 693T292 663T333 647Q352 647 368 675Q382 691 392 691T412 681Q433 660 418 638Q402 610 380 594T333 577Q309 577 285 592T238 623T196 638Q184
638 175 629T157 606Z" />
<glyph unicode="&#xf2;" glyph-name="ograve" horiz-adv-x="538" d="M269 -11Q203 -11 152 20T71 109T41 241Q41 316 70 372T151 460T269 492Q335 492 386 461T467 373T497 241Q497 166 468 109T387 21T269 -11ZM269 71Q330 71 368 116T407 241Q407 320 369 365T269
410Q208 410 170 365T131 241Q131 162 169 117T269 71ZM356 547Q341 529 316 546L134 669Q107 689 127 714L143 733Q165 758 188 735L349 586Q371 564 356 547Z" />
<glyph unicode="&#xf3;" glyph-name="oacute" horiz-adv-x="538" d="M269 -11Q203 -11 152 20T71 109T41 241Q41 316 70 372T151 460T269 492Q335 492 386 461T467 373T497 241Q497 166 468 109T387 21T269 -11ZM269 71Q330 71 368 116T407 241Q407 320 369 365T269
410Q208 410 170 365T131 241Q131 162 169 117T269 71ZM222 546Q197 529 182 547Q168 565 189 586L350 735Q374 759 395 733L411 714Q432 688 404 669L222 546Z" />
<glyph unicode="&#xf4;" glyph-name="ocircumflex" horiz-adv-x="538" d="M269 -11Q203 -11 152 20T71 109T41 241Q41 316 70 372T151 460T269 492Q335 492 386 461T467 373T497 241Q497 166 468 109T387 21T269 -11ZM269 71Q330 71 368 116T407 241Q407 320 369
365T269 410Q208 410 170 365T131 241Q131 162 169 117T269 71ZM222 702Q239 719 262 719H276Q300 719 316 702L410 594Q430 572 415 554Q399 538 375 556L269 638L162 556Q139 537 122 554Q108 572 127 594L222 702Z" />
<glyph unicode="&#xf5;" glyph-name="otilde" horiz-adv-x="538" d="M269 -11Q203 -11 152 20T71 109T41 241Q41 316 70 372T151 460T269 492Q335 492 386 461T467 373T497 241Q497 166 468 109T387 21T269 -11ZM269 71Q330 71 368 116T407 241Q407 320 369 365T269
410Q208 410 170 365T131 241Q131 162 169 117T269 71ZM161 606Q151 592 142 592T121 604Q99 624 115 647Q131 673 152 690T199 708Q224 708 248 693T296 663T337 647Q356 647 372 675Q386 691 396 691T416 681Q437 660 422 638Q406 610 384 594T337 577Q313 577
289 592T242 623T200 638Q188 638 179 629T161 606Z" />
<glyph unicode="&#xf6;" glyph-name="odieresis" horiz-adv-x="538" d="M269 -11Q203 -11 152 20T71 109T41 241Q41 316 70 372T151 460T269 492Q335 492 386 461T467 373T497 241Q497 166 468 109T387 21T269 -11ZM269 71Q330 71 368 116T407 241Q407 320 369
365T269 410Q208 410 170 365T131 241Q131 162 169 117T269 71ZM174 547Q151 547 135 564T118 603Q118 626 134 642T174 659Q197 659 213 643T230 603Q230 581 214 564T174 547ZM364 547Q342 547 326 564T309 603Q309 626 325 642T364 659Q387 659 403 643T420
603Q420 581 404 564T364 547Z" />
<glyph unicode="&#xf7;" glyph-name="divide" horiz-adv-x="883" d="M160 321Q112 321 112 356Q112 391 160 391H723Q771 391 771 356Q771 321 723 321H160ZM442 56Q414 56 394 76T374 124Q374 152 394 171T442 191Q470 191 489 172T509 124Q509 96 490 76T442
56ZM442 521Q414 521 394 540T374 588Q374 616 394 635T442 655Q470 655 489 636T509 588Q509 560 490 541T442 521Z" />
<glyph unicode="&#xf8;" glyph-name="oslash" horiz-adv-x="538" d="M269 -11Q215 -11 169 11L167 8Q144 -33 119 -20Q95 -7 119 36L122 42Q84 75 63 126T41 241Q41 316 70 372T151 460T269 492Q323 492 369 470L371 473Q395 514 419 500Q443 486 419 445L415
439Q453 406 475 355T497 241Q497 166 468 109T387 21T269 -11ZM167 119L327 397Q301 410 269 410Q208 410 170 365T131 241Q131 203 140 172T167 119ZM269 71Q330 71 368 116T407 241Q407 279 398 309T371 362L211 84Q237 71 269 71Z" />
<glyph unicode="&#xf9;" glyph-name="ugrave" horiz-adv-x="521" d="M229 -11Q153 -11 106 37T59 178V433Q59 480 103 480Q148 480 148 433V196Q148 134 176 103T248 71Q299 71 331 104T364 195V433Q364 480 409 480Q453 480 453 433V48Q453 0 413 0Q373 0 370
25L368 62Q347 32 312 11T229 -11ZM348 547Q333 529 308 546L126 669Q99 689 119 714L135 733Q157 758 180 735L341 586Q363 564 348 547Z" />
<glyph unicode="&#xfa;" glyph-name="uacute" horiz-adv-x="521" d="M229 -11Q153 -11 106 37T59 178V433Q59 480 103 480Q148 480 148 433V196Q148 134 176 103T248 71Q299 71 331 104T364 195V433Q364 480 409 480Q453 480 453 433V48Q453 0 413 0Q373 0 370
25L368 62Q347 32 312 11T229 -11ZM214 546Q189 529 174 547Q160 565 181 586L342 735Q366 759 387 733L403 714Q424 688 396 669L214 546Z" />
<glyph unicode="&#xfb;" glyph-name="ucircumflex" horiz-adv-x="521" d="M229 -11Q153 -11 106 37T59 178V433Q59 480 103 480Q148 480 148 433V196Q148 134 176 103T248 71Q299 71 331 104T364 195V433Q364 480 409 480Q453 480 453 433V48Q453 0 413 0Q373
0 370 25L368 62Q347 32 312 11T229 -11ZM214 702Q231 719 254 719H268Q292 719 308 702L402 594Q422 572 407 554Q391 538 367 556L261 638L154 556Q131 537 114 554Q100 572 119 594L214 702Z" />
<glyph unicode="&#xfc;" glyph-name="udieresis" horiz-adv-x="521" d="M229 -11Q153 -11 106 37T59 178V433Q59 480 103 480Q148 480 148 433V196Q148 134 176 103T248 71Q299 71 331 104T364 195V433Q364 480 409 480Q453 480 453 433V48Q453 0 413 0Q373 0
370 25L368 62Q347 32 312 11T229 -11ZM166 547Q143 547 127 564T110 603Q110 626 126 642T166 659Q189 659 205 643T222 603Q222 581 206 564T166 547ZM356 547Q334 547 318 564T301 603Q301 626 317 642T356 659Q379 659 395 643T412 603Q412 581 396 564T356
547Z" />
<glyph unicode="&#xfd;" glyph-name="yacute" horiz-adv-x="492" d="M111 -207Q103 -207 95 -207T78 -205Q56 -203 45 -191T34 -158Q34 -119 65 -122Q83 -125 103 -125Q141 -125 156 -110T186 -57L208 1L40 426Q30 451 37 465T66 480H71Q112 480 125 442L247 110L364
442Q376 480 418 480Q441 480 449 466T449 426L263 -84Q241 -145 208 -176T111 -207ZM200 546Q175 529 160 547Q146 565 167 586L328 735Q352 759 373 733L389 714Q410 688 382 669L200 546Z" />
<glyph unicode="&#xfe;" glyph-name="thorn" horiz-adv-x="567" d="M112 -202Q67 -202 67 -154V652Q67 700 112 700Q157 700 157 652V419Q182 454 218 473T299 492Q365 492 416 462T496 375T526 241Q526 164 497 107T416 20T299 -11Q254 -11 218 8T157 62V-154Q157
-202 112 -202ZM296 71Q357 71 397 116T437 241Q437 320 397 365T296 410Q235 410 196 365T156 241Q156 162 195 117T296 71Z" />
<glyph unicode="&#xff;" glyph-name="ydieresis" horiz-adv-x="492" d="M111 -207Q103 -207 95 -207T78 -205Q56 -203 45 -191T34 -158Q34 -119 65 -122Q83 -125 103 -125Q141 -125 156 -110T186 -57L208 1L40 426Q30 451 37 465T66 480H71Q112 480 125 442L247
110L364 442Q376 480 418 480Q441 480 449 466T449 426L263 -84Q241 -145 208 -176T111 -207ZM152 547Q129 547 113 564T96 603Q96 626 112 642T152 659Q175 659 191 643T208 603Q208 581 192 564T152 547ZM342 547Q320 547 304 564T287 603Q287 626 303 642T342
659Q365 659 381 643T398 603Q398 581 382 564T342 547Z" />
<glyph unicode="&#x2013;" glyph-name="endash" horiz-adv-x="530" d="M106 209Q90 209 78 221T65 250Q65 267 77 279T106 292H423Q440 292 452 280T465 250Q465 234 453 222T423 209H106Z" />
<glyph unicode="&#x2014;" glyph-name="emdash" horiz-adv-x="1000" d="M2 358Q-7 358 -13 364T-20 380Q-20 389 -14 395T2 402H1002Q1011 402 1017 396T1023 380Q1023 371 1017 365T1002 358H2Z" />
<glyph unicode="&#x2018;" glyph-name="quoteleft" horiz-adv-x="260" d="M133 704Q153 715 167 713T188 699Q194 687 185 678T156 656Q99 623 99 569Q99 552 105 541Q113 555 126 564T156 573Q181 573 198 557T216 513Q216 485 196 470T148 453Q104 452 74 485T44
571Q44 616 68 649T133 704Z" />
<glyph unicode="&#x2019;" glyph-name="quoteright" horiz-adv-x="260" d="M127 461Q107 450 93 452T73 466Q66 477 75 486T104 509Q161 542 161 595Q161 604 159 611T155 623Q148 610 134 601T104 591Q79 591 62 607T44 652Q44 679 64 695T112 712Q156 714 186
681T216 593Q216 548 192 515T127 461Z" />
<glyph unicode="&#x201a;" glyph-name="quotesinglbase" horiz-adv-x="289" d="M141 -140Q122 -150 108 -148T87 -135Q81 -124 90 -115T119 -92Q145 -76 160 -54T175 -5Q175 11 170 23Q163 9 149 0T119 -9Q94 -9 77 7T59 51Q59 79 79 94T127 111Q171 113 201 80T231
-7Q231 -52 207 -85T141 -140Z" />
<glyph unicode="&#x201c;" glyph-name="quotedblleft" horiz-adv-x="473" d="M133 704Q153 715 167 713T188 699Q194 687 185 678T156 656Q99 623 99 569Q99 552 105 541Q113 555 126 564T156 573Q181 573 198 557T216 513Q216 485 196 470T148 453Q104 452 74
485T44 571Q44 616 68 649T133 704ZM346 704Q366 715 380 713T401 699Q407 687 398 678T369 656Q312 623 312 569Q312 560 314 553T318 541Q326 555 339 564T369 573Q394 573 411 557T429 513Q429 485 409 470T361 453Q318 452 288 485T257 571Q257 616 281 649T346
704Z" />
<glyph unicode="&#x201d;" glyph-name="quotedblright" horiz-adv-x="473" d="M340 461Q320 450 306 452T286 466Q280 477 289 486T317 509Q374 542 374 595Q374 614 368 623Q361 610 348 601T317 591Q292 591 275 607T257 652Q257 679 277 695T325 712Q369 714
399 681T429 593Q429 548 405 515T340 461ZM127 461Q107 450 93 452T73 466Q66 477 75 486T104 509Q161 542 161 595Q161 604 159 611T155 623Q148 610 134 601T104 591Q79 591 62 607T44 652Q44 679 64 695T112 712Q156 714 186 681T216 593Q216 548 192 515T127
461Z" />
<glyph unicode="&#x201e;" glyph-name="quotedblbase" horiz-adv-x="499" d="M351 -140Q332 -150 318 -148T297 -135Q291 -124 300 -115T329 -92Q355 -76 370 -54T385 -5Q385 11 380 23Q373 9 359 0T329 -9Q304 -9 287 7T269 51Q269 79 289 94T337 111Q381 113
411 80T441 -7Q441 -52 417 -85T351 -140ZM141 -140Q122 -150 108 -148T87 -135Q81 -124 90 -115T119 -92Q145 -76 160 -54T175 -5Q175 11 170 23Q163 9 149 0T119 -9Q94 -9 77 7T59 51Q59 79 79 94T127 111Q171 113 201 80T231 -7Q231 -52 207 -85T141 -140Z"
/>
<glyph unicode="&#x2022;" glyph-name="bullet" horiz-adv-x="329" d="M165 300Q125 300 97 328T68 397Q68 437 96 464T165 492Q204 492 232 465T261 397Q261 357 233 329T165 300Z" />
<glyph unicode="&#x2039;" glyph-name="guilsinglleft" horiz-adv-x="384" d="M74 250Q43 284 74 318L194 449Q219 475 253 475Q278 475 281 457T263 416L142 284L263 152Q284 129 285 111T267 93H253Q219 93 194 119L74 250Z" />
<glyph unicode="&#x203a;" glyph-name="guilsinglright" horiz-adv-x="384" d="M310 318Q341 284 310 250L190 119Q167 93 132 93Q107 93 104 111T121 152L242 284L121 416Q100 439 99 457T117 475H132Q167 475 190 449L310 318Z" />
</font>
</defs>
</svg>
