<?xml version="1.0" standalone="no"?>
<!DOCTYPE svg PUBLIC "-//W3C//DTD SVG 1.1//EN" "http://www.w3.org/Graphics/SVG/1.1/DTD/svg11.dtd">
<svg xmlns="http://www.w3.org/2000/svg">
<defs >
<font id="ZenMaruGothic" horiz-adv-x="974" ><font-face
    font-family="Zen Maru Gothic"
    units-per-em="1000"
    panose-1="0 0 0 0 0 0 0 0 0 0"
    ascent="1160"
    descent="-288"
    alphabetic="0" />
<glyph unicode=" " glyph-name="space" horiz-adv-x="280" />
<glyph unicode="!" glyph-name="exclam" horiz-adv-x="293" d="M147 201Q104 201 101 260L88 641Q86 701 146 701Q208 701 205 641L192 260Q190 201 147 201ZM146 -14Q115 -14 93 8T71 61Q71 93 93 115T146 137Q178 137 200 115T223 61Q223 30 201 8T146 -14Z" />
<glyph unicode="&quot;" glyph-name="quotedbl" horiz-adv-x="432" d="M119 451Q100 451 87 464T72 496L65 744Q64 767 80 783T119 800Q142 800 158 784T173 744L166 496Q165 477 152 464T119 451ZM313 451Q294 451 281 464T266 496L259 744Q258 767 274 783T313
800Q336 800 352 784T367 744L360 496Q359 477 346 464T313 451Z" />
<glyph unicode="#" glyph-name="numbersign" horiz-adv-x="598" d="M151 0Q129 0 120 16T114 63L132 202H95Q36 202 36 245Q36 287 84 287H144L161 413H124Q65 413 65 456Q65 499 113 499H173L193 645Q202 700 247 700Q291 700 283 637L264 499H375L395 645Q404
700 449 700Q493 700 485 637L466 499H503Q562 499 562 456Q562 413 514 413H454L437 287H474Q533 287 533 245Q533 202 485 202H426L405 55Q397 0 353 0Q331 0 322 16T316 63L334 202H224L203 55Q195 0 151 0ZM236 287H345L363 413H253L236 287Z" />
<glyph unicode="$" glyph-name="dollar" horiz-adv-x="624" d="M323 -63Q290 -63 290 -41V-14Q226 -9 171 18T75 97Q59 121 65 142T94 176Q117 190 136 185T173 157Q196 134 224 120T290 100V308Q193 329 136 375T79 512Q79 598 136 654T290 717V746Q290 763 300
768T323 773Q356 773 356 746V715Q416 708 462 684T542 625Q561 604 557 583T531 545Q509 527 489 531T449 555Q430 572 408 585T356 603V409Q473 382 525 328T577 194Q577 100 517 47T356 -14V-41Q356 -52 345 -57T323 -63ZM356 98Q409 103 432 127T455 191Q455
213 448 230T420 261T356 288V98ZM290 428V606Q249 601 224 579T199 518Q199 491 215 469T290 428Z" />
<glyph unicode="%" glyph-name="percent" horiz-adv-x="775" d="M202 349Q131 349 88 398T45 532Q45 615 88 663T202 712Q272 712 315 664T358 532Q358 447 315 398T202 349ZM574 -11Q504 -11 461 37T417 169Q417 253 460 302T574 351Q645 351 688 302T731 169Q731
86 688 38T574 -11ZM193 27Q159 -21 133 -3Q109 15 142 64L582 676Q618 725 643 705Q669 686 634 639L193 27ZM574 72Q648 72 648 169Q648 267 574 267Q539 267 520 243T500 169Q500 121 519 97T574 72ZM202 433Q275 433 275 532Q275 628 202 628Q128 628 128 532Q128
433 202 433Z" />
<glyph unicode="&amp;" glyph-name="ampersand" horiz-adv-x="668" d="M252 -16Q147 -16 92 36T36 182Q36 231 57 267T113 330T186 381Q149 425 128 462T106 550Q106 605 133 642T205 698T298 718Q357 718 399 696T464 637T487 553Q487 506 466 472T412 411T340
361L454 227Q471 248 488 271T522 319Q556 369 599 340Q642 310 610 261Q589 230 568 201T524 144L585 73Q610 43 607 22T576 0H548Q503 0 482 27L449 66Q406 29 357 7T252 -16ZM260 89Q290 89 320 104T382 146L249 305Q210 280 184 252T157 182Q157 130 184 110T260
89ZM276 434Q317 459 344 487T372 552Q372 586 351 604T300 622Q267 622 242 603T216 548Q216 514 233 489T276 434Z" />
<glyph unicode="&apos;" glyph-name="quotesingle" horiz-adv-x="238" d="M119 451Q100 451 87 464T72 496L65 744Q64 767 80 783T119 800Q142 800 158 784T173 744L166 496Q165 477 152 464T119 451Z" />
<glyph unicode="(" glyph-name="parenleft" horiz-adv-x="379" d="M311 -159Q291 -171 271 -167T237 -142Q166 -36 126 80T85 328Q85 460 125 576T237 799Q251 819 271 823T311 815Q330 805 333 784T326 745Q283 679 252 614T205 480T189 328Q189 247 205 177T252
43T326 -88Q337 -106 334 -127T311 -159Z" />
<glyph unicode=")" glyph-name="parenright" horiz-adv-x="379" d="M68 -159Q49 -148 46 -127T54 -89Q98 -22 128 42T174 177T190 328Q190 410 174 479T128 614T54 745Q43 762 46 783T68 815Q88 828 108 824T143 799Q214 693 254 577T294 328Q294 197 254 81T143
-142Q129 -162 109 -166T68 -159Z" />
<glyph unicode="*" glyph-name="asterisk" horiz-adv-x="518" d="M213 357Q177 309 141 336Q104 363 138 411L184 475L110 499Q54 518 68 561Q81 604 138 586L214 562V641Q214 700 260 700Q305 700 305 641V562L379 586Q436 605 450 561Q465 518 408 499L333 475L380
410Q414 362 378 336Q340 309 306 356L259 422L213 357Z" />
<glyph unicode="+" glyph-name="plus" horiz-adv-x="851" d="M467 85Q467 26 426 26Q384 26 384 85V313H156Q97 313 97 355Q97 396 156 396H385V625Q385 684 427 684Q468 684 468 625V397L696 396Q755 396 755 355Q755 314 696 314L468 313L467 85Z" />
<glyph unicode="," glyph-name="comma" horiz-adv-x="299" d="M153 -146Q128 -159 111 -157T86 -141Q79 -128 90 -117T125 -89Q151 -71 165 -47T180 3Q180 9 180 14T178 23Q168 10 153 1T122 -8Q94 -8 74 10T53 61Q53 93 76 110T132 129Q181 130 213 94T246 -1Q246
-49 221 -85T153 -146Z" />
<glyph unicode="-" glyph-name="hyphen" horiz-adv-x="480" d="M118 194Q96 194 81 209T65 247Q65 269 80 284T118 300H362Q384 300 399 285T415 247Q415 225 400 210T362 194H118Z" />
<glyph unicode="." glyph-name="period" horiz-adv-x="258" d="M129 -11Q98 -11 76 11T53 64Q53 96 75 118T129 140Q160 140 182 118T205 64Q205 33 183 11T129 -11Z" />
<glyph unicode="/" glyph-name="slash" horiz-adv-x="544" d="M136 4Q109 -50 77 -33Q46 -16 72 37L408 698Q421 724 436 733T467 734Q499 717 473 665L136 4Z" />
<glyph unicode="0" glyph-name="zero" horiz-adv-x="502" d="M252 -10Q172 -10 127 30T64 150T45 350Q45 470 63 550T127 671T252 711Q332 711 376 671T439 551T458 350Q458 230 440 150T377 30T252 -10ZM252 92Q289 92 310 115T342 195T352 350Q352 450 342 506T311
585T252 609Q215 609 193 586T162 506T152 350Q152 251 161 195T193 116T252 92Z" />
<glyph unicode="1" glyph-name="one" horiz-adv-x="409" d="M235 0Q181 0 181 59V564L109 517Q59 483 31 529Q2 575 52 606L172 681Q190 692 207 696T246 701Q288 701 288 642V59Q288 0 235 0Z" />
<glyph unicode="2" glyph-name="two" horiz-adv-x="449" d="M87 0Q28 0 28 33Q28 105 65 173T191 325Q222 355 250 385T296 445T315 502Q316 554 292 579T222 604Q161 604 144 542Q136 515 124 501T85 486Q60 486 45 503T37 549Q53 623 102 664T222 706Q280 706
325 682T397 612T421 499Q420 452 399 412T344 335T265 255Q219 210 184 169T142 98H350Q409 98 409 49Q409 0 350 0H87Z" />
<glyph unicode="3" glyph-name="three" horiz-adv-x="482" d="M217 -10Q103 -10 46 81Q30 107 38 127T69 154Q94 162 110 154T145 126Q156 111 173 102T215 92Q266 92 296 117T326 201Q326 254 296 286T210 318Q160 318 160 367Q160 416 210 416Q260 416 284 445T308
518Q308 568 280 588T215 609Q195 609 180 599T153 575Q134 555 118 547T77 549Q54 558 47 578T58 623Q87 666 128 688T217 711Q278 711 323 688T394 622T420 523Q420 471 393 430T323 369Q373 350 404 304T436 197Q436 102 379 46T217 -10Z" />
<glyph unicode="4" glyph-name="four" horiz-adv-x="494" d="M334 0Q284 0 284 59V153H70Q10 153 10 194Q10 217 15 234T30 269L262 663Q274 685 290 694T332 703Q385 703 385 644V247H424Q483 247 483 200Q483 153 440 153H385V59Q385 0 334 0ZM117 247H284V533L117
247Z" />
<glyph unicode="5" glyph-name="five" horiz-adv-x="470" d="M222 -6Q127 -6 59 60Q37 81 40 102T65 137Q88 151 106 147T146 125Q162 112 181 104T222 96Q278 96 306 129T335 223Q335 288 311 317T242 347Q227 347 214 343T189 331Q169 320 154 310T116 299Q61
299 61 358V641Q61 700 121 700H358Q417 700 417 651Q417 602 358 602H168V418Q185 430 205 437T245 445Q301 445 345 420T416 346T443 223Q443 114 382 54T222 -6Z" />
<glyph unicode="6" glyph-name="six" horiz-adv-x="496" d="M261 -10Q218 -10 179 4T108 55T60 158T45 330Q48 528 109 619T282 711Q320 711 355 697T418 657Q441 638 440 617T419 581Q399 566 382 569T345 589Q317 611 282 611Q215 611 183 549T148 365Q165 390
196 404T260 419Q316 419 360 394T429 322T455 211Q455 147 431 97T364 19T261 -10ZM254 92Q298 92 322 125T347 211Q347 261 323 291T258 322Q212 322 186 291T162 210Q164 153 188 123T254 92Z" />
<glyph unicode="7" glyph-name="seven" horiz-adv-x="416" d="M171 0Q146 0 134 17T127 64Q139 121 157 190T197 333T242 476T287 601H70Q10 601 10 651Q10 700 70 700H346Q374 700 389 690T405 662Q405 643 402 627T390 590Q369 537 347 469T304 326T265 181T235
53Q225 0 171 0Z" />
<glyph unicode="8" glyph-name="eight" horiz-adv-x="508" d="M254 -10Q192 -10 145 17T72 93T45 206Q45 259 72 302T140 368Q106 391 84 427T62 513Q62 572 86 616T154 686T254 711Q311 711 354 686T422 617T447 513Q447 464 425 428T370 368Q410 346 437 303T464
206Q464 141 437 93T363 17T254 -10ZM254 92Q304 92 330 120T357 207Q357 261 331 292T254 324Q205 324 179 293T152 207Q152 92 254 92ZM254 409Q296 409 317 436T339 512Q339 561 315 585T254 609Q217 609 193 585T169 512Q169 463 190 436T254 409Z" />
<glyph unicode="9" glyph-name="nine" horiz-adv-x="479" d="M196 -10Q159 -10 125 4T61 44Q39 64 40 84T61 120Q81 135 97 132T134 112Q162 89 196 89Q264 89 296 151T330 336Q313 311 282 297T219 282Q163 282 119 307T49 379T23 490Q23 555 47 604T115 682T217
711Q261 711 300 697T370 646T418 542T434 370Q430 173 370 82T196 -10ZM220 378Q267 378 293 409T317 491Q315 548 291 578T224 609Q181 609 157 576T132 490Q132 440 156 409T220 378Z" />
<glyph unicode=":" glyph-name="colon" horiz-adv-x="258" d="M129 -11Q98 -11 76 11T53 64Q53 96 75 118T129 140Q160 140 182 118T205 64Q205 33 183 11T129 -11ZM129 343Q98 343 76 365T53 418Q53 450 75 471T129 493Q160 493 182 472T205 418Q205 387 183
365T129 343Z" />
<glyph unicode=";" glyph-name="semicolon" horiz-adv-x="282" d="M153 -146Q128 -159 111 -157T86 -141Q79 -128 90 -117T125 -89Q151 -71 165 -47T180 3Q180 9 180 14T178 23Q168 10 153 1T122 -8Q94 -8 74 10T53 61Q53 93 76 110T132 129Q181 130 213 94T246
-1Q246 -49 221 -85T153 -146ZM129 343Q98 343 76 365T53 418Q53 450 75 471T129 493Q160 493 182 472T205 418Q205 387 183 365T129 343Z" />
<glyph unicode="&lt;" glyph-name="less" horiz-adv-x="608" d="M100 167Q72 179 63 196T53 238Q53 270 64 287T100 315L487 471Q518 484 536 478T555 449Q555 399 508 381L155 241L508 101Q555 83 555 34Q555 11 537 5T487 11L100 167Z" />
<glyph unicode="=" glyph-name="equal" horiz-adv-x="851" d="M159 411Q100 411 100 454Q100 496 159 496H693Q752 496 752 454Q752 411 693 411H159ZM693 241Q721 241 736 231T752 200Q752 158 693 158H159Q100 158 100 200Q100 241 159 241H693Z" />
<glyph unicode="&gt;" glyph-name="greater" horiz-adv-x="608" d="M122 11Q91 -1 72 5T53 33Q53 83 100 101L452 241L100 381Q53 399 53 448Q53 471 72 477T122 471L508 315Q532 305 543 288T555 242Q555 212 545 195T508 167L122 11Z" />
<glyph unicode="?" glyph-name="question" horiz-adv-x="496" d="M250 201Q207 201 201 258L195 348Q193 376 206 391T247 414Q291 425 315 449T339 514Q339 558 316 583T249 609Q195 609 170 568Q151 540 136 532T96 528Q68 533 54 551T52 597Q78 650 129 681T249
712Q311 712 358 689T433 621T460 514Q460 443 417 399T301 337L297 258Q292 201 250 201ZM249 -14Q218 -14 196 8T173 61Q173 93 195 115T249 137Q281 137 303 115T326 61Q326 30 304 8T249 -14Z" />
<glyph unicode="@" glyph-name="at" horiz-adv-x="799" d="M416 -15Q310 -15 224 27T87 147T36 337Q36 416 64 484T144 605T266 686T420 716Q489 716 551 691T660 620T735 516T763 387Q763 332 740 283T667 204T538 174Q472 174 450 210Q410 174 350 174Q312 174
280 189T230 236T216 321Q218 386 244 432T314 502T409 527Q462 527 495 489L500 505Q508 525 544 525Q564 525 571 509T571 461L532 280Q524 249 567 249Q604 249 628 268T665 319T677 387Q677 457 644 513T553 602T420 635Q332 635 266 598T163 493T126 337Q126
249 162 188T264 96T416 64Q478 64 524 79T607 123Q629 141 645 146T676 138Q689 126 688 111T670 78Q624 35 559 10T416 -15ZM363 254Q400 254 424 273T461 345L474 420Q463 440 447 447T413 455Q377 455 345 422T309 329Q305 289 320 272T363 254Z" />
<glyph unicode="A" glyph-name="A" horiz-adv-x="656" d="M75 0Q46 0 35 17T35 63L261 656Q276 700 324 700H332Q380 700 395 656L622 63Q633 34 622 17T581 0H562Q515 0 500 45L461 154H192L153 45Q138 0 91 0H75ZM230 261H424L328 534L230 261Z" />
<glyph unicode="B" glyph-name="B" horiz-adv-x="638" d="M126 0Q71 0 71 55V645Q71 700 126 700H365Q451 700 507 655T563 523Q563 462 536 422T466 367Q520 357 556 309T593 189Q593 92 535 46T376 0H126ZM186 107H360Q415 107 441 130T468 205Q468 254 437
278T360 303H186V107ZM186 411H345Q391 411 414 436T437 505Q437 549 413 571T343 593H186V411Z" />
<glyph unicode="C" glyph-name="C" horiz-adv-x="672" d="M364 -16Q269 -16 195 29T78 156T36 350Q36 462 78 544T194 672T364 718Q435 718 494 692T598 619Q618 597 611 575T584 540L579 537Q566 529 542 531T498 552Q472 578 439 591T364 605Q302 605 255 574T183
485T157 350Q157 274 182 217T255 128T364 96Q443 96 498 149Q518 168 539 171T579 165L581 163Q602 153 610 130T600 84Q556 36 496 10T364 -16Z" />
<glyph unicode="D" glyph-name="D" horiz-adv-x="673" d="M130 0Q71 0 71 59V641Q71 700 130 700H296Q401 700 477 661T595 544T637 350Q637 235 596 157T478 40T296 0H130ZM186 107H287Q395 107 455 169T516 350Q516 469 456 531T287 593H186V107Z" />
<glyph unicode="E" glyph-name="E" horiz-adv-x="586" d="M130 0Q71 0 71 59V641Q71 700 130 700H480Q539 700 539 646Q539 593 480 593H186V411H449Q508 411 508 357Q508 303 449 303H186V107H491Q550 107 550 54Q550 0 491 0H130Z" />
<glyph unicode="F" glyph-name="F" horiz-adv-x="566" d="M128 0Q71 0 71 59V641Q71 700 130 700H487Q547 700 547 646Q547 593 487 593H186V411H457Q485 411 500 397T516 357Q516 303 457 303H186V59Q186 0 128 0Z" />
<glyph unicode="G" glyph-name="G" horiz-adv-x="667" d="M361 -16Q266 -16 193 29T78 156T36 350Q36 462 77 544T192 672T361 718Q420 718 473 702T567 656Q591 640 592 619T577 575Q559 553 539 552T495 566Q467 584 433 594T361 605Q298 605 253 573T182 484T157
350Q157 275 182 218T252 128T361 96Q408 96 439 105T495 129V279H439Q380 279 380 333Q380 387 439 387H553Q612 387 612 327V100Q612 75 605 59T577 33Q534 11 479 -2T361 -16Z" />
<glyph unicode="H" glyph-name="H" horiz-adv-x="691" d="M126 0Q71 0 71 55V645Q71 700 126 700H131Q186 700 186 645V422H504V645Q504 700 560 700H566Q621 700 621 645V55Q621 0 566 0H560Q504 0 504 55V315H186V55Q186 0 131 0H126Z" />
<glyph unicode="I" glyph-name="I" horiz-adv-x="257" d="M128 0Q71 0 71 59V641Q71 700 128 700Q186 700 186 641V59Q186 0 128 0Z" />
<glyph unicode="J" glyph-name="J" horiz-adv-x="531" d="M245 -16Q143 -16 91 31T25 160Q20 189 35 205T81 222Q108 222 121 208T143 167Q163 97 245 97Q299 97 326 127T353 222V641Q353 700 412 700Q470 700 470 641V222Q470 151 447 97T375 14T245 -16Z" />
<glyph unicode="K" glyph-name="K" horiz-adv-x="610" d="M128 0Q71 0 71 59V641Q71 700 128 700Q186 700 186 641V396L411 655Q433 682 451 691T497 700Q522 700 534 688T546 659T533 627L309 374L547 71Q559 55 560 37T549 7T507 -5Q477 -5 459 6T426 37L186
358V59Q186 0 128 0Z" />
<glyph unicode="L" glyph-name="L" horiz-adv-x="570" d="M130 0Q71 0 71 59V641Q71 700 128 700Q186 700 186 641V107H492Q551 107 551 54Q551 0 492 0H130Z" />
<glyph unicode="M" glyph-name="M" horiz-adv-x="772" d="M129 0Q71 0 71 59V641Q71 675 88 687T140 700Q186 700 210 660L387 364L562 659Q576 684 594 692T643 700Q702 700 702 641V59Q702 0 643 0Q584 0 584 59V499L443 255Q422 214 386 214Q350 214 329 255L187
499V59Q187 0 129 0Z" />
<glyph unicode="N" glyph-name="N" horiz-adv-x="703" d="M128 0Q71 0 71 59V641Q71 700 128 700H141Q186 700 212 661L516 203V641Q516 670 531 685T575 700Q633 700 633 641V59Q633 0 578 0H568Q522 0 497 39L186 511V59Q186 0 128 0Z" />
<glyph unicode="O" glyph-name="O" horiz-adv-x="727" d="M364 -16Q269 -16 195 29T78 156T36 350Q36 462 78 544T194 672T364 718Q459 718 532 673T648 545T691 350Q691 239 649 157T533 29T364 -16ZM364 96Q427 96 473 127T544 216T570 350Q570 427 545 484T473
573T364 605Q302 605 255 574T183 485T157 350Q157 274 182 217T255 128T364 96Z" />
<glyph unicode="P" glyph-name="P" horiz-adv-x="631" d="M128 0Q71 0 71 59V641Q71 700 130 700H391Q489 700 546 654T604 499Q604 390 547 343T391 296H186V59Q186 0 128 0ZM186 404H375Q426 404 454 426T482 499Q482 549 454 571T375 593H186V404Z" />
<glyph unicode="Q" glyph-name="Q" horiz-adv-x="727" d="M364 -16Q269 -16 195 29T78 156T36 350Q36 462 78 544T194 672T364 718Q459 718 532 673T648 545T691 350Q691 296 681 249T650 161L709 115Q756 80 720 33Q682 -15 639 19L580 65Q538 26 484 5T364 -16ZM364
96Q399 96 430 107T485 139L437 176Q391 214 426 259Q462 304 500 276L551 235Q560 260 565 289T570 350Q570 427 545 484T473 573T364 605Q302 605 255 574T183 485T157 350Q157 274 182 217T255 128T364 96Z" />
<glyph unicode="R" glyph-name="R" horiz-adv-x="641" d="M128 0Q71 0 71 59V641Q71 700 130 700H391Q489 700 546 654T604 499Q604 407 562 360T446 301L561 70Q576 39 567 20T529 0H510Q460 0 441 45L326 296H186V59Q186 0 128 0ZM186 404H375Q426 404 454 426T482
499Q482 549 454 571T375 593H186V404Z" />
<glyph unicode="S" glyph-name="S" horiz-adv-x="624" d="M324 -14Q250 -14 186 11T76 97Q59 121 64 141T94 175Q117 189 136 184T174 157Q201 128 238 112T328 96Q398 96 426 121T455 191Q455 219 443 239T391 276T269 312Q172 335 126 385T79 512Q79 573 108
619T191 692T317 718Q392 718 448 692T542 625Q561 604 557 583T531 545Q509 527 489 531T449 554Q424 577 392 592T316 607Q264 607 232 585T199 517Q199 497 208 479T250 443T351 410Q471 383 524 329T577 193Q577 93 508 40T324 -14Z" />
<glyph unicode="T" glyph-name="T" horiz-adv-x="593" d="M298 0Q239 0 239 59V593H87Q28 593 28 646Q28 700 87 700H506Q566 700 566 646Q566 593 506 593H356V59Q356 0 298 0Z" />
<glyph unicode="U" glyph-name="U" horiz-adv-x="660" d="M330 -13Q199 -13 130 56T61 265V641Q61 670 76 685T120 700Q178 700 178 641V271Q178 181 218 141T330 100Q401 100 441 140T481 271V641Q481 700 539 700Q597 700 597 641V265Q597 126 529 57T330 -13Z" />
<glyph unicode="V" glyph-name="V" horiz-adv-x="635" d="M318 -3Q293 -3 272 10T242 48L34 632Q23 664 34 682T83 700Q135 700 151 652L317 158L484 652Q500 700 553 700Q585 700 598 682T600 632L392 48Q384 23 363 10T318 -3Z" />
<glyph unicode="W" glyph-name="W" horiz-adv-x="834" d="M228 0Q174 0 164 52L34 635Q27 667 39 683T79 700Q111 700 127 688T149 647L238 209L353 649Q366 700 416 700Q467 700 480 649L595 209L684 647Q693 700 748 700Q779 700 793 683T800 635L670 52Q660
0 605 0Q552 0 539 51L416 517L294 51Q281 0 228 0Z" />
<glyph unicode="X" glyph-name="X" horiz-adv-x="626" d="M110 0Q65 0 56 22T64 72L251 365L82 628Q57 663 70 681T127 700Q174 700 198 660L313 470L428 660Q452 700 499 700Q582 700 544 628L376 365L562 72Q582 41 571 21T515 0Q469 0 445 40L313 260L181 40Q158
0 110 0Z" />
<glyph unicode="Y" glyph-name="Y" horiz-adv-x="626" d="M314 0Q255 0 255 59V297L61 629Q40 664 53 682T107 700Q154 700 177 659L314 423L449 659Q473 700 520 700Q561 700 572 680T566 629L372 297V59Q372 0 314 0Z" />
<glyph unicode="Z" glyph-name="Z" horiz-adv-x="570" d="M95 0Q36 0 36 54V67Q36 107 60 141L382 593H107Q79 593 64 606T48 646Q48 700 107 700H466Q525 700 525 646V633Q525 592 501 560L179 107H475Q534 107 534 54Q534 0 475 0H95Z" />
<glyph unicode="[" glyph-name="bracketleft" horiz-adv-x="370" d="M231 -152Q173 -152 142 -142T98 -104T85 -25V682Q85 733 97 760T141 798T231 809H283Q300 809 312 797T325 768Q325 751 313 739T283 726H231Q207 726 197 717T187 682V-25Q187 -51 197 -60T231
-69H283Q300 -69 312 -81T325 -111Q325 -128 313 -140T283 -152H231Z" />
<glyph unicode="\" glyph-name="backslash" horiz-adv-x="544" d="M467 -33Q435 -50 408 4L72 665Q46 717 77 734Q92 742 107 733T136 698L473 37Q500 -17 467 -33Z" />
<glyph unicode="]" glyph-name="bracketright" horiz-adv-x="370" d="M87 -152Q70 -152 58 -140T45 -111Q45 -94 57 -82T87 -69H139Q163 -69 173 -60T183 -25V682Q183 708 173 717T139 726H87Q70 726 58 738T45 768Q45 785 57 797T87 809H139Q197 809 228 799T272
761T285 682V-25Q285 -76 273 -103T229 -141T139 -152H87Z" />
<glyph unicode="^" glyph-name="asciicircum" horiz-adv-x="542" d="M91 294Q67 294 61 313T68 363L203 655Q222 700 271 700Q319 700 339 655L474 363Q488 332 482 313T452 294H446Q397 294 378 340L271 587L164 340Q145 294 96 294H91Z" />
<glyph unicode="_" glyph-name="underscore" horiz-adv-x="733" d="M92 -106Q81 -106 73 -98T65 -79Q65 -68 73 -60T92 -52H642Q653 -52 660 -60T668 -79Q668 -90 661 -98T642 -106H92Z" />
<glyph unicode="`" glyph-name="grave" horiz-adv-x="375" d="M308 549Q290 528 261 548L82 670Q50 693 75 722L94 744Q119 774 146 747L300 594Q326 568 308 549Z" />
<glyph unicode="a" glyph-name="a" horiz-adv-x="534" d="M219 -7Q141 -10 91 27T40 134Q40 185 71 221T151 277T252 299Q278 301 301 295T342 278V320Q342 367 322 381T263 395Q235 395 205 388T145 369Q119 358 101 361T70 385Q58 406 64 425T98 456Q134 473
176 483T263 493Q356 493 403 456T450 320V99Q450 89 452 83T457 74Q466 61 476 59T495 57T503 47Q503 29 494 16T462 -2Q439 -7 417 -7Q386 -7 370 3T346 39Q321 18 288 7T219 -7ZM217 91Q273 93 309 113T344 170Q343 194 320 203T261 210Q212 209 180 186T149
133Q151 88 217 91Z" />
<glyph unicode="b" glyph-name="b" horiz-adv-x="567" d="M299 -11Q214 -11 165 63V43Q165 19 150 10T111 0Q61 0 61 59V654Q61 713 118 713Q174 713 174 654V438Q198 464 230 478T299 493Q366 493 418 463T501 377T531 241Q531 162 501 106T419 19T299 -11ZM295
91Q348 91 383 130T418 241Q418 313 383 352T295 391Q242 391 207 352T172 241Q172 169 207 130T295 91Z" />
<glyph unicode="c" glyph-name="c" horiz-adv-x="491" d="M268 -11Q202 -11 150 20T67 108T36 241Q36 317 66 373T149 461T268 493Q354 493 412 445Q436 427 434 405T410 367Q388 352 373 354T332 372Q304 391 268 391Q216 391 183 352T150 241Q150 169 183 130T268
91Q305 91 330 109Q353 123 370 127T409 116Q431 100 434 79T414 39Q353 -11 268 -11Z" />
<glyph unicode="d" glyph-name="d" horiz-adv-x="567" d="M268 -11Q202 -11 150 19T67 105T36 241Q36 320 66 376T149 463T268 493Q344 493 393 438V654Q393 713 449 713Q506 713 506 654V59Q506 0 457 0Q409 0 406 23L403 55Q378 24 344 7T268 -11ZM273 91Q326
91 361 130T396 241Q396 313 361 352T273 391Q220 391 185 352T150 241Q150 169 185 130T273 91Z" />
<glyph unicode="e" glyph-name="e" horiz-adv-x="521" d="M271 -11Q166 -11 101 52T36 241Q36 319 65 375T146 462T265 493Q332 493 379 462T451 382T476 280Q476 243 461 232T417 220H147Q151 148 185 118T273 87Q334 87 368 129Q388 150 405 156T443 149Q463
135 466 113T448 67Q414 26 370 8T271 -11ZM152 307H365Q357 354 331 379T263 405Q219 405 191 381T152 307Z" />
<glyph unicode="f" glyph-name="f" horiz-adv-x="369" d="M168 0Q111 0 111 59V384H79Q20 384 20 433Q20 481 61 481H111V567Q111 656 152 690T269 724Q307 724 332 715T357 672Q357 651 348 637T311 623Q305 623 297 624T283 625Q223 625 223 553V481H298Q357
481 357 433Q357 384 299 384H223V59Q223 0 168 0Z" />
<glyph unicode="g" glyph-name="g" horiz-adv-x="547" d="M258 -199Q145 -199 79 -133Q58 -111 62 -90T88 -55Q110 -40 128 -45T168 -67Q203 -97 258 -97Q317 -97 345 -61T373 54V81Q326 32 254 32Q191 32 142 58T64 136T36 263Q36 339 64 390T141 467T254 493Q293
493 329 477T388 421V438Q388 463 401 472T437 481Q485 481 485 422V54Q485 -65 430 -132T258 -199ZM263 131Q315 131 348 166T381 263Q381 325 348 359T263 394Q211 394 181 360T150 263Q150 202 180 167T263 131Z" />
<glyph unicode="h" glyph-name="h" horiz-adv-x="531" d="M118 0Q61 0 61 59V654Q61 713 118 713Q174 713 174 654V424Q190 452 222 472T299 493Q374 493 421 445T469 304V59Q469 0 413 0Q356 0 356 59V277Q356 334 333 362T271 391Q228 391 201 362T174 274V59Q174
0 118 0Z" />
<glyph unicode="i" glyph-name="i" horiz-adv-x="264" d="M133 0Q77 0 77 59V422Q77 481 133 481Q189 481 189 422V59Q189 0 133 0ZM132 560Q103 560 82 581T61 631Q61 660 82 681T132 702Q161 702 182 681T203 631Q203 602 182 581T132 560Z" />
<glyph unicode="j" glyph-name="j" horiz-adv-x="256" d="M22 -199Q14 -199 6 -199T-13 -198Q-39 -196 -52 -179T-66 -135Q-66 -81 -35 -86Q-27 -87 -19 -87T-2 -88Q40 -88 54 -72T68 -14V422Q68 451 83 466T124 481Q180 481 180 422V-14Q180 -113 143 -156T22
-199ZM124 560Q94 560 74 581T53 631Q53 660 73 681T124 702Q153 702 173 681T193 631Q193 602 173 581T124 560Z" />
<glyph unicode="k" glyph-name="k" horiz-adv-x="507" d="M117 0Q61 0 61 55V658Q61 713 117 713H119Q174 713 174 658V282L314 449Q330 469 348 478T383 487Q403 487 416 476T430 445T412 402L288 264L439 67Q459 39 446 17T403 -5Q376 -5 362 2T337 23L174 244V55Q174
0 119 0H117Z" />
<glyph unicode="l" glyph-name="l" horiz-adv-x="235" d="M118 0Q61 0 61 59V654Q61 713 118 713Q174 713 174 654V59Q174 0 118 0Z" />
<glyph unicode="m" glyph-name="m" horiz-adv-x="786" d="M118 0Q61 0 61 59V422Q61 481 112 481Q162 481 165 455L169 423Q183 453 216 473T292 493Q339 493 374 471T428 408Q447 445 483 469T567 493Q638 493 681 444T725 304V59Q725 0 669 0Q611 0 611 59V278Q611
331 592 361T539 391Q496 391 473 360T449 272V59Q449 0 393 0Q336 0 336 59V278Q336 331 316 361T262 391Q220 391 197 360T174 272V59Q174 0 118 0Z" />
<glyph unicode="n" glyph-name="n" horiz-adv-x="531" d="M118 0Q61 0 61 59V422Q61 481 112 481Q163 481 165 455L168 424Q188 452 221 472T299 493Q374 493 421 445T469 304V59Q469 0 413 0Q356 0 356 59V277Q356 334 333 362T271 391Q228 391 201 362T174 274V59Q174
0 118 0Z" />
<glyph unicode="o" glyph-name="o" horiz-adv-x="537" d="M268 -11Q202 -11 150 20T67 108T36 241Q36 317 66 373T149 461T268 493Q336 493 388 462T471 374T501 241Q501 165 471 109T389 21T268 -11ZM268 91Q321 91 354 130T388 241Q388 313 355 352T268 391Q216
391 183 352T150 241Q150 169 183 130T268 91Z" />
<glyph unicode="p" glyph-name="p" horiz-adv-x="567" d="M118 -197Q61 -197 61 -138V422Q61 481 111 481Q159 481 162 460L165 428Q216 493 299 493Q366 493 418 463T501 377T531 241Q531 162 501 106T419 19T299 -11Q262 -11 230 3T174 44V-138Q174 -166 160
-181T118 -197ZM295 91Q348 91 383 130T418 241Q418 313 383 352T295 391Q242 391 207 352T172 241Q172 169 207 130T295 91Z" />
<glyph unicode="q" glyph-name="q" horiz-adv-x="567" d="M449 -197Q393 -197 393 -138V44Q344 -11 268 -11Q202 -11 150 19T67 105T36 241Q36 320 66 376T149 463T268 493Q352 493 404 427V441Q404 461 418 471T455 481Q478 481 492 466T506 422V-138Q506 -166
492 -181T449 -197ZM273 91Q326 91 361 130T396 241Q396 313 361 352T273 391Q220 391 185 352T150 241Q150 169 185 130T273 91Z" />
<glyph unicode="r" glyph-name="r" horiz-adv-x="382" d="M118 0Q61 0 61 59V422Q61 481 120 481Q140 481 155 472T170 436V413Q188 449 226 471T308 493Q339 493 355 477T372 432Q372 406 359 394T329 384Q321 385 312 385T292 386Q243 386 209 354T174 264V59Q174
0 118 0Z" />
<glyph unicode="s" glyph-name="s" horiz-adv-x="461" d="M234 -10Q189 -10 149 1T74 37Q49 54 48 74T63 114Q80 132 98 131T142 116Q182 88 240 88Q281 88 299 99T318 142Q318 157 309 166T276 184T204 201Q134 215 92 247T50 348Q50 393 74 425T139 476T230
494Q308 494 362 461Q389 447 392 427T381 387Q365 367 347 367T303 378Q287 387 270 391T232 395Q195 395 180 382T164 351Q164 338 171 329T201 312T265 294Q345 275 389 239T433 138Q433 65 378 28T234 -10Z" />
<glyph unicode="t" glyph-name="t" horiz-adv-x="385" d="M258 -11Q187 -11 150 15T112 119V384H79Q20 384 20 433Q20 456 32 468T78 481H112V591Q112 650 169 650Q224 650 224 591V481H298Q357 481 357 433Q357 384 299 384H224V148Q224 114 240 102T288 90Q320
90 338 83T357 44Q357 19 343 8T306 -7T258 -11Z" />
<glyph unicode="u" glyph-name="u" horiz-adv-x="522" d="M223 -11Q148 -11 101 37T53 179V422Q53 481 109 481Q166 481 166 422V204Q166 149 189 120T251 91Q294 91 321 121T348 209V422Q348 481 405 481Q461 481 461 422V59Q461 31 448 16T410 0Q360 0 358 26L354
57Q335 30 302 10T223 -11Z" />
<glyph unicode="v" glyph-name="v" horiz-adv-x="505" d="M255 -2Q233 -2 213 10T184 47L45 413Q33 445 42 463T84 481Q136 481 152 434L255 144L359 434Q375 481 426 481Q453 481 462 463T460 413L326 48Q317 23 297 11T255 -2Z" />
<glyph unicode="w" glyph-name="w" horiz-adv-x="687" d="M208 0Q160 0 145 50L38 415Q30 445 39 463T73 481H74Q127 481 140 430L212 160L284 430Q297 481 344 481Q390 481 403 430L475 160L548 430Q561 481 614 481Q639 481 648 463T649 415L542 50Q527 0 479
0Q430 0 417 51L344 324L270 51Q257 0 208 0Z" />
<glyph unicode="x" glyph-name="x" horiz-adv-x="537" d="M85 0Q58 0 54 21T72 72L207 255L94 410Q72 439 76 460T106 481H125Q171 481 197 444L268 340L341 444Q355 464 372 472T412 481Q445 481 452 460T439 410L328 258L464 72Q486 42 483 21T451 0H430Q385
0 359 38L267 172L175 38Q149 0 104 0H85Z" />
<glyph unicode="y" glyph-name="y" horiz-adv-x="500" d="M121 -199H94Q66 -197 52 -182T38 -141Q38 -91 72 -96Q82 -97 91 -97T109 -98Q136 -98 149 -92T171 -72T189 -34L202 1L39 413Q27 445 36 463T71 481H78Q129 481 145 434L251 136L350 433Q367 481 417
481Q446 481 457 463T457 413L285 -67Q261 -133 227 -166T121 -199Z" />
<glyph unicode="z" glyph-name="z" horiz-adv-x="434" d="M87 0Q28 0 28 46V51Q28 92 54 124L263 389H99Q71 389 56 401T40 435Q40 481 99 481H338Q397 481 397 435V431Q397 409 391 392T371 357L159 93H347Q407 93 407 47Q407 0 347 0H87Z" />
<glyph unicode="{" glyph-name="braceleft" horiz-adv-x="480" d="M324 -152Q257 -152 222 -116T186 0V191Q186 230 167 254T105 283Q87 285 76 298T65 328Q65 346 76 359T105 374Q148 379 167 403T186 466V657Q186 737 221 773T324 809H393Q410 809 422 797T435
767Q435 750 423 738T393 726H360Q317 726 303 708T288 649V461Q288 401 261 367T186 328Q234 323 261 290T288 196V8Q288 -33 302 -51T360 -69H393Q410 -69 422 -81T435 -111Q435 -128 423 -140T393 -152H324Z" />
<glyph unicode="|" glyph-name="bar" horiz-adv-x="234" d="M117 -28Q71 -28 71 31V670Q71 698 83 713T117 729Q163 729 163 670V31Q163 -28 117 -28Z" />
<glyph unicode="}" glyph-name="braceright" horiz-adv-x="480" d="M87 -152Q70 -152 58 -140T45 -111Q45 -93 57 -81T87 -69H120Q162 -69 177 -51T192 8V196Q192 256 218 289T294 328Q245 333 219 367T192 461V649Q192 690 177 708T120 726H87Q70 726 58 738T45
767Q45 785 57 797T87 809H156Q223 809 258 773T294 657V466Q294 427 313 403T375 374Q392 373 403 360T415 328Q415 311 404 298T375 283Q332 279 313 255T294 191V0Q294 -79 259 -115T156 -152H87Z" />
<glyph unicode="~" glyph-name="asciitilde" horiz-adv-x="600" d="M146 298Q130 283 115 282T81 296Q64 312 62 332T80 373Q103 396 131 410T196 425Q223 425 251 415T307 392T358 369T402 359Q424 359 444 376Q467 393 484 397T520 385Q537 370 538 350T520
309Q498 286 469 272T403 257Q375 257 348 267T294 289T244 312T197 322Q183 322 170 316T146 298Z" />
<glyph unicode="&#xa0;" glyph-name="uni00A0" horiz-adv-x="280" />
<glyph unicode="&#xa1;" glyph-name="exclamdown" horiz-adv-x="293" d="M147 500Q190 500 192 442L205 61Q208 1 146 1Q86 1 88 61L101 442Q104 500 147 500ZM147 716Q179 716 201 694T223 640Q223 609 201 587T147 564Q116 564 94 586T71 640Q71 672 93 694T147 716Z" />
<glyph unicode="&#xa2;" glyph-name="cent" horiz-adv-x="499" d="M280 -63Q246 -63 246 -21V104Q186 112 140 145T67 231T40 353Q40 422 66 475T139 562T246 603V731Q246 773 280 773Q313 773 313 731V604Q381 596 436 557Q461 539 460 517T436 480Q414 465 398
464T365 477Q341 495 313 499V207Q324 209 334 213T355 223Q378 236 395 240T434 228Q456 212 458 190T436 149Q382 109 313 103V-21Q313 -63 280 -63ZM246 208V499Q204 487 179 450T153 353Q153 293 178 256T246 208Z" />
<glyph unicode="&#xa3;" glyph-name="sterling" horiz-adv-x="592" d="M155 7Q124 -1 106 5T71 36Q56 60 60 79T84 119Q118 152 132 189T147 267Q147 275 146 282T144 297H99Q40 297 40 346Q40 394 74 394H119Q110 418 104 446T97 511Q97 609 158 662T323 716Q395
716 448 687T527 600Q541 572 527 553T484 529Q463 526 451 528T429 539T404 567Q394 584 375 595T323 607Q275 607 248 584T221 511Q221 476 229 449T246 394H343Q402 394 402 346Q402 297 345 297H269Q271 290 271 283T271 267Q271 190 204 114Q218 116 231 117T258
118Q284 118 308 114T360 106T426 101Q437 101 447 102T466 106Q498 114 515 108T543 77Q556 52 550 30T515 -1Q476 -14 426 -14Q380 -14 350 -7T293 9T228 17Q209 17 191 16T155 7Z" />
<glyph unicode="&#xa4;" glyph-name="currency" horiz-adv-x="632" d="M325 85Q231 85 167 133L92 42Q54 -4 29 18Q5 39 42 83L122 178Q72 247 72 352Q72 457 122 526L42 621Q5 665 29 686Q54 708 92 662L167 571Q231 619 325 619Q418 619 482 572L556 662Q594
708 619 686Q643 665 606 621L526 526Q577 457 577 352Q577 247 526 178L606 83Q643 39 619 18Q594 -4 556 42L482 132Q418 85 325 85ZM325 198Q391 198 427 238T464 352Q464 425 428 465T325 506Q258 506 222 466T185 352Q185 279 221 239T325 198Z" />
<glyph unicode="&#xa5;" glyph-name="yen" horiz-adv-x="608" d="M306 0Q247 0 247 59V167H127Q68 167 68 212Q68 257 127 257H247V299L232 325H127Q99 325 84 337T68 371Q68 417 114 417H178L53 629Q34 659 42 679T79 700H99Q146 700 170 659L306 423L441 659Q455
682 473 691T518 700Q553 700 564 680T558 629L433 417H483Q543 417 543 371Q543 325 483 325H379L364 299V257H483Q543 257 543 212Q543 167 483 167H364V59Q364 0 306 0Z" />
<glyph unicode="&#xa6;" glyph-name="brokenbar" horiz-adv-x="234" d="M117 422Q71 422 71 481V670Q71 729 117 729Q163 729 163 670V481Q163 422 117 422ZM117 -28Q71 -28 71 31V219Q71 278 117 278Q163 278 163 219V31Q163 -28 117 -28Z" />
<glyph unicode="&#xa7;" glyph-name="section" horiz-adv-x="851" d="M428 -15Q373 -15 333 0T266 48Q246 72 253 93T284 123Q307 131 320 126T359 100Q383 75 424 75Q451 75 472 88T493 126Q493 152 461 172T363 219Q313 239 282 257T237 301T223 363Q223 398
245 430T306 481Q280 501 264 527T248 585Q248 633 274 664T340 710T424 726Q469 726 508 712T576 671Q596 651 592 629T561 595Q538 585 524 591T490 614Q466 635 428 635Q399 635 379 622T359 585Q359 559 392 539T489 493Q539 473 569 454T614 411T628 349Q628
312 606 280T546 231Q574 210 589 184T605 126Q605 79 579 48T513 1T428 -15ZM489 268Q512 279 521 295T530 329Q530 348 519 362T482 390T407 424Q396 429 386 434T364 444Q340 432 331 416T322 382Q322 355 348 336T445 288Q456 284 467 279T489 268Z" />
<glyph unicode="&#xa8;" glyph-name="dieresis" horiz-adv-x="414" d="M110 567Q86 567 68 584T50 627Q50 652 68 669T110 687Q135 687 153 670T171 627Q171 602 153 585T110 567ZM304 567Q279 567 261 584T243 627Q243 652 261 669T304 687Q328 687 346 670T364
627Q364 602 346 585T304 567Z" />
<glyph unicode="&#xa9;" glyph-name="copyright" horiz-adv-x="840" d="M420 -10Q345 -10 280 18T166 95T88 210T60 350Q60 425 88 490T165 604T280 682T420 710Q495 710 560 682T674 605T752 490T780 350Q780 275 752 210T675 96T560 18T420 -10ZM420 63Q480
63 532 85T623 146T685 238T707 350Q707 410 685 462T624 553T532 615T420 637Q360 637 308 615T217 554T155 462T133 350Q133 290 155 238T216 147T308 85T420 63ZM422 120Q362 120 315 148T242 228T215 350Q215 421 241 473T315 553T422 582Q497 582 551 536Q574
517 575 497T560 468Q544 459 530 464T495 484Q492 485 491 486Q462 509 422 509Q364 509 329 466T293 350Q293 279 328 236T422 192Q462 192 491 215Q514 229 529 235T560 232Q576 223 575 205T551 166Q499 120 422 120Z" />
<glyph unicode="&#xaa;" glyph-name="ordfeminine" horiz-adv-x="534" d="M219 286Q141 283 91 320T40 427Q40 478 71 514T151 570T252 592Q278 594 301 588T342 571V613Q342 660 322 674T263 688Q235 688 205 681T145 662Q119 651 101 654T70 678Q58 699 64 718T98
749Q134 766 176 776T263 786Q356 786 403 749T450 613V392Q450 382 452 376T457 367Q466 354 476 352T495 350T503 340Q503 322 494 309T462 291Q439 286 417 286Q386 286 370 296T346 332Q321 311 288 300T219 286ZM217 384Q273 386 309 406T344 463Q343 487
320 496T261 503Q212 502 180 479T149 426Q151 381 217 384ZM150 370Q128 370 113 385T97 423Q97 445 112 460T150 476H394Q416 476 431 461T447 423Q447 401 432 386T394 370H150Z" />
<glyph unicode="&#xab;" glyph-name="guillemotleft" horiz-adv-x="602" d="M76 243Q43 284 76 325L172 440Q201 475 245 475Q275 475 280 454T262 402L164 284L262 166Q286 136 286 115T260 93H245Q201 93 172 128L76 243ZM292 243Q259 284 292 325L388 440Q416
475 460 475Q491 475 496 454T478 402L379 284L478 166Q501 136 501 115T476 93H460Q416 93 388 128L292 243Z" />
<glyph unicode="&#xac;" glyph-name="logicalnot" horiz-adv-x="851" d="M700 184Q657 184 657 243V412H145Q86 412 86 454Q86 497 145 497H683Q743 497 743 438V243Q743 184 700 184Z" />
<glyph unicode="&#xad;" glyph-name="uni00AD" horiz-adv-x="480" d="M118 194Q96 194 81 209T65 247Q65 269 80 284T118 300H362Q384 300 399 285T415 247Q415 225 400 210T362 194H118Z" />
<glyph unicode="&#xae;" glyph-name="registered" horiz-adv-x="743" d="M373 90Q309 90 253 114T154 181T87 280T63 400Q63 464 87 520T154 619T253 686T373 710Q437 710 493 686T592 619T659 520T683 400Q683 336 659 280T592 181T493 114T373 90ZM373 159Q440
159 494 191T581 279T614 400Q614 467 582 521T495 608T373 641Q307 641 252 609T165 522T132 400Q132 334 164 279T252 192T373 159ZM275 225Q247 225 247 254V575H411Q460 575 490 552T520 469Q520 421 501 397T449 365L499 258Q506 243 500 234T478 225H453Q429
225 420 248L374 362H320V254Q320 235 309 230T275 225ZM320 430H400Q419 430 431 438T444 469Q444 490 432 498T400 507H320V430Z" />
<glyph unicode="&#xaf;" glyph-name="overscore" horiz-adv-x="298" d="M266 649Q266 612 229 612H69Q32 612 32 649Q32 687 69 687H229Q266 687 266 649Z" />
<glyph unicode="&#xb0;" glyph-name="degree" horiz-adv-x="760" d="M137 542Q92 542 62 573T31 648Q31 692 61 723T137 755Q181 755 211 724T242 648Q242 605 212 574T137 542ZM137 589Q161 589 178 606T195 648Q195 673 178 690T136 707Q112 707 95 690T78 648Q78
624 95 607T137 589Z" />
<glyph unicode="&#xb1;" glyph-name="plusminus" horiz-adv-x="851" d="M426 166Q384 166 384 225V387H159Q100 387 100 429Q100 472 159 472H384V633Q384 692 426 692Q468 692 468 633V472H693Q721 472 736 461T752 429Q752 387 693 387H468V225Q468 166 426
166ZM159 30Q100 30 100 73Q100 115 159 115H693Q752 115 752 73Q752 30 693 30H159Z" />
<glyph unicode="&#xb2;" glyph-name="uni00B2" horiz-adv-x="324" d="M76 200Q17 200 17 227Q17 260 27 291T62 358T133 437Q165 466 190 497T217 553Q218 585 203 600T161 615Q131 615 120 591Q105 567 96 553T64 539Q43 539 31 556T29 603Q43 650 77 675T161
701Q226 701 267 662T307 545Q306 497 274 460T196 378Q179 362 161 344T131 309T115 283H238Q297 283 297 242Q297 200 238 200H76Z" />
<glyph unicode="&#xb3;" glyph-name="uni00B3" horiz-adv-x="371" d="M163 193Q91 193 51 242Q30 265 35 285T60 312Q81 319 94 315T120 299Q126 291 136 286T161 280Q192 280 211 294T230 346Q230 378 212 398T158 419Q116 419 116 460Q116 501 158 501Q190 501
204 519T218 564Q218 595 200 606T161 618Q148 618 140 608Q132 605 126 602T113 596Q102 589 92 586T67 588Q48 596 44 616T61 659Q104 705 163 705Q231 705 272 667T313 568Q313 533 294 504T245 462Q280 449 302 417T325 343Q325 273 281 233T163 193Z" />
<glyph unicode="&#xb4;" glyph-name="acute" horiz-adv-x="397" d="M161 548Q132 528 114 549Q97 569 122 594L276 747Q303 774 328 744L346 722Q372 693 340 670L161 548Z" />
<glyph unicode="&#xb5;" glyph-name="uni00B5" horiz-adv-x="521" d="M110 -180Q53 -180 53 -121L57 445Q57 474 72 489T116 504Q173 504 173 445L170 168Q171 128 193 109T253 90Q297 90 320 110T344 183V445Q344 504 403 504Q460 504 460 445L457 59Q457 0 412
0Q367 0 364 16L362 35Q345 14 322 2T264 -11Q208 -11 169 20L168 -121Q168 -149 154 -164T110 -180Z" />
<glyph unicode="&#xb6;" glyph-name="paragraph" horiz-adv-x="851" d="M406 -29Q378 -29 378 -1V380Q287 383 235 433T182 560Q182 613 207 653T277 717T385 740H624Q652 740 652 717Q652 694 624 694H588V-1Q588 -29 560 -29Q533 -29 533 -1V694H433V-1Q433
-29 406 -29Z" />
<glyph unicode="&#xb7;" glyph-name="middot" horiz-adv-x="258" d="M129 343Q98 343 76 365T53 418Q53 450 75 471T129 493Q160 493 182 472T205 418Q205 387 183 365T129 343Z" />
<glyph unicode="&#xb8;" glyph-name="cedilla" horiz-adv-x="466" d="M166 -189Q128 -189 128 -162Q128 -134 167 -133Q213 -131 230 -125T247 -106Q247 -84 195 -78Q153 -75 162 -41L165 -31Q172 0 204 0Q217 0 223 -4T228 -16L222 -32Q269 -37 299 -56T329 -106Q329
-149 286 -167T166 -189Z" />
<glyph unicode="&#xb9;" glyph-name="uni00B9" horiz-adv-x="307" d="M179 200Q134 200 134 259V581L102 560Q53 528 28 566Q5 605 55 637L121 677Q139 688 155 692T190 697Q224 697 224 638V259Q224 200 179 200Z" />
<glyph unicode="&#xba;" glyph-name="ordmasculine" horiz-adv-x="537" d="M268 282Q202 282 150 313T67 401T36 534Q36 610 66 666T149 754T268 786Q336 786 388 755T471 667T501 534Q501 458 471 402T389 314T268 282ZM268 384Q321 384 354 423T388 534Q388
606 355 645T268 684Q216 684 183 645T150 534Q150 462 183 423T268 384ZM147 370Q125 370 110 385T94 423Q94 445 109 460T147 476H391Q413 476 428 461T444 423Q444 401 429 386T391 370H147Z" />
<glyph unicode="&#xbb;" glyph-name="guillemotright" horiz-adv-x="602" d="M310 325Q343 284 310 243L214 128Q185 93 141 93Q111 93 106 114T124 166L222 284L124 402Q100 432 101 453T126 475H141Q185 475 214 440L310 325ZM525 325Q560 284 525 243L430 128Q401
93 357 93Q326 93 321 114T340 166L438 284L340 402Q316 432 316 453T341 475H357Q401 475 430 440L525 325Z" />
<glyph unicode="&#xbc;" glyph-name="onequarter" horiz-adv-x="845" d="M179 200Q134 200 134 259V581L102 560Q53 528 28 566Q5 605 55 637L121 677Q139 688 155 692T190 697Q224 697 224 638V259Q224 200 179 200ZM235 27Q201 -21 175 -3Q150 15 184 64L624
676Q659 725 685 705Q710 686 676 639L235 27ZM722 0Q679 0 679 45V102H547Q488 102 488 137Q488 155 492 171T508 205L656 459Q679 499 722 499Q765 499 765 440V180H793Q816 180 825 170T834 141Q834 102 802 102H765V47Q765 19 754 10T722 0ZM576 180H679V358L576
180Z" />
<glyph unicode="&#xbd;" glyph-name="onehalf" horiz-adv-x="874" d="M179 200Q134 200 134 259V581L102 560Q53 528 28 566Q5 605 55 637L121 677Q139 688 155 692T190 697Q224 697 224 638V259Q224 200 179 200ZM215 27Q181 -21 155 -3Q130 15 164 64L604 676Q639
725 665 705Q690 686 656 639L215 27ZM615 0Q556 0 556 27Q556 60 566 91T601 158T672 237Q704 266 729 297T756 353Q757 385 742 400T700 415Q670 415 659 391Q644 367 635 353T603 339Q582 339 570 356T568 403Q582 450 616 475T700 501Q765 501 806 462T846
345Q845 297 813 260T735 178Q718 162 700 144T670 109T654 83H777Q836 83 836 42Q836 0 777 0H615Z" />
<glyph unicode="&#xbe;" glyph-name="threequarters" horiz-adv-x="872" d="M163 193Q91 193 51 242Q30 265 35 285T60 312Q81 319 94 315T120 299Q126 291 136 286T161 280Q192 280 211 294T230 346Q230 378 212 398T158 419Q116 419 116 460Q116 501 158 501Q190
501 204 519T218 564Q218 595 200 606T161 618Q148 618 140 608Q132 605 126 602T113 596Q102 589 92 586T67 588Q48 596 44 616T61 659Q104 705 163 705Q231 705 272 667T313 568Q313 533 294 504T245 462Q280 449 302 417T325 343Q325 273 281 233T163 193ZM296
27Q262 -21 236 -3Q211 15 245 64L685 676Q720 725 746 705Q771 686 737 639L296 27ZM749 0Q706 0 706 45V102H574Q515 102 515 137Q515 155 519 171T535 205L683 459Q706 499 749 499Q792 499 792 440V180H820Q843 180 852 170T861 141Q861 102 829 102H792V47Q792
19 781 10T749 0ZM603 180H706V358L603 180Z" />
<glyph unicode="&#xbf;" glyph-name="questiondown" horiz-adv-x="496" d="M247 496Q289 496 295 440L301 349Q303 322 290 307T249 284Q205 272 181 249T157 184Q157 141 180 115T247 89Q301 89 326 130Q342 153 357 164T397 170Q432 165 443 145T444 101Q419
48 367 17T247 -14Q186 -14 138 9T63 77T36 184Q36 255 80 298T195 360L200 440Q203 496 247 496ZM247 712Q279 712 301 690T323 636Q323 605 301 583T247 561Q216 561 194 583T171 636Q171 668 193 690T247 712Z" />
<glyph unicode="&#xc0;" glyph-name="Agrave" horiz-adv-x="656" d="M75 0Q46 0 35 17T35 63L261 656Q276 700 324 700H332Q380 700 395 656L622 63Q633 34 622 17T581 0H562Q515 0 500 45L461 154H192L153 45Q138 0 91 0H75ZM230 261H424L328 534L230 261ZM420
768Q402 747 373 767L194 889Q162 912 187 941L206 963Q231 993 258 966L412 813Q438 787 420 768Z" />
<glyph unicode="&#xc1;" glyph-name="Aacute" horiz-adv-x="656" d="M75 0Q46 0 35 17T35 63L261 656Q276 700 324 700H332Q380 700 395 656L622 63Q633 34 622 17T581 0H562Q515 0 500 45L461 154H192L153 45Q138 0 91 0H75ZM230 261H424L328 534L230 261ZM285
767Q256 747 238 768Q221 788 246 813L400 966Q427 993 452 963L470 941Q496 912 464 889L285 767Z" />
<glyph unicode="&#xc2;" glyph-name="Acircumflex" horiz-adv-x="656" d="M75 0Q46 0 35 17T35 63L261 656Q276 700 324 700H332Q380 700 395 656L622 63Q633 34 622 17T581 0H562Q515 0 500 45L461 154H192L153 45Q138 0 91 0H75ZM230 261H424L328 534L230 261ZM275
923Q293 944 320 944H337Q365 944 382 923L470 823Q491 797 474 777Q457 757 428 777L329 851L228 777Q200 756 182 777Q165 798 187 823L275 923Z" />
<glyph unicode="&#xc3;" glyph-name="Atilde" horiz-adv-x="656" d="M75 0Q46 0 35 17T35 63L261 656Q276 700 324 700H332Q380 700 395 656L622 63Q633 34 622 17T581 0H562Q515 0 500 45L461 154H192L153 45Q138 0 91 0H75ZM230 261H424L328 534L230 261ZM231
830Q219 815 208 817T183 833Q157 858 176 884Q193 907 215 922T262 938Q287 938 310 924T355 896T393 882Q408 882 420 899Q437 917 449 916T475 901Q486 890 488 878T480 851Q464 826 441 812T393 797Q368 797 346 811T303 839T264 853Q254 853 246 847T231 830Z"
/>
<glyph unicode="&#xc4;" glyph-name="Adieresis" horiz-adv-x="656" d="M75 0Q46 0 35 17T35 63L261 656Q276 700 324 700H332Q380 700 395 656L622 63Q633 34 622 17T581 0H562Q515 0 500 45L461 154H192L153 45Q138 0 91 0H75ZM230 261H424L328 534L230 261ZM426
764Q401 764 383 782T365 825Q365 849 383 867T426 885Q450 885 468 867T486 825Q486 800 468 782T426 764ZM232 764Q208 764 190 782T172 825Q172 849 190 867T232 885Q257 885 275 867T293 825Q293 800 275 782T232 764Z" />
<glyph unicode="&#xc5;" glyph-name="Aring" horiz-adv-x="656" d="M75 0Q46 0 35 17T35 63L261 656Q276 700 324 700H332Q380 700 395 656L622 63Q633 34 622 17T581 0H562Q515 0 500 45L461 154H192L153 45Q138 0 91 0H75ZM230 261H424L328 534L230 261ZM329
739Q283 739 252 771T221 848Q221 893 252 924T329 956Q374 956 406 925T438 848Q438 803 406 771T329 739ZM329 795Q351 795 366 810T382 848Q382 869 367 884T329 900Q307 900 292 885T276 848Q276 826 291 811T329 795Z" />
<glyph unicode="&#xc6;" glyph-name="AE" horiz-adv-x="907" d="M73 0Q44 0 34 17T38 62L371 663Q390 700 432 700H808Q860 700 860 648V644Q860 593 808 593H556V411H777Q829 411 829 359V355Q829 303 777 303H556V107H819Q871 107 871 56V52Q871 0 819 0H492Q440
0 440 52V154H222L160 37Q141 0 99 0H73ZM279 261H440V563L279 261Z" />
<glyph unicode="&#xc7;" glyph-name="Ccedilla" horiz-adv-x="672" d="M364 -16Q269 -16 195 29T78 156T36 350Q36 462 78 544T194 672T364 718Q435 718 494 692T598 619Q618 597 611 575T584 540L579 537Q566 529 542 531T498 552Q472 578 439 591T364 605Q302
605 255 574T183 485T157 350Q157 274 182 217T255 128T364 96Q443 96 498 149Q518 168 539 171T579 165L581 163Q602 153 610 130T600 84Q556 36 496 10T364 -16ZM312 -189Q274 -189 274 -162Q274 -134 313 -133Q359 -131 376 -125T393 -106Q393 -84 341 -78Q299
-75 308 -41L311 -31Q318 0 350 0Q363 0 369 -4T374 -16L368 -32Q415 -37 445 -56T475 -106Q475 -149 432 -167T312 -189Z" />
<glyph unicode="&#xc8;" glyph-name="Egrave" horiz-adv-x="586" d="M130 0Q71 0 71 59V641Q71 700 130 700H480Q539 700 539 646Q539 593 480 593H186V411H449Q508 411 508 357Q508 303 449 303H186V107H491Q550 107 550 54Q550 0 491 0H130ZM384 768Q366 747
337 767L158 889Q126 912 151 941L170 963Q195 993 222 966L376 813Q402 787 384 768Z" />
<glyph unicode="&#xc9;" glyph-name="Eacute" horiz-adv-x="586" d="M130 0Q71 0 71 59V641Q71 700 130 700H480Q539 700 539 646Q539 593 480 593H186V411H449Q508 411 508 357Q508 303 449 303H186V107H491Q550 107 550 54Q550 0 491 0H130ZM249 767Q220 747
202 768Q185 788 210 813L364 966Q391 993 416 963L434 941Q460 912 428 889L249 767Z" />
<glyph unicode="&#xca;" glyph-name="Ecircumflex" horiz-adv-x="586" d="M130 0Q71 0 71 59V641Q71 700 130 700H480Q539 700 539 646Q539 593 480 593H186V411H449Q508 411 508 357Q508 303 449 303H186V107H491Q550 107 550 54Q550 0 491 0H130ZM239 923Q257
944 284 944H301Q329 944 346 923L434 823Q455 797 438 777Q421 757 392 777L293 851L192 777Q164 756 146 777Q129 798 151 823L239 923Z" />
<glyph unicode="&#xcb;" glyph-name="Edieresis" horiz-adv-x="586" d="M130 0Q71 0 71 59V641Q71 700 130 700H480Q539 700 539 646Q539 593 480 593H186V411H449Q508 411 508 357Q508 303 449 303H186V107H491Q550 107 550 54Q550 0 491 0H130ZM390 764Q365
764 347 782T329 825Q329 849 347 867T390 885Q414 885 432 867T450 825Q450 800 432 782T390 764ZM196 764Q172 764 154 782T136 825Q136 849 154 867T196 885Q221 885 239 867T257 825Q257 800 239 782T196 764Z" />
<glyph unicode="&#xcc;" glyph-name="Igrave" horiz-adv-x="257" d="M128 0Q71 0 71 59V641Q71 700 128 700Q186 700 186 641V59Q186 0 128 0ZM219 768Q201 747 172 767L-7 889Q-39 912 -14 941L5 963Q30 993 57 966L211 813Q237 787 219 768Z" />
<glyph unicode="&#xcd;" glyph-name="Iacute" horiz-adv-x="257" d="M128 0Q71 0 71 59V641Q71 700 128 700Q186 700 186 641V59Q186 0 128 0ZM84 767Q55 747 37 768Q20 788 45 813L199 966Q226 993 251 963L269 941Q295 912 263 889L84 767Z" />
<glyph unicode="&#xce;" glyph-name="Icircumflex" horiz-adv-x="257" d="M128 0Q71 0 71 59V641Q71 700 128 700Q186 700 186 641V59Q186 0 128 0ZM74 923Q92 944 119 944H136Q164 944 181 923L269 823Q290 797 273 777Q256 757 227 777L128 851L27 777Q-1 756
-19 777Q-36 798 -14 823L74 923Z" />
<glyph unicode="&#xcf;" glyph-name="Idieresis" horiz-adv-x="257" d="M128 0Q71 0 71 59V641Q71 700 128 700Q186 700 186 641V59Q186 0 128 0ZM225 764Q200 764 182 782T164 825Q164 849 182 867T225 885Q249 885 267 867T285 825Q285 800 267 782T225 764ZM31
764Q7 764 -11 782T-29 825Q-29 849 -11 867T31 885Q56 885 74 867T92 825Q92 800 74 782T31 764Z" />
<glyph unicode="&#xd0;" glyph-name="Eth" horiz-adv-x="673" d="M130 0Q71 0 71 59V296H64Q4 296 4 350Q4 404 64 404H71V641Q71 700 130 700H296Q401 700 477 661T595 544T637 350Q637 235 596 157T478 40T296 0H130ZM186 107H287Q395 107 455 169T516 350Q516
469 456 531T287 593H186V404H264Q323 404 323 350Q323 296 264 296H186V107Z" />
<glyph unicode="&#xd1;" glyph-name="Ntilde" horiz-adv-x="703" d="M128 0Q71 0 71 59V641Q71 700 128 700H141Q186 700 212 661L516 203V641Q516 670 531 685T575 700Q633 700 633 641V59Q633 0 578 0H568Q522 0 497 39L186 511V59Q186 0 128 0ZM254 830Q242
815 231 817T206 833Q180 858 199 884Q216 907 238 922T285 938Q310 938 333 924T378 896T416 882Q431 882 443 899Q460 917 472 916T498 901Q509 890 511 878T503 851Q487 826 464 812T416 797Q391 797 369 811T326 839T287 853Q277 853 269 847T254 830Z" />
<glyph unicode="&#xd2;" glyph-name="Ograve" horiz-adv-x="727" d="M364 -16Q269 -16 195 29T78 156T36 350Q36 462 78 544T194 672T364 718Q459 718 532 673T648 545T691 350Q691 239 649 157T533 29T364 -16ZM364 96Q427 96 473 127T544 216T570 350Q570 427
545 484T473 573T364 605Q302 605 255 574T183 485T157 350Q157 274 182 217T255 128T364 96ZM455 768Q437 747 408 767L229 889Q197 912 222 941L241 963Q266 993 293 966L447 813Q473 787 455 768Z" />
<glyph unicode="&#xd3;" glyph-name="Oacute" horiz-adv-x="727" d="M364 -16Q269 -16 195 29T78 156T36 350Q36 462 78 544T194 672T364 718Q459 718 532 673T648 545T691 350Q691 239 649 157T533 29T364 -16ZM364 96Q427 96 473 127T544 216T570 350Q570 427
545 484T473 573T364 605Q302 605 255 574T183 485T157 350Q157 274 182 217T255 128T364 96ZM320 767Q291 747 273 768Q256 788 281 813L435 966Q462 993 487 963L505 941Q531 912 499 889L320 767Z" />
<glyph unicode="&#xd4;" glyph-name="Ocircumflex" horiz-adv-x="727" d="M364 -16Q269 -16 195 29T78 156T36 350Q36 462 78 544T194 672T364 718Q459 718 532 673T648 545T691 350Q691 239 649 157T533 29T364 -16ZM364 96Q427 96 473 127T544 216T570 350Q570
427 545 484T473 573T364 605Q302 605 255 574T183 485T157 350Q157 274 182 217T255 128T364 96ZM310 923Q328 944 355 944H372Q400 944 417 923L505 823Q526 797 509 777Q492 757 463 777L364 851L263 777Q235 756 217 777Q200 798 222 823L310 923Z" />
<glyph unicode="&#xd5;" glyph-name="Otilde" horiz-adv-x="727" d="M364 -16Q269 -16 195 29T78 156T36 350Q36 462 78 544T194 672T364 718Q459 718 532 673T648 545T691 350Q691 239 649 157T533 29T364 -16ZM364 96Q427 96 473 127T544 216T570 350Q570 427
545 484T473 573T364 605Q302 605 255 574T183 485T157 350Q157 274 182 217T255 128T364 96ZM266 830Q254 815 243 817T218 833Q192 858 211 884Q228 907 250 922T297 938Q322 938 345 924T390 896T428 882Q443 882 455 899Q472 917 484 916T510 901Q521 890 523
878T515 851Q499 826 476 812T428 797Q403 797 381 811T338 839T299 853Q289 853 281 847T266 830Z" />
<glyph unicode="&#xd6;" glyph-name="Odieresis" horiz-adv-x="727" d="M364 -16Q269 -16 195 29T78 156T36 350Q36 462 78 544T194 672T364 718Q459 718 532 673T648 545T691 350Q691 239 649 157T533 29T364 -16ZM364 96Q427 96 473 127T544 216T570 350Q570
427 545 484T473 573T364 605Q302 605 255 574T183 485T157 350Q157 274 182 217T255 128T364 96ZM461 764Q436 764 418 782T400 825Q400 849 418 867T461 885Q485 885 503 867T521 825Q521 800 503 782T461 764ZM267 764Q243 764 225 782T207 825Q207 849 225
867T267 885Q292 885 310 867T328 825Q328 800 310 782T267 764Z" />
<glyph unicode="&#xd7;" glyph-name="multiply" horiz-adv-x="851" d="M227 97Q185 56 156 85Q127 115 168 156L367 355L168 554Q126 596 156 625Q185 654 227 612L426 413L626 613Q668 655 697 625Q726 596 684 554L485 355L683 156Q725 114 696 85Q668 57 625
98L426 296L227 97Z" />
<glyph unicode="&#xd8;" glyph-name="Oslash" horiz-adv-x="727" d="M364 -16Q293 -16 232 10L228 3Q201 -51 169 -34Q137 -16 163 36L168 47Q107 94 72 171T36 350Q36 462 78 544T194 672T364 718Q436 718 497 691L500 697Q513 723 528 732T559 733Q590 716 564
664L559 654Q620 607 655 530T691 350Q691 239 649 157T533 29T364 -16ZM223 154L445 589Q408 605 364 605Q302 605 255 574T183 485T157 350Q157 288 174 238T223 154ZM364 96Q427 96 473 127T544 216T570 350Q570 413 553 463T504 546L283 112Q320 96 364 96Z"
/>
<glyph unicode="&#xd9;" glyph-name="Ugrave" horiz-adv-x="660" d="M330 -13Q199 -13 130 56T61 265V641Q61 670 76 685T120 700Q178 700 178 641V271Q178 181 218 141T330 100Q401 100 441 140T481 271V641Q481 700 539 700Q597 700 597 641V265Q597 126 529
57T330 -13ZM421 768Q403 747 374 767L195 889Q163 912 188 941L207 963Q232 993 259 966L413 813Q439 787 421 768Z" />
<glyph unicode="&#xda;" glyph-name="Uacute" horiz-adv-x="660" d="M330 -13Q199 -13 130 56T61 265V641Q61 670 76 685T120 700Q178 700 178 641V271Q178 181 218 141T330 100Q401 100 441 140T481 271V641Q481 700 539 700Q597 700 597 641V265Q597 126 529
57T330 -13ZM286 767Q257 747 239 768Q222 788 247 813L401 966Q428 993 453 963L471 941Q497 912 465 889L286 767Z" />
<glyph unicode="&#xdb;" glyph-name="Ucircumflex" horiz-adv-x="660" d="M330 -13Q199 -13 130 56T61 265V641Q61 670 76 685T120 700Q178 700 178 641V271Q178 181 218 141T330 100Q401 100 441 140T481 271V641Q481 700 539 700Q597 700 597 641V265Q597 126
529 57T330 -13ZM276 923Q294 944 321 944H338Q366 944 383 923L471 823Q492 797 475 777Q458 757 429 777L330 851L229 777Q201 756 183 777Q166 798 188 823L276 923Z" />
<glyph unicode="&#xdc;" glyph-name="Udieresis" horiz-adv-x="660" d="M330 -13Q199 -13 130 56T61 265V641Q61 670 76 685T120 700Q178 700 178 641V271Q178 181 218 141T330 100Q401 100 441 140T481 271V641Q481 700 539 700Q597 700 597 641V265Q597 126
529 57T330 -13ZM427 764Q402 764 384 782T366 825Q366 849 384 867T427 885Q451 885 469 867T487 825Q487 800 469 782T427 764ZM233 764Q209 764 191 782T173 825Q173 849 191 867T233 885Q258 885 276 867T294 825Q294 800 276 782T233 764Z" />
<glyph unicode="&#xdd;" glyph-name="Yacute" horiz-adv-x="626" d="M314 0Q255 0 255 59V297L61 629Q40 664 53 682T107 700Q154 700 177 659L314 423L449 659Q473 700 520 700Q561 700 572 680T566 629L372 297V59Q372 0 314 0ZM270 767Q241 747 223 768Q206
788 231 813L385 966Q412 993 437 963L455 941Q481 912 449 889L270 767Z" />
<glyph unicode="&#xde;" glyph-name="Thorn" horiz-adv-x="631" d="M128 0Q71 0 71 59V641Q71 700 128 700Q186 700 186 641V552H391Q489 552 546 506T604 351Q604 242 547 195T391 148H186V59Q186 0 128 0ZM186 256H375Q426 256 454 278T482 351Q482 401 454
423T375 445H186V256Z" />
<glyph unicode="&#xdf;" glyph-name="germandbls" horiz-adv-x="698" d="M475 -10Q434 -10 396 2T326 42Q308 57 308 76T324 112L325 113Q342 132 358 131T395 115Q433 88 481 88Q516 88 538 103T560 157Q560 176 553 188T529 212T481 247Q456 265 434 280T398
319T384 381Q384 408 394 429T417 467T440 503T450 545Q450 581 420 602T342 624Q290 624 257 598T223 513V50Q223 0 173 0H161Q111 0 111 50V384H70Q20 384 20 433Q20 481 70 481H111V527Q111 617 169 670T336 724Q449 724 504 679T560 564Q560 538 550 516T526
473T503 435T492 401Q492 384 502 371T539 340Q579 314 608 290T653 235T670 158Q670 76 616 33T475 -10Z" />
<glyph unicode="&#xe0;" glyph-name="agrave" horiz-adv-x="534" d="M219 -7Q141 -10 91 27T40 134Q40 185 71 221T151 277T252 299Q278 301 301 295T342 278V320Q342 367 322 381T263 395Q235 395 205 388T145 369Q119 358 101 361T70 385Q58 406 64 425T98 456Q134
473 176 483T263 493Q356 493 403 456T450 320V99Q450 89 452 83T457 74Q466 61 476 59T495 57T503 47Q503 29 494 16T462 -2Q439 -7 417 -7Q386 -7 370 3T346 39Q321 18 288 7T219 -7ZM217 91Q273 93 309 113T344 170Q343 194 320 203T261 210Q212 209 180 186T149
133Q151 88 217 91ZM333 549Q315 528 286 548L107 670Q75 693 100 722L119 744Q144 774 171 747L325 594Q351 568 333 549Z" />
<glyph unicode="&#xe1;" glyph-name="aacute" horiz-adv-x="534" d="M219 -7Q141 -10 91 27T40 134Q40 185 71 221T151 277T252 299Q278 301 301 295T342 278V320Q342 367 322 381T263 395Q235 395 205 388T145 369Q119 358 101 361T70 385Q58 406 64 425T98 456Q134
473 176 483T263 493Q356 493 403 456T450 320V99Q450 89 452 83T457 74Q466 61 476 59T495 57T503 47Q503 29 494 16T462 -2Q439 -7 417 -7Q386 -7 370 3T346 39Q321 18 288 7T219 -7ZM217 91Q273 93 309 113T344 170Q343 194 320 203T261 210Q212 209 180 186T149
133Q151 88 217 91ZM198 548Q169 528 151 549Q134 569 159 594L313 747Q340 774 365 744L383 722Q409 693 377 670L198 548Z" />
<glyph unicode="&#xe2;" glyph-name="acircumflex" horiz-adv-x="534" d="M219 -7Q141 -10 91 27T40 134Q40 185 71 221T151 277T252 299Q278 301 301 295T342 278V320Q342 367 322 381T263 395Q235 395 205 388T145 369Q119 358 101 361T70 385Q58 406 64 425T98
456Q134 473 176 483T263 493Q356 493 403 456T450 320V99Q450 89 452 83T457 74Q466 61 476 59T495 57T503 47Q503 29 494 16T462 -2Q439 -7 417 -7Q386 -7 370 3T346 39Q321 18 288 7T219 -7ZM217 91Q273 93 309 113T344 170Q343 194 320 203T261 210Q212 209
180 186T149 133Q151 88 217 91ZM188 704Q206 725 233 725H250Q278 725 295 704L383 604Q404 578 387 558Q370 538 341 558L242 632L141 558Q113 537 95 558Q78 579 100 604L188 704Z" />
<glyph unicode="&#xe3;" glyph-name="atilde" horiz-adv-x="534" d="M219 -7Q141 -10 91 27T40 134Q40 185 71 221T151 277T252 299Q278 301 301 295T342 278V320Q342 367 322 381T263 395Q235 395 205 388T145 369Q119 358 101 361T70 385Q58 406 64 425T98 456Q134
473 176 483T263 493Q356 493 403 456T450 320V99Q450 89 452 83T457 74Q466 61 476 59T495 57T503 47Q503 29 494 16T462 -2Q439 -7 417 -7Q386 -7 370 3T346 39Q321 18 288 7T219 -7ZM217 91Q273 93 309 113T344 170Q343 194 320 203T261 210Q212 209 180 186T149
133Q151 88 217 91ZM144 611Q132 596 121 598T96 614Q70 639 89 665Q106 688 128 703T175 719Q200 719 223 705T268 677T306 663Q321 663 333 680Q350 698 362 697T388 682Q399 671 401 659T393 632Q377 607 354 593T306 578Q281 578 259 592T216 620T177 634Q167
634 159 628T144 611Z" />
<glyph unicode="&#xe4;" glyph-name="adieresis" horiz-adv-x="534" d="M219 -7Q141 -10 91 27T40 134Q40 185 71 221T151 277T252 299Q278 301 301 295T342 278V320Q342 367 322 381T263 395Q235 395 205 388T145 369Q119 358 101 361T70 385Q58 406 64 425T98
456Q134 473 176 483T263 493Q356 493 403 456T450 320V99Q450 89 452 83T457 74Q466 61 476 59T495 57T503 47Q503 29 494 16T462 -2Q439 -7 417 -7Q386 -7 370 3T346 39Q321 18 288 7T219 -7ZM217 91Q273 93 309 113T344 170Q343 194 320 203T261 210Q212 209
180 186T149 133Q151 88 217 91ZM339 545Q314 545 296 563T278 606Q278 630 296 648T339 666Q363 666 381 648T399 606Q399 581 381 563T339 545ZM145 545Q121 545 103 563T85 606Q85 630 103 648T145 666Q170 666 188 648T206 606Q206 581 188 563T145 545Z" />
<glyph unicode="&#xe5;" glyph-name="aring" horiz-adv-x="534" d="M219 -7Q141 -10 91 27T40 134Q40 185 71 221T151 277T252 299Q278 301 301 295T342 278V320Q342 367 322 381T263 395Q235 395 205 388T145 369Q119 358 101 361T70 385Q58 406 64 425T98 456Q134
473 176 483T263 493Q356 493 403 456T450 320V99Q450 89 452 83T457 74Q466 61 476 59T495 57T503 47Q503 29 494 16T462 -2Q439 -7 417 -7Q386 -7 370 3T346 39Q321 18 288 7T219 -7ZM217 91Q273 93 309 113T344 170Q343 194 320 203T261 210Q212 209 180 186T149
133Q151 88 217 91ZM242 520Q196 520 165 552T134 629Q134 674 165 705T242 737Q287 737 319 706T351 629Q351 584 319 552T242 520ZM242 576Q264 576 279 591T295 629Q295 650 280 665T242 681Q220 681 205 666T189 629Q189 607 204 592T242 576Z" />
<glyph unicode="&#xe6;" glyph-name="ae" horiz-adv-x="829" d="M219 -7Q141 -10 91 27T40 134Q40 185 71 221T151 277T252 299Q278 301 301 295T342 278V320Q342 367 322 381T263 395Q235 395 205 388T145 369Q119 358 101 361T70 385Q58 406 64 425T98 456Q134
473 176 483T263 493Q319 493 358 481T420 437Q481 493 573 493Q640 493 687 461T759 372T784 246Q784 220 725 220H455Q459 148 493 118T581 87Q643 87 677 129Q697 150 714 156T752 149Q772 135 774 113T756 67Q722 26 678 8T579 -11Q520 -11 473 9T395 69Q357
32 313 14T219 -7ZM217 91Q273 93 309 113T344 170Q343 194 320 203T261 210Q212 209 180 186T149 133Q151 88 217 91ZM460 307H674Q665 354 639 379T572 405Q480 405 460 307Z" />
<glyph unicode="&#xe7;" glyph-name="ccedilla" horiz-adv-x="491" d="M268 -11Q202 -11 150 20T67 108T36 241Q36 317 66 373T149 461T268 493Q354 493 412 445Q436 427 434 405T410 367Q388 352 373 354T332 372Q304 391 268 391Q216 391 183 352T150 241Q150
169 183 130T268 91Q305 91 330 109Q353 123 370 127T409 116Q431 100 434 79T414 39Q353 -11 268 -11ZM218 -189Q180 -189 180 -162Q180 -134 219 -133Q265 -131 282 -125T299 -106Q299 -84 247 -78Q205 -75 214 -41L217 -31Q224 0 256 0Q269 0 275 -4T280 -16L274
-32Q321 -37 351 -56T381 -106Q381 -149 338 -167T218 -189Z" />
<glyph unicode="&#xe8;" glyph-name="egrave" horiz-adv-x="521" d="M271 -11Q166 -11 101 52T36 241Q36 319 65 375T146 462T265 493Q332 493 379 462T451 382T476 280Q476 243 461 232T417 220H147Q151 148 185 118T273 87Q334 87 368 129Q388 150 405 156T443
149Q463 135 466 113T448 67Q414 26 370 8T271 -11ZM152 307H365Q357 354 331 379T263 405Q219 405 191 381T152 307ZM351 549Q333 528 304 548L125 670Q93 693 118 722L137 744Q162 774 189 747L343 594Q369 568 351 549Z" />
<glyph unicode="&#xe9;" glyph-name="eacute" horiz-adv-x="521" d="M271 -11Q166 -11 101 52T36 241Q36 319 65 375T146 462T265 493Q332 493 379 462T451 382T476 280Q476 243 461 232T417 220H147Q151 148 185 118T273 87Q334 87 368 129Q388 150 405 156T443
149Q463 135 466 113T448 67Q414 26 370 8T271 -11ZM152 307H365Q357 354 331 379T263 405Q219 405 191 381T152 307ZM216 548Q187 528 169 549Q152 569 177 594L331 747Q358 774 383 744L401 722Q427 693 395 670L216 548Z" />
<glyph unicode="&#xea;" glyph-name="ecircumflex" horiz-adv-x="521" d="M271 -11Q166 -11 101 52T36 241Q36 319 65 375T146 462T265 493Q332 493 379 462T451 382T476 280Q476 243 461 232T417 220H147Q151 148 185 118T273 87Q334 87 368 129Q388 150 405
156T443 149Q463 135 466 113T448 67Q414 26 370 8T271 -11ZM152 307H365Q357 354 331 379T263 405Q219 405 191 381T152 307ZM206 704Q224 725 251 725H268Q296 725 313 704L401 604Q422 578 405 558Q388 538 359 558L260 632L159 558Q131 537 113 558Q96 579
118 604L206 704Z" />
<glyph unicode="&#xeb;" glyph-name="edieresis" horiz-adv-x="521" d="M271 -11Q166 -11 101 52T36 241Q36 319 65 375T146 462T265 493Q332 493 379 462T451 382T476 280Q476 243 461 232T417 220H147Q151 148 185 118T273 87Q334 87 368 129Q388 150 405 156T443
149Q463 135 466 113T448 67Q414 26 370 8T271 -11ZM152 307H365Q357 354 331 379T263 405Q219 405 191 381T152 307ZM357 545Q332 545 314 563T296 606Q296 630 314 648T357 666Q381 666 399 648T417 606Q417 581 399 563T357 545ZM163 545Q139 545 121 563T103
606Q103 630 121 648T163 666Q188 666 206 648T224 606Q224 581 206 563T163 545Z" />
<glyph unicode="&#xec;" glyph-name="igrave" horiz-adv-x="264" d="M133 0Q77 0 77 59V422Q77 481 133 481Q189 481 189 422V59Q189 0 133 0ZM479 549Q461 528 432 548L253 670Q221 693 246 722L265 744Q290 774 317 747L471 594Q497 568 479 549Z" />
<glyph unicode="&#xed;" glyph-name="iacute" horiz-adv-x="264" d="M133 0Q77 0 77 59V422Q77 481 133 481Q189 481 189 422V59Q189 0 133 0ZM344 548Q315 528 297 549Q280 569 305 594L459 747Q486 774 511 744L529 722Q555 693 523 670L344 548Z" />
<glyph unicode="&#xee;" glyph-name="icircumflex" horiz-adv-x="264" d="M133 0Q77 0 77 59V422Q77 481 133 481Q189 481 189 422V59Q189 0 133 0ZM334 704Q352 725 379 725H396Q424 725 441 704L529 604Q550 578 533 558Q516 538 487 558L388 632L287 558Q259
537 241 558Q224 579 246 604L334 704Z" />
<glyph unicode="&#xef;" glyph-name="idieresis" horiz-adv-x="264" d="M133 0Q77 0 77 59V422Q77 481 133 481Q189 481 189 422V59Q189 0 133 0ZM485 545Q460 545 442 563T424 606Q424 630 442 648T485 666Q509 666 527 648T545 606Q545 581 527 563T485 545ZM291
545Q267 545 249 563T231 606Q231 630 249 648T291 666Q316 666 334 648T352 606Q352 581 334 563T291 545Z" />
<glyph unicode="&#xf0;" glyph-name="eth" horiz-adv-x="537" d="M268 -11Q202 -11 150 20T67 108T36 241Q36 317 66 371T149 455T268 485Q290 485 311 482Q281 520 240 555L209 524Q167 482 134 514Q102 547 144 589L164 609Q158 612 153 615Q127 630 120 649T128
688Q162 730 209 706Q226 697 242 687L270 715Q312 757 344 725Q377 692 335 650L318 633Q385 576 435 494T497 303Q498 296 497 289Q501 266 501 241Q501 165 471 109T389 21T268 -11ZM268 91Q321 91 354 130T388 241Q388 313 355 352T268 391Q216 391 183 352T150
241Q150 169 183 130T268 91Z" />
<glyph unicode="&#xf1;" glyph-name="ntilde" horiz-adv-x="531" d="M118 0Q61 0 61 59V422Q61 481 112 481Q163 481 165 455L168 424Q188 452 221 472T299 493Q374 493 421 445T469 304V59Q469 0 413 0Q356 0 356 59V277Q356 334 333 362T271 391Q228 391 201
362T174 274V59Q174 0 118 0ZM168 611Q156 596 145 598T120 614Q94 639 113 665Q130 688 152 703T199 719Q224 719 247 705T292 677T330 663Q345 663 357 680Q374 698 386 697T412 682Q423 671 425 659T417 632Q401 607 378 593T330 578Q305 578 283 592T240 620T201
634Q191 634 183 628T168 611Z" />
<glyph unicode="&#xf2;" glyph-name="ograve" horiz-adv-x="537" d="M268 -11Q202 -11 150 20T67 108T36 241Q36 317 66 373T149 461T268 493Q336 493 388 462T471 374T501 241Q501 165 471 109T389 21T268 -11ZM268 91Q321 91 354 130T388 241Q388 313 355 352T268
391Q216 391 183 352T150 241Q150 169 183 130T268 91ZM360 549Q342 528 313 548L134 670Q102 693 127 722L146 744Q171 774 198 747L352 594Q378 568 360 549Z" />
<glyph unicode="&#xf3;" glyph-name="oacute" horiz-adv-x="537" d="M268 -11Q202 -11 150 20T67 108T36 241Q36 317 66 373T149 461T268 493Q336 493 388 462T471 374T501 241Q501 165 471 109T389 21T268 -11ZM268 91Q321 91 354 130T388 241Q388 313 355 352T268
391Q216 391 183 352T150 241Q150 169 183 130T268 91ZM225 548Q196 528 178 549Q161 569 186 594L340 747Q367 774 392 744L410 722Q436 693 404 670L225 548Z" />
<glyph unicode="&#xf4;" glyph-name="ocircumflex" horiz-adv-x="537" d="M268 -11Q202 -11 150 20T67 108T36 241Q36 317 66 373T149 461T268 493Q336 493 388 462T471 374T501 241Q501 165 471 109T389 21T268 -11ZM268 91Q321 91 354 130T388 241Q388 313 355
352T268 391Q216 391 183 352T150 241Q150 169 183 130T268 91ZM215 704Q233 725 260 725H277Q305 725 322 704L410 604Q431 578 414 558Q397 538 368 558L269 632L168 558Q140 537 122 558Q105 579 127 604L215 704Z" />
<glyph unicode="&#xf5;" glyph-name="otilde" horiz-adv-x="537" d="M268 -11Q202 -11 150 20T67 108T36 241Q36 317 66 373T149 461T268 493Q336 493 388 462T471 374T501 241Q501 165 471 109T389 21T268 -11ZM268 91Q321 91 354 130T388 241Q388 313 355 352T268
391Q216 391 183 352T150 241Q150 169 183 130T268 91ZM171 611Q159 596 148 598T123 614Q97 639 116 665Q133 688 155 703T202 719Q227 719 250 705T295 677T333 663Q348 663 360 680Q377 698 389 697T415 682Q426 671 428 659T420 632Q404 607 381 593T333 578Q308
578 286 592T243 620T204 634Q194 634 186 628T171 611Z" />
<glyph unicode="&#xf6;" glyph-name="odieresis" horiz-adv-x="537" d="M268 -11Q202 -11 150 20T67 108T36 241Q36 317 66 373T149 461T268 493Q336 493 388 462T471 374T501 241Q501 165 471 109T389 21T268 -11ZM268 91Q321 91 354 130T388 241Q388 313 355
352T268 391Q216 391 183 352T150 241Q150 169 183 130T268 91ZM366 545Q341 545 323 563T305 606Q305 630 323 648T366 666Q390 666 408 648T426 606Q426 581 408 563T366 545ZM172 545Q148 545 130 563T112 606Q112 630 130 648T172 666Q197 666 215 648T233
606Q233 581 215 563T172 545Z" />
<glyph unicode="&#xf7;" glyph-name="divide" horiz-adv-x="851" d="M159 313Q100 313 100 356Q100 398 159 398H693Q752 398 752 356Q752 313 693 313H159ZM426 55Q395 55 373 77T350 131Q350 163 372 185T426 208Q458 208 479 186T501 131Q501 100 480 78T426
55ZM426 504Q395 504 373 526T350 579Q350 611 372 633T426 655Q458 655 479 633T501 579Q501 548 480 526T426 504Z" />
<glyph unicode="&#xf8;" glyph-name="oslash" horiz-adv-x="537" d="M268 -11Q216 -11 172 9Q145 -33 118 -19Q92 -3 117 43Q80 76 58 126T36 241Q36 317 66 373T149 461T268 493Q321 493 366 473Q394 516 418 501Q444 485 419 439Q458 406 479 356T501 241Q501
165 471 109T389 21T268 -11ZM268 91Q321 91 354 130T388 241Q388 301 363 340L224 99Q244 91 268 91ZM174 142L313 382Q292 391 268 391Q216 391 183 352T150 241Q150 181 174 142Z" />
<glyph unicode="&#xf9;" glyph-name="ugrave" horiz-adv-x="522" d="M223 -11Q148 -11 101 37T53 179V422Q53 481 109 481Q166 481 166 422V204Q166 149 189 120T251 91Q294 91 321 121T348 209V422Q348 481 405 481Q461 481 461 422V59Q461 31 448 16T410 0Q360
0 358 26L354 57Q335 30 302 10T223 -11ZM353 549Q335 528 306 548L127 670Q95 693 120 722L139 744Q164 774 191 747L345 594Q371 568 353 549Z" />
<glyph unicode="&#xfa;" glyph-name="uacute" horiz-adv-x="522" d="M223 -11Q148 -11 101 37T53 179V422Q53 481 109 481Q166 481 166 422V204Q166 149 189 120T251 91Q294 91 321 121T348 209V422Q348 481 405 481Q461 481 461 422V59Q461 31 448 16T410 0Q360
0 358 26L354 57Q335 30 302 10T223 -11ZM218 548Q189 528 171 549Q154 569 179 594L333 747Q360 774 385 744L403 722Q429 693 397 670L218 548Z" />
<glyph unicode="&#xfb;" glyph-name="ucircumflex" horiz-adv-x="522" d="M223 -11Q148 -11 101 37T53 179V422Q53 481 109 481Q166 481 166 422V204Q166 149 189 120T251 91Q294 91 321 121T348 209V422Q348 481 405 481Q461 481 461 422V59Q461 31 448 16T410
0Q360 0 358 26L354 57Q335 30 302 10T223 -11ZM208 704Q226 725 253 725H270Q298 725 315 704L403 604Q424 578 407 558Q390 538 361 558L262 632L161 558Q133 537 115 558Q98 579 120 604L208 704Z" />
<glyph unicode="&#xfc;" glyph-name="udieresis" horiz-adv-x="522" d="M223 -11Q148 -11 101 37T53 179V422Q53 481 109 481Q166 481 166 422V204Q166 149 189 120T251 91Q294 91 321 121T348 209V422Q348 481 405 481Q461 481 461 422V59Q461 31 448 16T410
0Q360 0 358 26L354 57Q335 30 302 10T223 -11ZM359 545Q334 545 316 563T298 606Q298 630 316 648T359 666Q383 666 401 648T419 606Q419 581 401 563T359 545ZM165 545Q141 545 123 563T105 606Q105 630 123 648T165 666Q190 666 208 648T226 606Q226 581 208
563T165 545Z" />
<glyph unicode="&#xfd;" glyph-name="yacute" horiz-adv-x="500" d="M121 -199H94Q66 -197 52 -182T38 -141Q38 -91 72 -96Q82 -97 91 -97T109 -98Q136 -98 149 -92T171 -72T189 -34L202 1L39 413Q27 445 36 463T71 481H78Q129 481 145 434L251 136L350 433Q367
481 417 481Q446 481 457 463T457 413L285 -67Q261 -133 227 -166T121 -199ZM207 548Q178 528 160 549Q143 569 168 594L322 747Q349 774 374 744L392 722Q418 693 386 670L207 548Z" />
<glyph unicode="&#xfe;" glyph-name="thorn" horiz-adv-x="567" d="M118 -197Q61 -197 61 -138V641Q61 700 118 700Q174 700 174 641V438Q198 464 230 478T299 493Q366 493 418 463T501 377T531 241Q531 162 501 106T419 19T299 -11Q262 -11 230 3T174 44V-138Q174
-166 160 -181T118 -197ZM295 91Q348 91 383 130T418 241Q418 313 383 352T295 391Q242 391 207 352T172 241Q172 169 207 130T295 91Z" />
<glyph unicode="&#xff;" glyph-name="ydieresis" horiz-adv-x="500" d="M121 -199H94Q66 -197 52 -182T38 -141Q38 -91 72 -96Q82 -97 91 -97T109 -98Q136 -98 149 -92T171 -72T189 -34L202 1L39 413Q27 445 36 463T71 481H78Q129 481 145 434L251 136L350 433Q367
481 417 481Q446 481 457 463T457 413L285 -67Q261 -133 227 -166T121 -199ZM348 545Q323 545 305 563T287 606Q287 630 305 648T348 666Q372 666 390 648T408 606Q408 581 390 563T348 545ZM154 545Q130 545 112 563T94 606Q94 630 112 648T154 666Q179 666 197
648T215 606Q215 581 197 563T154 545Z" />
<glyph unicode="&#x2013;" glyph-name="endash" horiz-adv-x="531" d="M118 194Q96 194 81 209T65 247Q65 269 80 284T118 300H413Q435 300 450 285T466 247Q466 225 451 210T413 194H118Z" />
<glyph unicode="&#x2014;" glyph-name="emdash" horiz-adv-x="1000" d="M0 357Q-10 357 -16 363T-23 380Q-23 390 -17 396T0 403H1000Q1010 403 1016 397T1023 380Q1023 370 1017 364T1000 357H0Z" />
<glyph unicode="&#x2018;" glyph-name="quoteleft" horiz-adv-x="276" d="M135 700Q159 714 177 711T202 695Q209 682 199 672T167 646Q164 644 163 643Q137 625 122 601T107 551Q107 545 108 540T110 531Q120 545 135 553T166 562Q194 562 214 544T234 493Q234
462 211 444T156 425Q107 424 74 460T41 555Q41 603 66 639T135 700Z" />
<glyph unicode="&#x2019;" glyph-name="quoteright" horiz-adv-x="276" d="M141 438Q116 424 99 427T74 443Q67 456 78 467T113 495Q139 512 153 536T168 586Q168 593 168 598T166 607Q156 593 141 584T110 575Q82 575 62 594T41 644Q41 676 65 694T120 713Q169
713 201 677T234 583Q234 535 209 499T141 438Z" />
<glyph unicode="&#x201a;" glyph-name="quotesinglbase" horiz-adv-x="299" d="M153 -146Q128 -159 111 -157T86 -141Q79 -128 90 -117T125 -89Q151 -71 165 -47T180 3Q180 9 180 14T178 23Q168 10 153 1T122 -8Q94 -8 74 10T53 61Q53 93 76 110T132 129Q181 130
213 94T246 -1Q246 -49 221 -85T153 -146Z" />
<glyph unicode="&#x201c;" glyph-name="quotedblleft" horiz-adv-x="507" d="M366 700Q391 714 409 711T434 695Q441 682 431 672T397 645Q395 644 394 643Q369 625 354 601T339 551Q339 545 339 540T341 531Q352 545 366 553T397 562Q426 562 446 544T466 493Q466
462 443 444T387 425Q338 424 306 460T273 555Q273 603 298 639T366 700ZM135 700Q159 714 177 711T202 695Q209 682 199 672T167 646Q164 644 163 643Q137 625 122 601T107 551Q107 545 108 540T110 531Q120 545 135 553T166 562Q194 562 214 544T234 493Q234
462 211 444T156 425Q107 424 74 460T41 555Q41 603 66 639T135 700Z" />
<glyph unicode="&#x201d;" glyph-name="quotedblright" horiz-adv-x="507" d="M372 438Q348 424 331 427T306 443Q299 456 310 467T344 495Q370 512 385 536T400 586Q400 593 399 598T397 607Q387 593 373 584T341 575Q313 575 293 594T273 644Q273 676 296 694T352
713Q401 713 433 677T466 583Q466 535 441 499T372 438ZM141 438Q116 424 99 427T74 443Q67 456 78 467T113 495Q139 512 153 536T168 586Q168 593 168 598T166 607Q156 593 141 584T110 575Q82 575 62 594T41 644Q41 676 65 694T120 713Q169 713 201 677T234 583Q234
535 209 499T141 438Z" />
<glyph unicode="&#x201e;" glyph-name="quotedblbase" horiz-adv-x="527" d="M381 -146Q356 -159 339 -157T314 -141Q307 -128 318 -117T353 -89Q379 -71 393 -47T408 3Q408 9 408 14T406 23Q396 10 381 1T350 -8Q322 -8 302 10T281 61Q281 93 304 110T360 129Q409
130 441 94T474 -1Q474 -49 449 -85T381 -146ZM153 -146Q128 -159 111 -157T86 -141Q79 -128 90 -117T125 -89Q151 -71 165 -47T180 3Q180 9 180 14T178 23Q168 10 153 1T122 -8Q94 -8 74 10T53 61Q53 93 76 110T132 129Q181 130 213 94T246 -1Q246 -49 221 -85T153
-146Z" />
<glyph unicode="&#x2022;" glyph-name="bullet" horiz-adv-x="350" d="M175 271Q129 271 96 304T63 383Q63 429 96 461T175 493Q206 493 231 478T271 439T287 383Q287 352 272 327T231 286T175 271Z" />
<glyph unicode="&#x2039;" glyph-name="guilsinglleft" horiz-adv-x="399" d="M79 242Q40 284 79 326L186 443Q215 475 259 475Q289 475 292 453T270 402L162 284L270 166Q296 137 297 115T276 93H259Q215 93 186 125L79 242Z" />
<glyph unicode="&#x203a;" glyph-name="guilsinglright" horiz-adv-x="399" d="M320 326Q359 284 320 242L213 125Q185 93 141 93Q110 93 107 115T129 166L237 284L129 402Q103 431 102 453T123 475H141Q185 475 213 443L320 326Z" />
</font>
</defs>
</svg>
